<?xml version="1.0" encoding="UTF-8" standalone="no"?>
<!-- Created with Inkscape (http://www.inkscape.org/) -->

<svg
   xmlns:dc="http://purl.org/dc/elements/1.1/"
   xmlns:cc="http://creativecommons.org/ns#"
   xmlns:rdf="http://www.w3.org/1999/02/22-rdf-syntax-ns#"
   xmlns:svg="http://www.w3.org/2000/svg"
   xmlns="http://www.w3.org/2000/svg"
   xmlns:sodipodi="http://sodipodi.sourceforge.net/DTD/sodipodi-0.dtd"
   xmlns:inkscape="http://www.inkscape.org/namespaces/inkscape"
   width="323.93939"
   height="36.258347"
   version="1.1"
   viewBox="0 0 323.93939 36.258346"
   id="svg876"
   sodipodi:docname="aflogo.svg"
   inkscape:version="0.92.3 (2405546, 2018-03-11)">
  <sodipodi:namedview
     pagecolor="#ffffff"
     bordercolor="#666666"
     borderopacity="1"
     objecttolerance="10"
     gridtolerance="10"
     guidetolerance="10"
     inkscape:pageopacity="0"
     inkscape:pageshadow="2"
     inkscape:window-width="960"
     inkscape:window-height="1017"
     id="namedview878"
     showgrid="false"
     inkscape:zoom="1.9585134"
     inkscape:cx="133.76164"
     inkscape:cy="-25.342119"
     inkscape:window-x="960"
     inkscape:window-y="30"
     inkscape:window-maximized="0"
     inkscape:current-layer="svg876" />
  <metadata
     id="metadata819">
    <rdf:RDF>
      <cc:Work
         rdf:about="">
        <dc:format>image/svg+xml</dc:format>
        <dc:type
           rdf:resource="http://purl.org/dc/dcmitype/StillImage" />
        <dc:title />
      </cc:Work>
    </rdf:RDF>
  </metadata>
  <defs
     id="defs826">
    <linearGradient
       id="SVGID_2_"
       x1="166.14999"
       x2="345.85001"
       y1="256"
       y2="256"
       gradientUnits="userSpaceOnUse">
      <stop
         stop-color="#587aa1"
         offset="0"
         id="stop821" />
      <stop
         stop-color="#455f80"
         offset="1"
         id="stop823" />
    </linearGradient>
  </defs>
  <g
     transform="matrix(0.06963241,0,0,0.06963241,139.54784,25.07672)"
     id="g842">
    <circle
       cx="529.83002"
       cy="-104.13"
       r="256"
       id="circle828"
       style="fill:#5c77ff;fill-opacity:0.54509995" />
    <g
       transform="translate(273.83,-360.13)"
       id="g840">
      <path
         d="m 172.98,77 c -53.006,0 -95.976,80.141 -95.976,179 0,98.859 42.97,179 95.976,179 35.444,0 66.402,-35.839 83.024,-89.143 V 166.147 C 239.382,112.843 208.425,77.004 172.98,77.004 Z"
         id="path830"
         inkscape:connector-curvature="0"
         style="fill:#e5f7ff" />
      <path
         d="m 339.02,77 c -35.445,0 -66.402,35.839 -83.024,89.143 v 179.72 c 16.622,53.303 47.579,89.142 83.024,89.142 53.006,0 95.976,-80.141 95.976,-179 0,-98.859 -42.97,-179 -95.976,-179 z"
         id="path832"
         inkscape:connector-curvature="0"
         style="fill:#bfebff" />
      <path
         d="m 314.58,114.56 c -23.59,0 -44.663,20.083 -58.575,51.578 v 179.72 c 13.911,31.496 34.985,51.579 58.575,51.579 41.891,0 75.85,-63.323 75.85,-141.44 0,-78.117 -33.96,-141.44 -75.85,-141.44 z"
         id="path834"
         inkscape:connector-curvature="0"
         style="fill:#85d9ff" />
      <path
         d="m 197.42,114.56 c -41.891,0 -75.85,63.323 -75.85,141.44 0,78.117 33.959,141.44 75.85,141.44 23.59,0 44.663,-20.083 58.575,-51.579 V 166.151 C 242.083,134.655 221.01,114.572 197.42,114.572 Z"
         id="path836"
         inkscape:connector-curvature="0"
         style="fill:#bfebff" />
      <circle
         cx="256"
         cy="256"
         r="89.849998"
         id="circle838"
         style="fill:url(#SVGID_2_)" />
    </g>
  </g>
  <path
     inkscape:connector-curvature="0"
     id="path1458"
     style="font-style:normal;font-variant:normal;font-weight:600;font-stretch:normal;font-size:29.33333397px;line-height:1.25;font-family:'Point Soft DEMO';-inkscape-font-specification:'Point Soft DEMO Semi-Bold';letter-spacing:-1.5px;word-spacing:0px;fill:#000000;fill-opacity:1;stroke:none;stroke-width:1.13446641"
     d="M 22.162935,26.574541 12.312743,7.0405409 C 12.079798,6.607931 11.680466,6.3417096 11.181301,6.3417096 c -0.499165,0 -0.898497,0.2662214 -1.131441,0.6988313 L 0.19966607,26.574541 C 0.06655535,26.807484 0,27.106983 0,27.406483 c 0,0.99833 0.79866435,1.830272 1.8302725,1.830272 0.732109,0 1.364385,-0.43261 1.6638841,-1.064885 L 5.5240951,24.012159 H 16.80523 l 2.029938,4.159711 c 0.332776,0.632275 0.931774,1.064885 1.697161,1.064885 0.998331,0 1.830273,-0.831942 1.830273,-1.830272 0,-0.2995 -0.06656,-0.598999 -0.199667,-0.831942 z m -15.2411772,-5.390984 4.2595432,-8.752031 4.259543,8.752031 z" />
  <path
     inkscape:connector-curvature="0"
     id="path1460"
     style="font-style:normal;font-variant:normal;font-weight:600;font-stretch:normal;font-size:29.33333397px;line-height:1.25;font-family:'Point Soft DEMO';-inkscape-font-specification:'Point Soft DEMO Semi-Bold';letter-spacing:-1.5px;word-spacing:0px;fill:#000000;fill-opacity:1;stroke:none;stroke-width:1.13446641"
     d="m 31.191729,29.30331 c 2.928436,0 5.424262,-1.43094 6.88848,-3.394323 0.332777,-0.43261 0.532443,-0.931775 0.532443,-1.364385 0,-0.931775 -0.765386,-1.630606 -1.730439,-1.630606 -0.632276,0 -1.231274,0.399332 -1.630606,0.898497 -0.898498,1.29783 -2.29616,2.129771 -4.126434,2.129771 -2.86188,0 -5.191318,-2.329437 -5.191318,-5.15804 0,-2.861881 2.329438,-5.224596 5.191318,-5.224596 1.830274,0.03327 3.227936,0.99833 4.126434,2.262882 0.366053,0.465887 0.99833,0.898498 1.630606,0.898498 0.965053,0 1.730439,-0.73211 1.730439,-1.630607 0,-0.465887 -0.199666,-0.965052 -0.532443,-1.397663 -1.43094,-2.029938 -3.993322,-3.427601 -6.88848,-3.427601 -4.991652,0 -9.051529,3.826933 -9.051529,8.519087 0,4.692153 4.059877,8.519086 9.051529,8.519086 z" />
  <path
     inkscape:connector-curvature="0"
     id="path1462"
     style="font-style:normal;font-variant:normal;font-weight:600;font-stretch:normal;font-size:29.33333397px;line-height:1.25;font-family:'Point Soft DEMO';-inkscape-font-specification:'Point Soft DEMO Semi-Bold';letter-spacing:-1.5px;word-spacing:0px;fill:#000000;fill-opacity:1;stroke:none;stroke-width:1.13446641"
     d="m 48.063136,29.30331 c 2.662215,0 5.124763,-1.464218 6.056538,-3.660545 l 0.03327,2.362716 c 0.133111,0.665554 0.73211,1.231274 1.796995,1.231274 1.131442,0 1.73044,-0.898498 1.73044,-1.930106 V 14.228521 c 0,-1.098164 -0.73211,-1.896828 -1.73044,-1.896828 -0.965052,0 -1.663884,0.499165 -1.796995,1.197996 l -0.03327,2.362715 c -0.931775,-2.096494 -3.29449,-3.627267 -6.089816,-3.627267 -4.29282,0 -8.352698,3.494157 -8.352698,8.519087 0,4.991653 4.026599,8.519086 8.385976,8.519086 z m 0.598998,-3.361046 c -2.861881,0 -5.191318,-2.29616 -5.191318,-5.15804 0,-2.861881 2.329437,-5.191319 5.191318,-5.191319 2.861881,0 5.191318,2.329438 5.191318,5.191319 0,2.86188 -2.329437,5.15804 -5.191318,5.15804 z" />
  <path
     inkscape:connector-curvature="0"
     id="path1464"
     style="font-style:normal;font-variant:normal;font-weight:600;font-stretch:normal;font-size:29.33333397px;line-height:1.25;font-family:'Point Soft DEMO';-inkscape-font-specification:'Point Soft DEMO Semi-Bold';letter-spacing:-1.5px;word-spacing:0px;fill:#000000;fill-opacity:1;stroke:none;stroke-width:1.13446641"
     d="m 68.230071,29.30331 c 2.495826,0 5.191318,-1.43094 6.123094,-3.893488 h 0.03327 v 2.362715 c 0,0.865219 0.831942,1.464218 1.73044,1.464218 1.164719,0 1.796994,-0.732109 1.796994,-1.963383 V 6.8741525 c 0,-1.1314411 -0.798664,-1.9633832 -1.896828,-1.9633832 -1.098163,0 -1.896827,0.8319421 -1.896827,1.9633832 v 9.0182515 h -0.06656 c -0.865217,-2.129771 -3.327765,-3.627267 -5.890147,-3.627267 -4.226265,0 -8.219587,3.494157 -8.219587,8.485809 0,5.024931 3.993322,8.552364 8.286143,8.552364 z m 0.698831,-3.361046 c -2.861881,0 -5.191318,-2.29616 -5.191318,-5.15804 0,-2.861881 2.329437,-5.191319 5.191318,-5.191319 2.861881,0 5.191318,2.329438 5.191318,5.191319 0,2.86188 -2.329437,5.15804 -5.191318,5.15804 z" />
  <path
     inkscape:connector-curvature="0"
     id="path1466"
     style="font-style:normal;font-variant:normal;font-weight:600;font-stretch:normal;font-size:29.33333397px;line-height:1.25;font-family:'Point Soft DEMO';-inkscape-font-specification:'Point Soft DEMO Semi-Bold';letter-spacing:-1.5px;word-spacing:0px;fill:#000000;fill-opacity:1;stroke:none;stroke-width:1.13446641"
     d="m 97.683046,19.752616 c 0,-3.7271 -3.793655,-7.487479 -8.519087,-7.487479 -5.324428,0 -9.018251,3.860212 -9.018251,8.519087 0,4.858541 3.993322,8.519086 9.084807,8.519086 3.094824,0 5.623928,-1.297829 6.955036,-2.895158 0.399332,-0.399332 0.598998,-0.931775 0.598998,-1.397663 0,-0.898497 -0.73211,-1.564051 -1.663885,-1.564051 -0.598998,0 -1.098163,0.399332 -1.497495,0.86522 -0.931775,1.131441 -2.462549,1.896828 -4.259544,1.896828 -2.828602,0 -4.925096,-1.663884 -5.45754,-4.259544 h 11.414246 c 1.364385,0 2.362715,-0.931774 2.362715,-2.196326 z M 83.939364,19.186895 c 0.532442,-2.262882 2.362715,-3.826933 5.224595,-3.826933 2.562382,0 4.326099,1.397662 4.925098,3.826933 z" />
  <path
     inkscape:connector-curvature="0"
     id="path1468"
     style="font-style:normal;font-variant:normal;font-weight:600;font-stretch:normal;font-size:29.33333397px;line-height:1.25;font-family:'Point Soft DEMO';-inkscape-font-specification:'Point Soft DEMO Semi-Bold';letter-spacing:-1.5px;word-spacing:0px;fill:#000000;fill-opacity:1;stroke:none;stroke-width:1.13446641"
     d="m 101.72227,29.236755 c 1.09816,0 1.89682,-0.831942 1.89682,-1.963383 v -7.254535 c 0,-2.395993 1.797,-4.359376 3.99333,-4.359376 2.2296,0 3.79365,1.86355 3.79365,4.126432 v 7.487479 c 0,1.131441 0.79867,1.963383 1.89683,1.963383 1.09817,0 1.89683,-0.831942 1.89683,-1.963383 v -7.354368 c 0,-2.429271 1.86354,-4.259543 3.99332,-4.259543 2.2296,0 3.79366,1.86355 3.79366,4.126432 v 7.487479 c 0,1.131441 0.79866,1.963383 1.9301,1.963383 1.09816,0 1.89683,-0.831942 1.89683,-1.963383 v -7.554034 c 0,-4.192988 -2.72877,-7.454201 -7.05487,-7.454201 -2.42927,0 -4.72543,1.29783 -5.72376,3.627267 -0.86522,-2.163049 -2.76205,-3.627267 -5.29115,-3.627267 -2.26289,0 -4.35938,1.29783 -5.32443,3.46088 l -0.0333,-1.996662 c -0.16638,-0.86522 -0.79866,-1.331108 -1.73044,-1.331108 -1.16472,0 -1.830268,0.73211 -1.830268,1.73044 v 13.144685 c 0,1.131441 0.798668,1.963383 1.896828,1.963383 z" />
  <path
     inkscape:connector-curvature="0"
     id="path1470"
     style="font-style:normal;font-variant:normal;font-weight:600;font-stretch:normal;font-size:29.33333397px;line-height:1.25;font-family:'Point Soft DEMO';-inkscape-font-specification:'Point Soft DEMO Semi-Bold';letter-spacing:-1.5px;word-spacing:0px;fill:#000000;fill-opacity:1;stroke:none;stroke-width:1.13446641"
     d="m 131.99834,29.236755 c 1.09816,0 1.89683,-0.831942 1.89683,-1.963383 V 14.261798 c 0,-1.131441 -0.79867,-1.930105 -1.89683,-1.930105 -1.09816,0 -1.89683,0.798664 -1.89683,1.930105 v 13.011574 c 0,1.131441 0.79867,1.963383 1.89683,1.963383 z"
     sodipodi:nodetypes="sssssss" />
  <path
     inkscape:connector-curvature="0"
     id="path1472"
     style="font-style:normal;font-variant:normal;font-weight:600;font-stretch:normal;font-size:29.33333397px;line-height:1.25;font-family:'Point Soft DEMO';-inkscape-font-specification:'Point Soft DEMO Semi-Bold';letter-spacing:-1.5px;word-spacing:0px;fill:#000000;fill-opacity:1;stroke:none;stroke-width:1.13446641"
     d="m 144.58732,29.30331 c 2.66221,0 5.12476,-1.464218 6.05653,-3.660545 l 0.0332,2.362716 c 0.13311,0.665554 0.73211,1.231274 1.797,1.231274 1.13143,0 1.73043,-0.898498 1.73043,-1.930106 V 14.228521 c 0,-1.098164 -0.7321,-1.896828 -1.73043,-1.896828 -0.96506,0 -1.66389,0.499165 -1.797,1.197996 l -0.0332,2.362715 c -0.93177,-2.096494 -3.29449,-3.627267 -6.08981,-3.627267 -4.29282,0 -8.35269,3.494157 -8.35269,8.519087 0,4.991653 4.02659,8.519086 8.38597,8.519086 z m 0.599,-3.361046 c -2.86188,0 -5.19132,-2.29616 -5.19132,-5.15804 0,-2.861881 2.32944,-5.191319 5.19132,-5.191319 2.86187,0 5.19132,2.329438 5.19132,5.191319 0,2.86188 -2.32945,5.15804 -5.19132,5.15804 z" />
  <path
     inkscape:connector-curvature="0"
     id="path1474"
     style="font-style:normal;font-variant:normal;font-weight:600;font-stretch:normal;font-size:29.33333397px;line-height:1.25;font-family:'Point Soft DEMO';-inkscape-font-specification:'Point Soft DEMO Semi-Bold';letter-spacing:-1.5px;word-spacing:0px;fill:#000000;fill-opacity:1;stroke:none;stroke-width:1.13446641"
     d="m 215.12519,8.2718151 c 0,-0.931775 -0.76539,-1.6971617 -1.69717,-1.6971617 h -12.5124 c -1.03161,0 -1.59733,0.5657206 -1.59733,1.5973287 V 27.040428 c 0,1.098163 0.8985,1.99666 1.99666,1.99666 1.09817,0 1.99666,-0.898497 1.99666,-1.99666 v -7.387646 h 9.71708 c 0.86523,0 1.56406,-0.698831 1.56406,-1.564051 0,-0.865219 -0.69883,-1.597329 -1.56406,-1.597329 h -9.71708 V 9.9356992 h 10.11641 c 0.93178,0 1.69717,-0.7653866 1.69717,-1.6638841 z" />
  <path
     inkscape:connector-curvature="0"
     id="path1476"
     style="font-style:normal;font-variant:normal;font-weight:600;font-stretch:normal;font-size:29.33333397px;line-height:1.25;font-family:'Point Soft DEMO';-inkscape-font-specification:'Point Soft DEMO Semi-Bold';letter-spacing:-1.5px;word-spacing:0px;fill:#000000;fill-opacity:1;stroke:none;stroke-width:1.13446641"
     d="m 223.84043,29.30331 c 2.66222,0 5.12476,-1.464218 6.05654,-3.660545 l 0.0332,2.362716 c 0.13311,0.665554 0.73211,1.231274 1.797,1.231274 1.13143,0 1.73043,-0.898498 1.73043,-1.930106 V 14.228521 c 0,-1.098164 -0.7321,-1.896828 -1.73043,-1.896828 -0.96506,0 -1.66389,0.499165 -1.797,1.197996 l -0.0332,2.362715 c -0.93178,-2.096494 -3.29449,-3.627267 -6.08981,-3.627267 -4.29282,0 -8.35271,3.494157 -8.35271,8.519087 0,4.991653 4.0266,8.519086 8.38598,8.519086 z m 0.599,-3.361046 c -2.86189,0 -5.19132,-2.29616 -5.19132,-5.15804 0,-2.861881 2.32943,-5.191319 5.19132,-5.191319 2.86188,0 5.19132,2.329438 5.19132,5.191319 0,2.86188 -2.32944,5.15804 -5.19132,5.15804 z" />
  <path
     inkscape:connector-curvature="0"
     id="path1478"
     style="font-style:normal;font-variant:normal;font-weight:600;font-stretch:normal;font-size:29.33333397px;line-height:1.25;font-family:'Point Soft DEMO';-inkscape-font-specification:'Point Soft DEMO Semi-Bold';letter-spacing:-1.5px;word-spacing:0px;fill:#000000;fill-opacity:1;stroke:none;stroke-width:1.13446641"
     d="m 238.91589,29.236755 c 1.03161,0 1.89683,-0.865219 1.89683,-1.896828 v -5.657205 c 0,-3.194659 1.83028,-5.490819 4.55904,-6.023261 1.198,-0.266222 1.66389,-0.998331 1.66389,-1.930106 0,-0.831942 -0.56572,-1.497495 -1.63061,-1.464218 -2.19633,0.03327 -4.19299,1.796995 -4.7587,4.45921 h -0.0666 v -2.728771 c 0,-0.931775 -0.79866,-1.663883 -1.76372,-1.663883 -0.96504,0 -1.79699,0.798664 -1.79699,1.763716 v 13.244518 c 0,1.031609 0.83195,1.896828 1.89682,1.896828 z" />
  <path
     inkscape:connector-curvature="0"
     id="path1480"
     style="font-style:normal;font-variant:normal;font-weight:600;font-stretch:normal;font-size:29.33333397px;line-height:1.25;font-family:'Point Soft DEMO';-inkscape-font-specification:'Point Soft DEMO Semi-Bold';letter-spacing:-1.5px;word-spacing:0px;fill:#000000;fill-opacity:1;stroke:none;stroke-width:1.13446641"
     d="m 255.20962,29.30331 c 2.6622,0 5.12476,-1.464218 6.05653,-3.660545 l 0.0332,2.362716 c 0.1331,0.665554 0.7321,1.231274 1.79699,1.231274 1.13144,0 1.73044,-0.898498 1.73044,-1.930106 V 14.228521 c 0,-1.098164 -0.73211,-1.896828 -1.73044,-1.896828 -0.96505,0 -1.66389,0.499165 -1.79699,1.197996 l -0.0332,2.362715 c -0.93177,-2.096494 -3.29449,-3.627267 -6.08982,-3.627267 -4.29282,0 -8.35269,3.494157 -8.35269,8.519087 0,4.991653 4.0266,8.519086 8.38598,8.519086 z m 0.599,-3.361046 c -2.86189,0 -5.19132,-2.29616 -5.19132,-5.15804 0,-2.861881 2.32943,-5.191319 5.19132,-5.191319 2.86187,0 5.19131,2.329438 5.19131,5.191319 0,2.86188 -2.32944,5.15804 -5.19131,5.15804 z" />
  <path
     inkscape:connector-curvature="0"
     id="path1482"
     style="font-style:normal;font-variant:normal;font-weight:600;font-stretch:normal;font-size:29.33333397px;line-height:1.25;font-family:'Point Soft DEMO';-inkscape-font-specification:'Point Soft DEMO Semi-Bold';letter-spacing:-1.5px;word-spacing:0px;fill:#000000;fill-opacity:1;stroke:none;stroke-width:1.13446641"
     d="m 275.37655,29.30331 c 2.49583,0 5.19132,-1.43094 6.12309,-3.893488 h 0.0332 v 2.362715 c 0,0.865219 0.83195,1.464218 1.73045,1.464218 1.16471,0 1.79699,-0.732109 1.79699,-1.963383 V 6.8741525 c 0,-1.1314411 -0.79866,-1.9633832 -1.89683,-1.9633832 -1.09816,0 -1.89683,0.8319421 -1.89683,1.9633832 v 9.0182515 h -0.0666 c -0.86522,-2.129771 -3.32776,-3.627267 -5.89015,-3.627267 -4.22626,0 -8.21958,3.494157 -8.21958,8.485809 0,5.024931 3.99332,8.552364 8.28614,8.552364 z m 0.69883,-3.361046 c -2.86188,0 -5.19132,-2.29616 -5.19132,-5.15804 0,-2.861881 2.32944,-5.191319 5.19132,-5.191319 2.86187,0 5.19132,2.329438 5.19132,5.191319 0,2.86188 -2.32945,5.15804 -5.19132,5.15804 z" />
  <path
     inkscape:connector-curvature="0"
     id="path1484"
     style="font-style:normal;font-variant:normal;font-weight:600;font-stretch:normal;font-size:29.33333397px;line-height:1.25;font-family:'Point Soft DEMO';-inkscape-font-specification:'Point Soft DEMO Semi-Bold';letter-spacing:-1.5px;word-spacing:0px;fill:#000000;fill-opacity:1;stroke:none;stroke-width:1.13446641"
     d="m 295.67815,29.30331 c 2.66222,0 5.12477,-1.464218 6.05655,-3.660545 l 0.0332,2.362716 c 0.13311,0.665554 0.73211,1.231274 1.79699,1.231274 1.13145,0 1.73045,-0.898498 1.73045,-1.930106 V 14.228521 c 0,-1.098164 -0.73212,-1.896828 -1.73045,-1.896828 -0.96504,0 -1.66388,0.499165 -1.79699,1.197996 l -0.0332,2.362715 c -0.93178,-2.096494 -3.29449,-3.627267 -6.08982,-3.627267 -4.29282,0 -8.3527,3.494157 -8.3527,8.519087 0,4.991653 4.02661,8.519086 8.38597,8.519086 z m 0.599,-3.361046 c -2.86187,0 -5.19132,-2.29616 -5.19132,-5.15804 0,-2.861881 2.32945,-5.191319 5.19132,-5.191319 2.86189,0 5.19132,2.329438 5.19132,5.191319 0,2.86188 -2.32943,5.15804 -5.19132,5.15804 z" />
  <path
     inkscape:connector-curvature="0"
     id="path1486"
     style="font-style:normal;font-variant:normal;font-weight:600;font-stretch:normal;font-size:29.33333397px;line-height:1.25;font-family:'Point Soft DEMO';-inkscape-font-specification:'Point Soft DEMO Semi-Bold';letter-spacing:-1.5px;word-spacing:0px;fill:#000000;fill-opacity:1;stroke:none;stroke-width:1.13446641"
     d="m 310.99437,36.258346 c 0.66556,0 1.23127,-0.366055 1.56405,-0.931776 l 11.18131,-20.299385 c 0.1331,-0.266222 0.19966,-0.532443 0.19966,-0.86522 0,-0.998331 -0.79866,-1.796995 -1.83028,-1.796995 -0.7321,0 -1.3311,0.432609 -1.66388,1.064886 l -4.99165,9.18464 -5.02493,-9.18464 c -0.36605,-0.632277 -0.93178,-1.064886 -1.66388,-1.064886 -0.99833,0 -1.83028,0.798664 -1.83028,1.830272 0,0.2995 0.0666,0.565721 0.19966,0.831943 l 6.28949,11.34769 -4.0266,7.287812 c -0.13311,0.232943 -0.19967,0.532442 -0.19967,0.831942 0,0.965053 0.79867,1.763717 1.797,1.763717 z" />
  <path
     inkscape:connector-curvature="0"
     id="path1470-0"
     style="font-style:normal;font-variant:normal;font-weight:600;font-stretch:normal;font-size:29.33333397px;line-height:1.25;font-family:'Point Soft DEMO';-inkscape-font-specification:'Point Soft DEMO Semi-Bold';letter-spacing:-1.5px;word-spacing:0px;fill:#000000;fill-opacity:1;stroke:none;stroke-width:1.13446641"
     d="m 132.11799,10.218033 c 1.26455,0 2.32944,-1.0316084 2.32944,-2.2961602 0,-1.2312741 -1.06489,-2.2961601 -2.32944,-2.2961601 -1.29783,0 -2.36272,1.064886 -2.36272,2.2961601 0,1.2645518 1.06489,2.2961602 2.36272,2.2961602 z"
     sodipodi:nodetypes="sssss" />
</svg>
