<?xml version="1.0" encoding="UTF-8" standalone="no"?>
<!-- Created with Inkscape (http://www.inkscape.org/) -->

<svg
   xmlns:dc="http://purl.org/dc/elements/1.1/"
   xmlns:cc="http://creativecommons.org/ns#"
   xmlns:rdf="http://www.w3.org/1999/02/22-rdf-syntax-ns#"
   xmlns:svg="http://www.w3.org/2000/svg"
   xmlns="http://www.w3.org/2000/svg"
   xmlns:sodipodi="http://sodipodi.sourceforge.net/DTD/sodipodi-0.dtd"
   xmlns:inkscape="http://www.inkscape.org/namespaces/inkscape"
   width="370.00427"
   height="49.64262"
   version="1.1"
   viewBox="0 0 370.00426 49.64262"
   id="svg876"
   sodipodi:docname="aflogo.svg"
   inkscape:version="0.92.3 (2405546, 2018-03-11)">
  <sodipodi:namedview
     pagecolor="#ffffff"
     bordercolor="#666666"
     borderopacity="1"
     objecttolerance="10"
     gridtolerance="10"
     guidetolerance="10"
     inkscape:pageopacity="0"
     inkscape:pageshadow="2"
     inkscape:window-width="960"
     inkscape:window-height="1017"
     id="namedview878"
     showgrid="false"
     inkscape:zoom="1.5379526"
     inkscape:cx="13.949489"
     inkscape:cy="14.611297"
     inkscape:window-x="960"
     inkscape:window-y="30"
     inkscape:window-maximized="0"
     inkscape:current-layer="svg876" />
  <metadata
     id="metadata819">
    <rdf:RDF>
      <cc:Work
         rdf:about="">
        <dc:format>image/svg+xml</dc:format>
        <dc:type
           rdf:resource="http://purl.org/dc/dcmitype/StillImage" />
        <dc:title />
      </cc:Work>
    </rdf:RDF>
  </metadata>
  <defs
     id="defs826">
    <linearGradient
       id="SVGID_2_"
       x1="166.14999"
       x2="345.85001"
       y1="256"
       y2="256"
       gradientUnits="userSpaceOnUse">
      <stop
         stop-color="#587aa1"
         offset="0"
         id="stop821" />
      <stop
         stop-color="#455f80"
         offset="1"
         id="stop823" />
    </linearGradient>
    <linearGradient
       id="SVGID_1_"
       gradientUnits="userSpaceOnUse"
       x1="74.981003"
       x2="437.01901"
       y1="74.981003"
       y2="437.01901">
      <stop
         offset="0"
         stop-color="#ff4f75"
         id="stop2" />
      <stop
         offset="1"
         stop-color="#f71e78"
         id="stop4" />
    </linearGradient>
  </defs>
  <g
     id="g913">
    <circle
       style="fill:#ff4f75;stroke-width:0.09096034"
       cx="35.285847"
       cy="25.124502"
       r="23.285847"
       id="circle2" />
    <path
       style="fill:#a82059;fill-opacity:1;stroke-width:0.09096034"
       inkscape:connector-curvature="0"
       d="m 58.571694,25.124503 c 0,-0.991013 -0.0624,-1.967381 -0.182557,-2.92574 C 54.560889,18.370334 47.023733,10.833633 47.023733,10.833633 L 36.026901,14.94122 31.932139,10.846458 23.63883,39.506333 c 0,0 4.835452,4.835907 8.721187,8.721459 0.958449,0.12025 1.934817,0.182558 2.92583,0.182558 12.860428,0 23.285847,-10.42542 23.285847,-23.285847 z"
       id="path4" />
    <g
       transform="matrix(0.09096034,0,0,0.09096034,12,1.8386557)"
       id="g18">
      <path
         style="fill:#e5f7ff"
         inkscape:connector-curvature="0"
         d="M 172.976,77 C 119.97,77 77,157.141 77,256 c 0,98.859 42.97,179 95.976,179 35.444,0 66.402,-35.839 83.024,-89.143 V 166.143 C 239.378,112.839 208.421,77 172.976,77 Z"
         id="path6" />
      <path
         style="fill:#bfebff"
         inkscape:connector-curvature="0"
         d="M 339.024,77 C 303.579,77 272.622,112.839 256,166.143 V 345.858 C 272.622,399.161 303.579,435 339.024,435 392.03,435 435,354.859 435,256 435,157.141 392.03,77 339.024,77 Z"
         id="path8" />
      <path
         style="fill:#85d9ff"
         inkscape:connector-curvature="0"
         d="m 314.575,114.564 c -23.59,0 -44.663,20.083 -58.575,51.578 v 179.715 c 13.911,31.496 34.985,51.579 58.575,51.579 41.891,0 75.85,-63.323 75.85,-141.436 0,-78.113 -33.96,-141.436 -75.85,-141.436 z"
         id="path10" />
      <path
         style="fill:#bfebff"
         inkscape:connector-curvature="0"
         d="m 197.425,114.564 c -41.891,0 -75.85,63.323 -75.85,141.436 0,78.113 33.959,141.436 75.85,141.436 23.59,0 44.663,-20.083 58.575,-51.579 V 166.143 c -13.912,-31.496 -34.985,-51.579 -58.575,-51.579 z"
         id="path12" />
      <path
         style="fill:#455f80"
         inkscape:connector-curvature="0"
         d="M 256,166.15 201.617,256 256,345.85 c 49.543,0 89.85,-40.306 89.85,-89.85 0,-49.544 -40.307,-89.85 -89.85,-89.85 z"
         id="path14" />
      <path
         style="fill:#587aa1"
         inkscape:connector-curvature="0"
         d="m 166.15,256 c 0,49.543 40.306,89.85 89.85,89.85 v -179.7 c -49.544,0 -89.85,40.306 -89.85,89.85 z"
         id="path16" />
    </g>
    <g
       transform="matrix(1.0076231,0,0,1.0076231,-49.450726,-139.1668)"
       id="g1322">
      <path
         inkscape:connector-curvature="0"
         id="path1458-3"
         style="font-style:normal;font-variant:normal;font-weight:600;font-stretch:normal;font-size:29.33333397px;line-height:1.25;font-family:'Point Soft DEMO';-inkscape-font-specification:'Point Soft DEMO Semi-Bold';letter-spacing:-1.5px;word-spacing:0px;fill:#000000;fill-opacity:1;stroke:none;stroke-width:1.13446641"
         d="m 137.60172,169.11374 -9.85019,-19.534 c -0.23295,-0.43261 -0.63228,-0.69883 -1.13144,-0.69883 -0.49917,0 -0.8985,0.26622 -1.13144,0.69883 l -9.8502,19.534 c -0.13311,0.23295 -0.19966,0.53245 -0.19966,0.83195 0,0.99833 0.79866,1.83027 1.83027,1.83027 0.73211,0 1.36438,-0.43261 1.66388,-1.06489 l 2.02994,-4.15971 h 11.28114 l 2.02993,4.15971 c 0.33278,0.63228 0.93178,1.06489 1.69717,1.06489 0.99833,0 1.83027,-0.83194 1.83027,-1.83027 0,-0.2995 -0.0666,-0.599 -0.19967,-0.83195 z m -15.24118,-5.39098 4.25955,-8.75203 4.25954,8.75203 z" />
      <path
         inkscape:connector-curvature="0"
         id="path1460-5"
         style="font-style:normal;font-variant:normal;font-weight:600;font-stretch:normal;font-size:29.33333397px;line-height:1.25;font-family:'Point Soft DEMO';-inkscape-font-specification:'Point Soft DEMO Semi-Bold';letter-spacing:-1.5px;word-spacing:0px;fill:#000000;fill-opacity:1;stroke:none;stroke-width:1.13446641"
         d="m 146.63052,171.84251 c 2.92843,0 5.42426,-1.43094 6.88848,-3.39432 0.33277,-0.43261 0.53244,-0.93177 0.53244,-1.36438 0,-0.93178 -0.76539,-1.63061 -1.73044,-1.63061 -0.63228,0 -1.23127,0.39933 -1.63061,0.8985 -0.89849,1.29783 -2.29616,2.12977 -4.12643,2.12977 -2.86188,0 -5.19132,-2.32944 -5.19132,-5.15804 0,-2.86188 2.32944,-5.2246 5.19132,-5.2246 1.83027,0.0333 3.22794,0.99833 4.12643,2.26288 0.36606,0.46589 0.99833,0.8985 1.63061,0.8985 0.96505,0 1.73044,-0.73211 1.73044,-1.63061 0,-0.46588 -0.19967,-0.96505 -0.53244,-1.39766 -1.43094,-2.02994 -3.99333,-3.4276 -6.88848,-3.4276 -4.99166,0 -9.05153,3.82693 -9.05153,8.51909 0,4.69215 4.05987,8.51908 9.05153,8.51908 z" />
      <path
         inkscape:connector-curvature="0"
         id="path1462-6"
         style="font-style:normal;font-variant:normal;font-weight:600;font-stretch:normal;font-size:29.33333397px;line-height:1.25;font-family:'Point Soft DEMO';-inkscape-font-specification:'Point Soft DEMO Semi-Bold';letter-spacing:-1.5px;word-spacing:0px;fill:#000000;fill-opacity:1;stroke:none;stroke-width:1.13446641"
         d="m 163.50192,171.84251 c 2.66222,0 5.12477,-1.46421 6.05654,-3.66054 l 0.0333,2.36271 c 0.13311,0.66556 0.73211,1.23128 1.797,1.23128 1.13144,0 1.73044,-0.8985 1.73044,-1.93011 v -13.07813 c 0,-1.09816 -0.73211,-1.89682 -1.73044,-1.89682 -0.96506,0 -1.66389,0.49916 -1.797,1.19799 l -0.0333,2.36272 c -0.93177,-2.0965 -3.29449,-3.62727 -6.08982,-3.62727 -4.29282,0 -8.35269,3.49416 -8.35269,8.51909 0,4.99165 4.0266,8.51908 8.38597,8.51908 z m 0.599,-3.36104 c -2.86188,0 -5.19132,-2.29616 -5.19132,-5.15804 0,-2.86188 2.32944,-5.19132 5.19132,-5.19132 2.86188,0 5.19132,2.32944 5.19132,5.19132 0,2.86188 -2.32944,5.15804 -5.19132,5.15804 z" />
      <path
         inkscape:connector-curvature="0"
         id="path1464-2"
         style="font-style:normal;font-variant:normal;font-weight:600;font-stretch:normal;font-size:29.33333397px;line-height:1.25;font-family:'Point Soft DEMO';-inkscape-font-specification:'Point Soft DEMO Semi-Bold';letter-spacing:-1.5px;word-spacing:0px;fill:#000000;fill-opacity:1;stroke:none;stroke-width:1.13446641"
         d="m 183.66886,171.84251 c 2.49582,0 5.19132,-1.43094 6.12309,-3.89348 h 0.0333 v 2.36271 c 0,0.86522 0.83194,1.46422 1.73044,1.46422 1.16472,0 1.797,-0.73211 1.797,-1.96338 v -20.39922 c 0,-1.13144 -0.79867,-1.96339 -1.89683,-1.96339 -1.09817,0 -1.89683,0.83195 -1.89683,1.96339 v 9.01825 h -0.0666 c -0.86522,-2.12977 -3.32776,-3.62727 -5.89015,-3.62727 -4.22626,0 -8.21958,3.49416 -8.21958,8.48581 0,5.02493 3.99332,8.55236 8.28614,8.55236 z m 0.69883,-3.36104 c -2.86188,0 -5.19132,-2.29616 -5.19132,-5.15804 0,-2.86188 2.32944,-5.19132 5.19132,-5.19132 2.86188,0 5.19132,2.32944 5.19132,5.19132 0,2.86188 -2.32944,5.15804 -5.19132,5.15804 z" />
      <path
         inkscape:connector-curvature="0"
         id="path1466-9"
         style="font-style:normal;font-variant:normal;font-weight:600;font-stretch:normal;font-size:29.33333397px;line-height:1.25;font-family:'Point Soft DEMO';-inkscape-font-specification:'Point Soft DEMO Semi-Bold';letter-spacing:-1.5px;word-spacing:0px;fill:#000000;fill-opacity:1;stroke:none;stroke-width:1.13446641"
         d="m 213.12183,162.29182 c 0,-3.7271 -3.79365,-7.48748 -8.51908,-7.48748 -5.32443,0 -9.01826,3.86021 -9.01826,8.51909 0,4.85854 3.99333,8.51908 9.08481,8.51908 3.09483,0 5.62393,-1.29783 6.95504,-2.89515 0.39933,-0.39934 0.599,-0.93178 0.599,-1.39767 0,-0.89849 -0.73211,-1.56405 -1.66389,-1.56405 -0.599,0 -1.09816,0.39933 -1.49749,0.86522 -0.93178,1.13144 -2.46255,1.89683 -4.25955,1.89683 -2.8286,0 -4.92509,-1.66388 -5.45754,-4.25954 h 11.41425 c 1.36438,0 2.36271,-0.93178 2.36271,-2.19633 z m -13.74368,-0.56572 c 0.53244,-2.26288 2.36272,-3.82693 5.2246,-3.82693 2.56238,0 4.32609,1.39766 4.92509,3.82693 z" />
      <path
         inkscape:connector-curvature="0"
         id="path1468-1"
         style="font-style:normal;font-variant:normal;font-weight:600;font-stretch:normal;font-size:29.33333397px;line-height:1.25;font-family:'Point Soft DEMO';-inkscape-font-specification:'Point Soft DEMO Semi-Bold';letter-spacing:-1.5px;word-spacing:0px;fill:#000000;fill-opacity:1;stroke:none;stroke-width:1.13446641"
         d="m 217.16106,171.77596 c 1.09816,0 1.89682,-0.83194 1.89682,-1.96338 v -7.25454 c 0,-2.39599 1.797,-4.35938 3.99333,-4.35938 2.2296,0 3.79365,1.86355 3.79365,4.12644 v 7.48748 c 0,1.13144 0.79867,1.96338 1.89683,1.96338 1.09817,0 1.89683,-0.83194 1.89683,-1.96338 v -7.35437 c 0,-2.42927 1.86354,-4.25955 3.99332,-4.25955 2.2296,0 3.79366,1.86355 3.79366,4.12644 v 7.48748 c 0,1.13144 0.79866,1.96338 1.9301,1.96338 1.09816,0 1.89683,-0.83194 1.89683,-1.96338 v -7.55404 c 0,-4.19299 -2.72877,-7.4542 -7.05487,-7.4542 -2.42927,0 -4.72543,1.29783 -5.72376,3.62727 -0.86522,-2.16305 -2.76205,-3.62727 -5.29115,-3.62727 -2.26289,0 -4.35938,1.29783 -5.32443,3.46088 l -0.0333,-1.99666 c -0.16638,-0.86522 -0.79866,-1.33111 -1.73044,-1.33111 -1.16472,0 -1.83027,0.73211 -1.83027,1.73044 v 13.14469 c 0,1.13144 0.79867,1.96338 1.89683,1.96338 z" />
      <path
         inkscape:connector-curvature="0"
         id="path1470-2"
         style="font-style:normal;font-variant:normal;font-weight:600;font-stretch:normal;font-size:29.33333397px;line-height:1.25;font-family:'Point Soft DEMO';-inkscape-font-specification:'Point Soft DEMO Semi-Bold';letter-spacing:-1.5px;word-spacing:0px;fill:#000000;fill-opacity:1;stroke:none;stroke-width:1.13446641"
         d="m 247.43713,171.77596 c 1.09816,0 1.89683,-0.83194 1.89683,-1.96338 V 156.801 c 0,-1.13144 -0.79867,-1.9301 -1.89683,-1.9301 -1.09816,0 -1.89683,0.79866 -1.89683,1.9301 v 13.01158 c 0,1.13144 0.79867,1.96338 1.89683,1.96338 z"
         sodipodi:nodetypes="sssssss" />
      <path
         inkscape:connector-curvature="0"
         id="path1472-7"
         style="font-style:normal;font-variant:normal;font-weight:600;font-stretch:normal;font-size:29.33333397px;line-height:1.25;font-family:'Point Soft DEMO';-inkscape-font-specification:'Point Soft DEMO Semi-Bold';letter-spacing:-1.5px;word-spacing:0px;fill:#000000;fill-opacity:1;stroke:none;stroke-width:1.13446641"
         d="m 260.02611,171.84251 c 2.66221,0 5.12476,-1.46421 6.05653,-3.66054 l 0.0332,2.36271 c 0.13311,0.66556 0.73211,1.23128 1.797,1.23128 1.13143,0 1.73043,-0.8985 1.73043,-1.93011 v -13.07813 c 0,-1.09816 -0.7321,-1.89682 -1.73043,-1.89682 -0.96506,0 -1.66389,0.49916 -1.797,1.19799 l -0.0332,2.36272 c -0.93177,-2.0965 -3.29449,-3.62727 -6.08981,-3.62727 -4.29282,0 -8.35269,3.49416 -8.35269,8.51909 0,4.99165 4.02659,8.51908 8.38597,8.51908 z m 0.599,-3.36104 c -2.86188,0 -5.19132,-2.29616 -5.19132,-5.15804 0,-2.86188 2.32944,-5.19132 5.19132,-5.19132 2.86187,0 5.19132,2.32944 5.19132,5.19132 0,2.86188 -2.32945,5.15804 -5.19132,5.15804 z" />
      <path
         inkscape:connector-curvature="0"
         id="path1474-0"
         style="font-style:normal;font-variant:normal;font-weight:600;font-stretch:normal;font-size:29.33333397px;line-height:1.25;font-family:'Point Soft DEMO';-inkscape-font-specification:'Point Soft DEMO Semi-Bold';letter-spacing:-1.5px;word-spacing:0px;fill:#000000;fill-opacity:1;stroke:none;stroke-width:1.13446641"
         d="m 296.6611,152.27704 c 0,-0.93178 -0.76539,-1.69716 -1.69717,-1.69716 h -12.5124 c -1.03161,0 -1.59733,0.56572 -1.59733,1.59733 v 18.86844 c 0,1.09816 0.8985,1.99666 1.99666,1.99666 1.09817,0 1.99666,-0.8985 1.99666,-1.99666 v -7.38764 h 9.71708 c 0.86523,0 1.56406,-0.69884 1.56406,-1.56406 0,-0.86521 -0.69883,-1.59732 -1.56406,-1.59732 h -9.71708 v -6.55571 h 10.11641 c 0.93178,0 1.69717,-0.76538 1.69717,-1.66388 z" />
      <path
         inkscape:connector-curvature="0"
         id="path1476-9"
         style="font-style:normal;font-variant:normal;font-weight:600;font-stretch:normal;font-size:29.33333397px;line-height:1.25;font-family:'Point Soft DEMO';-inkscape-font-specification:'Point Soft DEMO Semi-Bold';letter-spacing:-1.5px;word-spacing:0px;fill:#000000;fill-opacity:1;stroke:none;stroke-width:1.13446641"
         d="m 305.37634,173.30853 c 2.66222,0 5.12476,-1.46421 6.05654,-3.66054 l 0.0332,2.36271 c 0.13311,0.66556 0.73211,1.23128 1.797,1.23128 1.13143,0 1.73043,-0.8985 1.73043,-1.93011 v -13.07813 c 0,-1.09816 -0.7321,-1.89682 -1.73043,-1.89682 -0.96506,0 -1.66389,0.49916 -1.797,1.19799 l -0.0332,2.36272 c -0.93178,-2.0965 -3.29449,-3.62727 -6.08981,-3.62727 -4.29282,0 -8.35271,3.49416 -8.35271,8.51909 0,4.99165 4.0266,8.51908 8.38598,8.51908 z m 0.599,-3.36104 c -2.86189,0 -5.19132,-2.29616 -5.19132,-5.15804 0,-2.86188 2.32943,-5.19132 5.19132,-5.19132 2.86188,0 5.19132,2.32944 5.19132,5.19132 0,2.86188 -2.32944,5.15804 -5.19132,5.15804 z" />
      <path
         inkscape:connector-curvature="0"
         id="path1478-3"
         style="font-style:normal;font-variant:normal;font-weight:600;font-stretch:normal;font-size:29.33333397px;line-height:1.25;font-family:'Point Soft DEMO';-inkscape-font-specification:'Point Soft DEMO Semi-Bold';letter-spacing:-1.5px;word-spacing:0px;fill:#000000;fill-opacity:1;stroke:none;stroke-width:1.13446641"
         d="m 320.4518,173.24198 c 1.03161,0 1.89683,-0.86522 1.89683,-1.89683 v -5.6572 c 0,-3.19466 1.83028,-5.49082 4.55904,-6.02327 1.198,-0.26622 1.66389,-0.99833 1.66389,-1.9301 0,-0.83194 -0.56572,-1.4975 -1.63061,-1.46422 -2.19633,0.0333 -4.19299,1.797 -4.7587,4.45921 h -0.0666 v -2.72877 c 0,-0.93178 -0.79866,-1.66388 -1.76372,-1.66388 -0.96504,0 -1.79699,0.79866 -1.79699,1.76371 v 13.24452 c 0,1.03161 0.83195,1.89683 1.89682,1.89683 z" />
      <path
         inkscape:connector-curvature="0"
         id="path1480-6"
         style="font-style:normal;font-variant:normal;font-weight:600;font-stretch:normal;font-size:29.33333397px;line-height:1.25;font-family:'Point Soft DEMO';-inkscape-font-specification:'Point Soft DEMO Semi-Bold';letter-spacing:-1.5px;word-spacing:0px;fill:#000000;fill-opacity:1;stroke:none;stroke-width:1.13446641"
         d="m 336.74553,173.30853 c 2.6622,0 5.12476,-1.46421 6.05653,-3.66054 l 0.0332,2.36271 c 0.1331,0.66556 0.7321,1.23128 1.79699,1.23128 1.13144,0 1.73044,-0.8985 1.73044,-1.93011 v -13.07813 c 0,-1.09816 -0.73211,-1.89682 -1.73044,-1.89682 -0.96505,0 -1.66389,0.49916 -1.79699,1.19799 l -0.0332,2.36272 c -0.93177,-2.0965 -3.29449,-3.62727 -6.08982,-3.62727 -4.29282,0 -8.35269,3.49416 -8.35269,8.51909 0,4.99165 4.0266,8.51908 8.38598,8.51908 z m 0.599,-3.36104 c -2.86189,0 -5.19132,-2.29616 -5.19132,-5.15804 0,-2.86188 2.32943,-5.19132 5.19132,-5.19132 2.86187,0 5.19131,2.32944 5.19131,5.19132 0,2.86188 -2.32944,5.15804 -5.19131,5.15804 z" />
      <path
         inkscape:connector-curvature="0"
         id="path1482-0"
         style="font-style:normal;font-variant:normal;font-weight:600;font-stretch:normal;font-size:29.33333397px;line-height:1.25;font-family:'Point Soft DEMO';-inkscape-font-specification:'Point Soft DEMO Semi-Bold';letter-spacing:-1.5px;word-spacing:0px;fill:#000000;fill-opacity:1;stroke:none;stroke-width:1.13446641"
         d="m 356.91246,173.30853 c 2.49583,0 5.19132,-1.43094 6.12309,-3.89348 h 0.0332 v 2.36271 c 0,0.86522 0.83195,1.46422 1.73045,1.46422 1.16471,0 1.79699,-0.73211 1.79699,-1.96338 v -20.39922 c 0,-1.13144 -0.79866,-1.96339 -1.89683,-1.96339 -1.09816,0 -1.89683,0.83195 -1.89683,1.96339 v 9.01825 h -0.0666 c -0.86522,-2.12977 -3.32776,-3.62727 -5.89015,-3.62727 -4.22626,0 -8.21958,3.49416 -8.21958,8.48581 0,5.02493 3.99332,8.55236 8.28614,8.55236 z m 0.69883,-3.36104 c -2.86188,0 -5.19132,-2.29616 -5.19132,-5.15804 0,-2.86188 2.32944,-5.19132 5.19132,-5.19132 2.86187,0 5.19132,2.32944 5.19132,5.19132 0,2.86188 -2.32945,5.15804 -5.19132,5.15804 z" />
      <path
         inkscape:connector-curvature="0"
         id="path1484-6"
         style="font-style:normal;font-variant:normal;font-weight:600;font-stretch:normal;font-size:29.33333397px;line-height:1.25;font-family:'Point Soft DEMO';-inkscape-font-specification:'Point Soft DEMO Semi-Bold';letter-spacing:-1.5px;word-spacing:0px;fill:#000000;fill-opacity:1;stroke:none;stroke-width:1.13446641"
         d="m 377.21406,173.30853 c 2.66222,0 5.12477,-1.46421 6.05655,-3.66054 l 0.0332,2.36271 c 0.13311,0.66556 0.73211,1.23128 1.79699,1.23128 1.13145,0 1.73045,-0.8985 1.73045,-1.93011 v -13.07813 c 0,-1.09816 -0.73212,-1.89682 -1.73045,-1.89682 -0.96504,0 -1.66388,0.49916 -1.79699,1.19799 l -0.0332,2.36272 c -0.93178,-2.0965 -3.29449,-3.62727 -6.08982,-3.62727 -4.29282,0 -8.3527,3.49416 -8.3527,8.51909 0,4.99165 4.02661,8.51908 8.38597,8.51908 z m 0.599,-3.36104 c -2.86187,0 -5.19132,-2.29616 -5.19132,-5.15804 0,-2.86188 2.32945,-5.19132 5.19132,-5.19132 2.86189,0 5.19132,2.32944 5.19132,5.19132 0,2.86188 -2.32943,5.15804 -5.19132,5.15804 z" />
      <path
         inkscape:connector-curvature="0"
         id="path1486-2"
         style="font-style:normal;font-variant:normal;font-weight:600;font-stretch:normal;font-size:29.33333397px;line-height:1.25;font-family:'Point Soft DEMO';-inkscape-font-specification:'Point Soft DEMO Semi-Bold';letter-spacing:-1.5px;word-spacing:0px;fill:#000000;fill-opacity:1;stroke:none;stroke-width:1.13446641"
         d="m 392.53028,180.26357 c 0.66556,0 1.23127,-0.36606 1.56405,-0.93178 l 11.18131,-20.29938 c 0.1331,-0.26622 0.19966,-0.53244 0.19966,-0.86522 0,-0.99833 -0.79866,-1.797 -1.83028,-1.797 -0.7321,0 -1.3311,0.43261 -1.66388,1.06489 l -4.99165,9.18464 -5.02493,-9.18464 c -0.36605,-0.63228 -0.93178,-1.06489 -1.66388,-1.06489 -0.99833,0 -1.83028,0.79867 -1.83028,1.83028 0,0.2995 0.0666,0.56572 0.19966,0.83194 l 6.28949,11.34769 -4.0266,7.28781 c -0.13311,0.23294 -0.19967,0.53244 -0.19967,0.83194 0,0.96506 0.79867,1.76372 1.797,1.76372 z" />
      <path
         inkscape:connector-curvature="0"
         id="path1470-0-6"
         style="font-style:normal;font-variant:normal;font-weight:600;font-stretch:normal;font-size:29.33333397px;line-height:1.25;font-family:'Point Soft DEMO';-inkscape-font-specification:'Point Soft DEMO Semi-Bold';letter-spacing:-1.5px;word-spacing:0px;fill:#000000;fill-opacity:1;stroke:none;stroke-width:1.13446641"
         d="m 247.55678,152.75724 c 1.26455,0 2.32944,-1.03161 2.32944,-2.29616 0,-1.23128 -1.06489,-2.29616 -2.32944,-2.29616 -1.29783,0 -2.36272,1.06488 -2.36272,2.29616 0,1.26455 1.06489,2.29616 2.36272,2.29616 z"
         sodipodi:nodetypes="sssss" />
    </g>
  </g>
</svg>
