<?xml version="1.0" encoding="UTF-8"?>
<!-- Created with Inkscape (http://www.inkscape.org/) -->
<svg width="316.6" height="38.448" version="1.1" viewBox="0 0 316.6 38.448" xmlns="http://www.w3.org/2000/svg" xmlns:cc="http://creativecommons.org/ns#" xmlns:dc="http://purl.org/dc/elements/1.1/" xmlns:rdf="http://www.w3.org/1999/02/22-rdf-syntax-ns#">
 <metadata>
  <rdf:RDF>
   <cc:Work rdf:about="">
    <dc:format>image/svg+xml</dc:format>
    <dc:type rdf:resource="http://purl.org/dc/dcmitype/StillImage"/>
    <dc:title/>
   </cc:Work>
  </rdf:RDF>
 </metadata>
 <defs>
  <linearGradient id="SVGID_2_" x1="166.15" x2="345.85" y1="256" y2="256" gradientUnits="userSpaceOnUse">
   <stop stop-color="#587aa1" offset="0"/>
   <stop stop-color="#455f80" offset="1"/>
  </linearGradient>
 </defs>
 <g transform="matrix(.074305 0 0 .074305 135.55 26.76)">
  <circle cx="529.83" cy="-104.13" r="256" fill="#5c77ff" fill-opacity=".5451"/>
  <g transform="translate(273.83 -360.13)">
   <path d="m172.98 77c-53.006 0-95.976 80.141-95.976 179s42.97 179 95.976 179c35.444 0 66.402-35.839 83.024-89.143v-179.71c-16.622-53.304-47.579-89.143-83.024-89.143z" fill="#e5f7ff"/>
   <path d="m339.02 77c-35.445 0-66.402 35.839-83.024 89.143v179.72c16.622 53.303 47.579 89.142 83.024 89.142 53.006 0 95.976-80.141 95.976-179s-42.97-179-95.976-179z" fill="#bfebff"/>
   <path d="m314.58 114.56c-23.59 0-44.663 20.083-58.575 51.578v179.72c13.911 31.496 34.985 51.579 58.575 51.579 41.891 0 75.85-63.323 75.85-141.44s-33.96-141.44-75.85-141.44z" fill="#85d9ff"/>
   <path d="m197.42 114.56c-41.891 0-75.85 63.323-75.85 141.44s33.959 141.44 75.85 141.44c23.59 0 44.663-20.083 58.575-51.579v-179.71c-13.912-31.496-34.985-51.579-58.575-51.579z" fill="#bfebff"/>
   <circle cx="256" cy="256" r="89.85" fill="url(#SVGID_2_)"/>
  </g>
 </g>
 <text x="-0.15909335" y="31.885378" fill="#000000" font-family="sans-serif" font-size="40.835px" letter-spacing="0px" stroke-width="1.0209" word-spacing="0px" style="line-height:1.25" xml:space="preserve"><tspan x="-0.15909335" y="31.885378" dx="0" font-family="Carlito" font-size="40.728px" letter-spacing="-1.5px" stroke-width="1.0209">Academia      Faraday </tspan></text>
</svg>
