<?xml version="1.0" encoding="UTF-8"?>
<!-- Created with Inkscape (http://www.inkscape.org/) -->
<svg width="316.6" height="38.448" version="1.1" viewBox="0 0 316.6 38.448" xmlns="http://www.w3.org/2000/svg" xmlns:cc="http://creativecommons.org/ns#" xmlns:dc="http://purl.org/dc/elements/1.1/" xmlns:rdf="http://www.w3.org/1999/02/22-rdf-syntax-ns#">
 <metadata>
  <rdf:RDF>
   <cc:Work rdf:about="">
    <dc:format>image/svg+xml</dc:format>
    <dc:type rdf:resource="http://purl.org/dc/dcmitype/StillImage"/>
    <dc:title/>
   </cc:Work>
  </rdf:RDF>
 </metadata>
 <defs>
  <linearGradient id="SVGID_2_" x1="166.15" x2="345.85" y1="256" y2="256" gradientUnits="userSpaceOnUse">
   <stop stop-color="#587aa1" offset="0"/>
   <stop stop-color="#455f80" offset="1"/>
  </linearGradient>
 </defs>
 <g transform="matrix(.074305 0 0 .074305 135.55 26.76)">
  <circle cx="529.83" cy="-104.13" r="256" fill="#5c77ff" fill-opacity=".5451"/>
  <g transform="translate(273.83,-360.13)">
   <path d="m172.98 77c-53.006 0-95.976 80.141-95.976 179s42.97 179 95.976 179c35.444 0 66.402-35.839 83.024-89.143v-179.71c-16.622-53.304-47.579-89.143-83.024-89.143z" fill="#e5f7ff"/>
   <path d="m339.02 77c-35.445 0-66.402 35.839-83.024 89.143v179.72c16.622 53.303 47.579 89.142 83.024 89.142 53.006 0 95.976-80.141 95.976-179s-42.97-179-95.976-179z" fill="#bfebff"/>
   <path d="m314.58 114.56c-23.59 0-44.663 20.083-58.575 51.578v179.72c13.911 31.496 34.985 51.579 58.575 51.579 41.891 0 75.85-63.323 75.85-141.44s-33.96-141.44-75.85-141.44z" fill="#85d9ff"/>
   <path d="m197.42 114.56c-41.891 0-75.85 63.323-75.85 141.44s33.959 141.44 75.85 141.44c23.59 0 44.663-20.083 58.575-51.579v-179.71c-13.912-31.496-34.985-51.579-58.575-51.579z" fill="#bfebff"/>
   <circle cx="256" cy="256" r="89.85" fill="url(#SVGID_2_)"/>
  </g>
 </g>
 <g stroke-width="1.0209" aria-label="Academia      Faraday ">
  <path d="m23.267 31.885h-2.804c-0.31819 0-0.57672-0.07955-0.77558-0.23864-0.18561-0.15909-0.33144-0.35796-0.43751-0.5966l-2.2273-6.2842h-10.779l-2.2074 6.2643c-0.079547 0.22538-0.23201 0.42425-0.45739 0.5966-0.21212 0.17235-0.47065 0.25853-0.77558 0.25853h-2.804l9.8042-26.131h3.679zm-16.108-9.7047 3.6351 0.83905 1.615-11.359c-0.13258-0.31819-0.26516-0.68941-0.39773-1.1137s-0.25853-0.88164-0.37785-1.3722c-0.13258 0.5038-0.26516 0.96782-0.39773 1.3921-0.13258 0.42425-0.25853 0.79547-0.37785 1.1137z"/>
  <path d="m37.18 15.936q-0.15909 0.21875-0.31819 0.33807-0.13921 0.09943-0.41762 0.09943-0.2983 0-0.61649-0.23864-0.31819-0.23864-0.79547-0.51705-0.47728-0.2983-1.1733-0.53694-0.67615-0.23864-1.6705-0.23864-1.3125 0-2.3267 0.51705-0.99434 0.49717-1.6705 1.4517-0.65626 0.93468-1.0142 2.287-0.33807 1.3523-0.33807 3.0427 0 1.75 0.35796 3.1222 0.37785 1.3523 1.054 2.287 0.67615 0.93468 1.6307 1.4318 0.95456 0.47728 2.1478 0.47728 1.1534 0 1.8892-0.2983 0.73581-0.2983 1.233-0.65626t0.81536-0.65626q0.33808-0.2983 0.69604-0.2983 0.39774 0 0.63638 0.33807l1.0142 1.2728q-0.63638 0.77558-1.412 1.3523-0.77558 0.55683-1.6705 0.93468-0.8949 0.35796-1.8694 0.53694-0.95456 0.17898-1.9489 0.17898-1.7103 0-3.2018-0.67615-1.4915-0.67615-2.6052-1.9489-1.0938-1.2926-1.7301-3.1421-0.61649-1.8694-0.61649-4.2558 0-2.1677 0.57672-3.9972 0.57672-1.8495 1.6705-3.1819 1.1137-1.3324 2.7245-2.0682 1.6307-0.7557 3.7387-0.7557 1.9887 0 3.4802 0.67615 1.4915 0.65626 2.6449 1.8495z"/>
  <path d="m52.782 31.885q-0.51706 0-0.79547-0.15909t-0.37785-0.65626l-0.43751-1.8097q-0.7557 0.69604-1.4915 1.2529-0.71592 0.53694-1.5114 0.91479-0.79547 0.37785-1.7103 0.55683-0.91479 0.19887-2.0086 0.19887-1.1335 0-2.1279-0.2983-0.97445-0.31819-1.7301-0.95456-0.73581-0.65626-1.1733-1.6108-0.41762-0.97445-0.41762-2.287 0-1.1534 0.61649-2.2074 0.63638-1.0739 2.0483-1.9091 1.412-0.83524 3.679-1.3523 2.2671-0.53694 5.5683-0.61649v-1.4915q0-2.2671-0.97445-3.4006-0.95456-1.1534-2.804-1.1534-1.233 0-2.0881 0.31819-0.83524 0.31819-1.4517 0.69604-0.61649 0.37785-1.0739 0.69604-0.43751 0.31819-0.8949 0.31819-0.35796 0-0.61649-0.17898-0.25853-0.17898-0.41762-0.4574l-0.63638-1.1137q1.6108-1.5512 3.4603-2.3069 1.8694-0.77558 4.1364-0.77558 1.6307 0 2.9035 0.53694 1.2728 0.51706 2.1279 1.4915t1.2926 2.3267q0.45739 1.3523 0.45739 3.0029v12.429zm-7.2785-2.1478q0.87502 0 1.6108-0.17898 0.73581-0.17898 1.3921-0.49717 0.65626-0.33807 1.233-0.81536 0.5966-0.49717 1.1733-1.0938v-4.0171q-2.3267 0.09943-3.9575 0.39774-1.6307 0.27841-2.6648 0.7557-1.0142 0.47728-1.4716 1.1335-0.4574 0.63638-0.4574 1.4318 0 0.7557 0.23864 1.3125 0.25853 0.53694 0.67615 0.8949 0.41762 0.33807 0.99434 0.51705 0.57672 0.15909 1.233 0.15909z"/>
  <path d="m71.766 31.885q-0.37785 0-0.61649-0.15909-0.23864-0.17898-0.27841-0.55683l-0.35796-2.3267q-1.233 1.4915-2.804 2.4063-1.571 0.91479-3.6393 0.91479-1.6506 0-3.0029-0.63638-1.3324-0.65626-2.287-1.9091-0.95456-1.2529-1.4716-3.1023-0.51705-1.8694-0.51705-4.2955 0-2.1478 0.55683-3.9972 0.57672-1.8694 1.6506-3.2216 1.0739-1.3523 2.6052-2.1279 1.5512-0.77558 3.5001-0.77558 1.7699 0 3.0228 0.5966 1.2529 0.57672 2.2273 1.6705v-10.759h3.5001v28.279zm-6.5626-2.5256q1.6506 0 2.8637-0.7557 1.233-0.77558 2.287-2.1478v-9.4064q-0.93468-1.2529-2.0284-1.75-1.0938-0.51706-2.4262-0.51706-2.6449 0-4.0768 1.929-1.4318 1.929-1.4318 5.5086 0 1.8892 0.31819 3.2415 0.33808 1.3523 0.95456 2.2273 0.61649 0.85513 1.5114 1.2728 0.8949 0.39774 2.0284 0.39774z"/>
  <path d="m85.857 12.138q1.75 0 3.2415 0.57672t2.5853 1.6904q1.0938 1.1137 1.7103 2.7245 0.61649 1.6108 0.61649 3.6989 0 0.81536-0.17898 1.0938-0.17898 0.25853-0.65626 0.25853h-13.006q0.03977 1.8296 0.49717 3.2018 0.45739 1.3523 1.2529 2.2472 0.81536 0.8949 1.929 1.3523 1.1137 0.43751 2.4858 0.43751 1.2728 0 2.2074-0.27841 0.93468-0.2983 1.5909-0.65626 0.67615-0.35796 1.1335-0.63638 0.4574-0.2983 0.79547-0.2983 0.21875 0 0.37785 0.09943 0.15909 0.07955 0.27841 0.23864l0.99434 1.2728q-0.65626 0.77558-1.5512 1.3523-0.87502 0.55683-1.8892 0.93468-1.0142 0.35796-2.108 0.53694-1.0739 0.17898-2.1279 0.17898-2.0284 0-3.7387-0.67615-1.7103-0.67615-2.9631-1.9887-1.233-1.3324-1.929-3.2614-0.69604-1.9489-0.69604-4.4745 0-2.0284 0.61649-3.7785 0.63638-1.7699 1.8097-3.0626 1.1932-1.3125 2.8836-2.0483 1.7103-0.73581 3.8381-0.73581zm0.05966 2.5455q-2.4461 0-3.8779 1.4318-1.412 1.4318-1.7699 3.9177h10.6q0-1.1733-0.33807-2.1478-0.33808-0.99434-0.97445-1.6904-0.63638-0.71592-1.571-1.1137-0.91479-0.39773-2.0682-0.39773z"/>
  <path d="m96.925 31.885v-19.449h2.0682q0.39773 0 0.61649 0.17898 0.23864 0.15909 0.27841 0.53694l0.2983 1.9887q0.55683-0.65626 1.1534-1.1932 0.61649-0.55683 1.3125-0.95456 0.69604-0.41762 1.4915-0.63638 0.79547-0.21875 1.6904-0.21875 2.0086 0 3.2614 1.0938 1.2728 1.0938 1.8097 2.9432 0.41762-1.0739 1.0938-1.8296 0.69603-0.7557 1.5313-1.2529 0.83524-0.49717 1.7898-0.71592 0.95456-0.23864 1.9489-0.23864 3.1819 0 4.912 1.9091 1.75 1.9091 1.75 5.449v12.389h-3.5001v-12.389q0-2.2671-1.0341-3.4205-1.0341-1.1733-2.9631-1.1733-0.87502 0-1.6506 0.2983-0.77558 0.27841-1.3722 0.87502-0.57672 0.57672-0.93468 1.4318-0.33807 0.85513-0.33807 1.9887v12.389h-3.5001v-12.389q0-2.3267-0.97445-3.4603-0.95456-1.1335-2.8239-1.1335-1.2728 0-2.3864 0.67615-1.1136 0.65626-2.0284 1.8296v14.478z"/>
  <path d="m127.22 31.885zm4.2359-19.449v19.449h-3.5001v-19.449zm0.67614-6.0853q0 0.49717-0.19886 0.95456-0.19887 0.43751-0.55683 0.77558-0.33807 0.31819-0.79547 0.51705-0.43751 0.19887-0.93467 0.19887-0.49717 0-0.93468-0.19887t-0.77558-0.51705q-0.31819-0.33807-0.51706-0.77558-0.19886-0.45739-0.19886-0.95456 0-0.51705 0.19886-0.95456 0.19887-0.45739 0.51706-0.79547 0.33807-0.33807 0.77558-0.53694t0.93468-0.19887q0.49716 0 0.93467 0.19887 0.4574 0.19887 0.79547 0.53694 0.35796 0.33807 0.55683 0.79547 0.19886 0.43751 0.19886 0.95456z"/>
  <path d="m148.37 31.885q-0.51705 0-0.79546-0.15909-0.27842-0.15909-0.37785-0.65626l-0.43751-1.8097q-0.75569 0.69604-1.4915 1.2529-0.71593 0.53694-1.5114 0.91479-0.79547 0.37785-1.7103 0.55683-0.91479 0.19887-2.0086 0.19887-1.1335 0-2.1279-0.2983-0.97445-0.31819-1.7301-0.95456-0.73581-0.65626-1.1733-1.6108-0.41762-0.97445-0.41762-2.287 0-1.1534 0.61649-2.2074 0.63637-1.0739 2.0483-1.9091 1.412-0.83524 3.679-1.3523 2.2671-0.53694 5.5683-0.61649v-1.4915q0-2.2671-0.97445-3.4006-0.95456-1.1534-2.804-1.1534-1.233 0-2.0881 0.31819-0.83524 0.31819-1.4517 0.69604-0.61649 0.37785-1.0739 0.69604-0.43751 0.31819-0.8949 0.31819-0.35797 0-0.61649-0.17898-0.25853-0.17898-0.41762-0.4574l-0.63638-1.1137q1.6108-1.5512 3.4603-2.3069 1.8694-0.77558 4.1364-0.77558 1.6307 0 2.9035 0.53694 1.2728 0.51706 2.1279 1.4915t1.2926 2.3267q0.4574 1.3523 0.4574 3.0029v12.429zm-7.2785-2.1478q0.87501 0 1.6108-0.17898 0.73581-0.17898 1.3921-0.49717 0.65626-0.33807 1.233-0.81536 0.5966-0.49717 1.1733-1.0938v-4.0171q-2.3267 0.09943-3.9574 0.39774-1.6307 0.27841-2.6648 0.7557-1.0142 0.47728-1.4716 1.1335-0.4574 0.63638-0.4574 1.4318 0 0.7557 0.23864 1.3125 0.25853 0.53694 0.67615 0.8949 0.41762 0.33807 0.99434 0.51705 0.57671 0.15909 1.233 0.15909z"/>
  <path d="m214.82 5.7542v2.9432h-11.156v9.0485h9.486v2.9432h-9.486v11.196h-3.6393v-26.131z"/>
  <path d="m228.81 31.885q-0.51706 0-0.79547-0.15909-0.27842-0.15909-0.37785-0.65626l-0.43751-1.8097q-0.75569 0.69604-1.4915 1.2529-0.71592 0.53694-1.5114 0.91479-0.79547 0.37785-1.7103 0.55683-0.91479 0.19887-2.0086 0.19887-1.1335 0-2.1279-0.2983-0.97445-0.31819-1.7301-0.95456-0.73581-0.65626-1.1733-1.6108-0.41762-0.97445-0.41762-2.287 0-1.1534 0.61649-2.2074 0.63637-1.0739 2.0483-1.9091 1.412-0.83524 3.679-1.3523 2.2671-0.53694 5.5683-0.61649v-1.4915q0-2.2671-0.97444-3.4006-0.95457-1.1534-2.804-1.1534-1.233 0-2.0881 0.31819-0.83524 0.31819-1.4517 0.69604-0.61649 0.37785-1.0739 0.69604-0.43751 0.31819-0.8949 0.31819-0.35796 0-0.61649-0.17898-0.25853-0.17898-0.41762-0.4574l-0.63638-1.1137q1.6108-1.5512 3.4603-2.3069 1.8694-0.77558 4.1364-0.77558 1.6307 0 2.9035 0.53694 1.2728 0.51706 2.1279 1.4915t1.2926 2.3267q0.45739 1.3523 0.45739 3.0029v12.429zm-7.2785-2.1478q0.87501 0 1.6108-0.17898 0.73581-0.17898 1.3921-0.49717 0.65626-0.33807 1.233-0.81536 0.5966-0.49717 1.1733-1.0938v-4.0171q-2.3267 0.09943-3.9574 0.39774-1.6307 0.27841-2.6648 0.7557-1.0142 0.47728-1.4716 1.1335-0.45739 0.63638-0.45739 1.4318 0 0.7557 0.23864 1.3125 0.25852 0.53694 0.67614 0.8949 0.41763 0.33807 0.99434 0.51705 0.57672 0.15909 1.233 0.15909z"/>
  <path d="m233.95 31.885v-19.449h2.0086q0.55683 0 0.77559 0.21875 0.23864 0.21875 0.27841 0.73581l0.23864 2.8637q0.8949-1.929 2.2074-3.0427 1.3125-1.1137 3.162-1.1137 0.61649 0 1.1534 0.13921 0.53695 0.11932 0.97445 0.41762l-0.27841 2.5853q-0.0597 0.49717-0.55683 0.49717-0.27841 0-0.79547-0.09943-0.49717-0.11932-1.1136-0.11932-0.89491 0-1.5909 0.27841-0.67615 0.25853-1.233 0.79547-0.53694 0.51706-0.95456 1.2728t-0.77558 1.7301v12.29z"/>
  <path d="m258.74 31.885q-0.51706 0-0.79547-0.15909-0.27842-0.15909-0.37785-0.65626l-0.43751-1.8097q-0.75569 0.69604-1.4915 1.2529-0.71592 0.53694-1.5114 0.91479-0.79547 0.37785-1.7103 0.55683-0.91479 0.19887-2.0086 0.19887-1.1335 0-2.1279-0.2983-0.97445-0.31819-1.7301-0.95456-0.73581-0.65626-1.1733-1.6108-0.41762-0.97445-0.41762-2.287 0-1.1534 0.61649-2.2074 0.63637-1.0739 2.0483-1.9091 1.412-0.83524 3.679-1.3523 2.2671-0.53694 5.5683-0.61649v-1.4915q0-2.2671-0.97445-3.4006-0.95456-1.1534-2.804-1.1534-1.233 0-2.0881 0.31819-0.83524 0.31819-1.4517 0.69604-0.61649 0.37785-1.0739 0.69604-0.43751 0.31819-0.8949 0.31819-0.35796 0-0.61649-0.17898-0.25853-0.17898-0.41762-0.4574l-0.63638-1.1137q1.6108-1.5512 3.4603-2.3069 1.8694-0.77558 4.1364-0.77558 1.6307 0 2.9035 0.53694 1.2728 0.51706 2.1279 1.4915t1.2926 2.3267q0.4574 1.3523 0.4574 3.0029v12.429zm-7.2785-2.1478q0.87501 0 1.6108-0.17898 0.73581-0.17898 1.3921-0.49717 0.65626-0.33807 1.233-0.81536 0.5966-0.49717 1.1733-1.0938v-4.0171q-2.3267 0.09943-3.9574 0.39774-1.6307 0.27841-2.6648 0.7557-1.0142 0.47728-1.4716 1.1335-0.4574 0.63638-0.4574 1.4318 0 0.7557 0.23865 1.3125 0.25852 0.53694 0.67614 0.8949 0.41762 0.33807 0.99434 0.51705 0.57671 0.15909 1.233 0.15909z"/>
  <path d="m277.72 31.885q-0.37784 0-0.61648-0.15909-0.23864-0.17898-0.27842-0.55683l-0.35796-2.3267q-1.233 1.4915-2.804 2.4063t-3.6393 0.91479q-1.6506 0-3.0029-0.63638-1.3324-0.65626-2.287-1.9091-0.95457-1.2529-1.4716-3.1023-0.51705-1.8694-0.51705-4.2955 0-2.1478 0.55682-3.9972 0.57672-1.8694 1.6506-3.2216 1.0739-1.3523 2.6052-2.1279 1.5512-0.77558 3.5001-0.77558 1.7699 0 3.0228 0.5966 1.2529 0.57672 2.2273 1.6705v-10.759h3.5001v28.279zm-6.5626-2.5256q1.6506 0 2.8637-0.7557 1.233-0.77558 2.287-2.1478v-9.4064q-0.93468-1.2529-2.0284-1.75-1.0938-0.51706-2.4262-0.51706-2.6449 0-4.0768 1.929-1.4318 1.929-1.4318 5.5086 0 1.8892 0.31819 3.2415 0.33807 1.3523 0.95456 2.2273 0.61649 0.85513 1.5114 1.2728 0.8949 0.39774 2.0284 0.39774z"/>
  <path d="m296.63 31.885q-0.51705 0-0.79547-0.15909-0.27841-0.15909-0.37785-0.65626l-0.4375-1.8097q-0.7557 0.69604-1.4915 1.2529-0.71592 0.53694-1.5114 0.91479-0.79547 0.37785-1.7103 0.55683-0.91479 0.19887-2.0086 0.19887-1.1336 0-2.1279-0.2983-0.97445-0.31819-1.7302-0.95456-0.73581-0.65626-1.1733-1.6108-0.41763-0.97445-0.41763-2.287 0-1.1534 0.61649-2.2074 0.63638-1.0739 2.0483-1.9091 1.412-0.83524 3.679-1.3523 2.2671-0.53694 5.5683-0.61649v-1.4915q0-2.2671-0.97445-3.4006-0.95456-1.1534-2.804-1.1534-1.233 0-2.0881 0.31819-0.83525 0.31819-1.4517 0.69604-0.61649 0.37785-1.0739 0.69604-0.4375 0.31819-0.8949 0.31819-0.35796 0-0.61649-0.17898-0.25852-0.17898-0.41762-0.4574l-0.63637-1.1137q1.6108-1.5512 3.4603-2.3069 1.8694-0.77558 4.1364-0.77558 1.6307 0 2.9035 0.53694 1.2728 0.51706 2.1279 1.4915t1.2926 2.3267q0.45739 1.3523 0.45739 3.0029v12.429zm-7.2785-2.1478q0.87502 0 1.6108-0.17898 0.7358-0.17898 1.3921-0.49717 0.65626-0.33807 1.233-0.81536 0.5966-0.49717 1.1733-1.0938v-4.0171q-2.3268 0.09943-3.9575 0.39774-1.6307 0.27841-2.6648 0.7557-1.0142 0.47728-1.4716 1.1335-0.45739 0.63638-0.45739 1.4318 0 0.7557 0.23864 1.3125 0.25853 0.53694 0.67615 0.8949 0.41762 0.33807 0.99433 0.51705 0.57672 0.15909 1.233 0.15909z"/>
  <path d="m306.58 37.613q-0.15909 0.39773-0.43751 0.61649-0.25853 0.21875-0.77558 0.21875h-2.6052l3.341-7.716-7.4376-18.296h3.0228q0.45739 0 0.69603 0.21875 0.23864 0.21875 0.35796 0.49717l4.5342 12.171q0.1591 0.41762 0.2983 0.83524 0.1591 0.41762 0.25853 0.83524 0.11932-0.43751 0.25853-0.85513 0.15909-0.43751 0.31819-0.85513l4.395-12.131q0.11932-0.2983 0.39774-0.49717 0.27841-0.21875 0.61648-0.21875h2.7842z"/>
 </g>
</svg>
