<?xml version="1.0" encoding="UTF-8" standalone="no"?>
<!-- Created with Inkscape (http://www.inkscape.org/) -->

<svg
   xmlns:dc="http://purl.org/dc/elements/1.1/"
   xmlns:cc="http://creativecommons.org/ns#"
   xmlns:rdf="http://www.w3.org/1999/02/22-rdf-syntax-ns#"
   xmlns:svg="http://www.w3.org/2000/svg"
   xmlns="http://www.w3.org/2000/svg"
   xmlns:sodipodi="http://sodipodi.sourceforge.net/DTD/sodipodi-0.dtd"
   xmlns:inkscape="http://www.inkscape.org/namespaces/inkscape"
   width="241.6127"
   height="29.340584"
   version="1.1"
   viewBox="0 0 241.6127 29.340583"
   id="svg31"
   sodipodi:docname="aflogo.svg"
   inkscape:version="0.92.3 (2405546, 2018-03-11)">
  <sodipodi:namedview
     pagecolor="#ffffff"
     bordercolor="#666666"
     borderopacity="1"
     objecttolerance="10"
     gridtolerance="10"
     guidetolerance="10"
     inkscape:pageopacity="0"
     inkscape:pageshadow="2"
     inkscape:window-width="960"
     inkscape:window-height="1017"
     id="namedview33"
     showgrid="false"
     inkscape:zoom="3.7517566"
     inkscape:cx="68.015147"
     inkscape:cy="19.463884"
     inkscape:window-x="960"
     inkscape:window-y="30"
     inkscape:window-maximized="0"
     inkscape:current-layer="text29" />
  <metadata
     id="metadata2">
    <rdf:RDF>
      <cc:Work
         rdf:about="">
        <dc:format>image/svg+xml</dc:format>
        <dc:type
           rdf:resource="http://purl.org/dc/dcmitype/StillImage" />
        <dc:title />
      </cc:Work>
    </rdf:RDF>
  </metadata>
  <defs
     id="defs9">
    <linearGradient
       id="SVGID_2_"
       x1="166.14999"
       x2="345.85001"
       y1="256"
       y2="256"
       gradientUnits="userSpaceOnUse">
      <stop
         stop-color="#587aa1"
         offset="0"
         id="stop4" />
      <stop
         stop-color="#455f80"
         offset="1"
         id="stop6" />
    </linearGradient>
  </defs>
  <g
     transform="matrix(0.05670472,0,0,0.05670472,103.44289,20.421071)"
     id="g25">
    <circle
       cx="529.83002"
       cy="-104.13"
       r="256"
       id="circle11"
       style="fill:#5c77ff;fill-opacity:0.54509995" />
    <g
       transform="translate(273.83,-360.13)"
       id="g23">
      <path
         d="m 172.98,77 c -53.006,0 -95.976,80.141 -95.976,179 0,98.859 42.97,179 95.976,179 35.444,0 66.402,-35.839 83.024,-89.143 V 166.147 C 239.382,112.843 208.425,77.004 172.98,77.004 Z"
         id="path13"
         inkscape:connector-curvature="0"
         style="fill:#e5f7ff" />
      <path
         d="m 339.02,77 c -35.445,0 -66.402,35.839 -83.024,89.143 v 179.72 c 16.622,53.303 47.579,89.142 83.024,89.142 53.006,0 95.976,-80.141 95.976,-179 0,-98.859 -42.97,-179 -95.976,-179 z"
         id="path15"
         inkscape:connector-curvature="0"
         style="fill:#bfebff" />
      <path
         d="m 314.58,114.56 c -23.59,0 -44.663,20.083 -58.575,51.578 v 179.72 c 13.911,31.496 34.985,51.579 58.575,51.579 41.891,0 75.85,-63.323 75.85,-141.44 0,-78.117 -33.96,-141.44 -75.85,-141.44 z"
         id="path17"
         inkscape:connector-curvature="0"
         style="fill:#85d9ff" />
      <path
         d="m 197.42,114.56 c -41.891,0 -75.85,63.323 -75.85,141.44 0,78.117 33.959,141.44 75.85,141.44 23.59,0 44.663,-20.083 58.575,-51.579 V 166.151 C 242.083,134.655 221.01,114.572 197.42,114.572 Z"
         id="path19"
         inkscape:connector-curvature="0"
         style="fill:#bfebff" />
      <circle
         cx="256"
         cy="256"
         r="89.849998"
         id="circle21"
         style="fill:url(#SVGID_2_)" />
    </g>
  </g>
  <g
     aria-label="Academia      Faraday "
     style="font-size:40.83499908px;line-height:1.25;font-family:sans-serif;letter-spacing:0px;word-spacing:0px;fill:#000000;stroke-width:1.02090001"
     id="text29"
     transform="matrix(0.76313454,0,0,0.76313454,-3.0703295e-7,-4.0974214e-4)">
    <path
       d="m 23.267462,31.885378 h -2.804028 q -0.477281,0 -0.775582,-0.238641 -0.278414,-0.23864 -0.437508,-0.596601 L 17.023032,24.765932 H 6.2444302 l -2.2074258,6.264317 q -0.1193203,0.338074 -0.4573946,0.596602 -0.3181875,0.258527 -0.775582,0.258527 H 4.0233135e-7 L 9.8041529,5.754229 H 13.483196 Z M 7.1592193,22.180659 H 16.108243 L 12.409313,11.660585 Q 12.210446,11.183303 12.011579,10.546928 11.812712,9.9105533 11.633731,9.1747447 11.434864,9.93044 11.235997,10.566815 11.037129,11.20319 10.858149,11.680471 Z"
       style="font-size:40.72800064px;font-family:Carlito;letter-spacing:-1.5px;stroke-width:1.02090001"
       id="path35"
       inkscape:connector-curvature="0" />
    <path
       d="m 37.179669,15.936229 q -0.159094,0.218754 -0.318187,0.338074 -0.139207,0.09943 -0.417621,0.09943 -0.298301,0 -0.616489,-0.238641 -0.318187,-0.23864 -0.795469,-0.517054 -0.477281,-0.298301 -1.173316,-0.536942 -0.676148,-0.23864 -1.670484,-0.23864 -1.312524,0 -2.326746,0.517054 -0.994336,0.497168 -1.670485,1.451731 -0.656262,0.934676 -1.014223,2.286973 -0.338074,1.352296 -0.338074,3.042668 0,1.750031 0.357961,3.122214 0.377848,1.352297 1.053996,2.286973 0.676149,0.934676 1.630711,1.431844 0.954563,0.477281 2.147766,0.477281 1.15343,0 1.889238,-0.298301 0.735809,-0.2983 1.232977,-0.656261 0.497168,-0.357961 0.815355,-0.656262 0.338075,-0.298301 0.696035,-0.298301 0.397735,0 0.636375,0.338074 l 1.014223,1.27275 q -0.636375,0.775582 -1.411957,1.352297 -0.775582,0.556828 -1.670484,0.934676 -0.894903,0.357961 -1.869352,0.536941 -0.954562,0.178981 -1.948898,0.178981 -1.710258,0 -3.201762,-0.676148 -1.491504,-0.676149 -2.60516,-1.948899 -1.09377,-1.292637 -1.730145,-3.142102 -0.616488,-1.869351 -0.616488,-4.255757 0,-2.167653 0.576715,-3.997231 0.576715,-1.849465 1.670484,-3.181875 1.113656,-1.33241 2.724481,-2.068219 1.630711,-0.755695 3.738703,-0.755695 1.988672,0 3.480176,0.676148 1.491504,0.656262 2.644933,1.849465 z"
       style="font-size:40.72800064px;font-family:Carlito;letter-spacing:-1.5px;stroke-width:1.02090001"
       id="path37"
       inkscape:connector-curvature="0" />
    <path
       d="m 52.782248,31.885378 q -0.517055,0 -0.795469,-0.159094 -0.278414,-0.159094 -0.377847,-0.656262 l -0.437508,-1.809691 q -0.755695,0.696035 -1.491504,1.252863 -0.715922,0.536942 -1.511391,0.914789 -0.795468,0.377848 -1.710257,0.556828 -0.91479,0.198868 -2.008559,0.198868 -1.133543,0 -2.127879,-0.298301 -0.974449,-0.318188 -1.730145,-0.954563 -0.735808,-0.656261 -1.173316,-1.610824 -0.417621,-0.974449 -0.417621,-2.286973 0,-1.153429 0.616488,-2.207425 0.636375,-1.073883 2.048332,-1.909125 1.411957,-0.835243 3.679043,-1.352297 2.267086,-0.536942 5.568282,-0.616489 v -1.491504 q 0,-2.267086 -0.97445,-3.400628 -0.954562,-1.15343 -2.804027,-1.15343 -1.232977,0 -2.088106,0.318187 -0.835242,0.318188 -1.45173,0.696035 -0.616488,0.377848 -1.073883,0.696036 -0.437508,0.318187 -0.894902,0.318187 -0.357961,0 -0.616489,-0.17898 -0.258527,-0.178981 -0.417621,-0.457395 l -0.636375,-1.113656 q 1.610825,-1.551164 3.460289,-2.30686 1.869352,-0.775582 4.136438,-0.775582 1.630711,0 2.903461,0.536942 1.27275,0.517055 2.127879,1.491504 0.855129,0.974449 1.292637,2.326746 0.457394,1.352297 0.457394,3.002894 v 12.4292 z m -7.278539,-2.147766 q 0.875016,0 1.610824,-0.17898 0.735809,-0.178981 1.392071,-0.497168 0.656261,-0.338074 1.232976,-0.815356 0.596602,-0.497168 1.173317,-1.093769 v -4.017118 q -2.326747,0.09943 -3.957458,0.397735 -1.63071,0.278414 -2.66482,0.755695 -1.014223,0.477281 -1.471617,1.133543 -0.457395,0.636375 -0.457395,1.431844 0,0.755695 0.238641,1.312523 0.258527,0.536942 0.676148,0.894903 0.417622,0.338074 0.994336,0.517054 0.576715,0.159094 1.232977,0.159094 z"
       style="font-size:40.72800064px;font-family:Carlito;letter-spacing:-1.5px;stroke-width:1.02090001"
       id="path39"
       inkscape:connector-curvature="0" />
    <path
       d="m 71.765571,31.885378 q -0.377848,0 -0.616488,-0.159094 -0.238641,-0.17898 -0.278414,-0.556828 L 70.512708,28.84271 q -1.232977,1.491504 -2.804028,2.406293 -1.57105,0.914789 -3.639269,0.914789 -1.650598,0 -3.002895,-0.636375 -1.33241,-0.656262 -2.286972,-1.909125 -0.954563,-1.252863 -1.471618,-3.102328 -0.517054,-1.869352 -0.517054,-4.295532 0,-2.147765 0.556828,-3.99723 0.576715,-1.869352 1.650597,-3.221649 1.073883,-1.352296 2.605161,-2.127879 1.551164,-0.775582 3.500062,-0.775582 1.769918,0 3.022782,0.596602 1.252863,0.576715 2.227312,1.670484 V 3.6064634 h 3.500063 V 31.885378 Z m -6.562617,-2.525613 q 1.650597,0 2.863687,-0.755696 1.232977,-0.775582 2.286973,-2.147765 v -9.406419 q -0.934676,-1.252863 -2.028445,-1.750031 -1.09377,-0.517055 -2.42618,-0.517055 -2.644934,0 -4.076777,1.929012 -1.431844,1.929012 -1.431844,5.508621 0,1.889239 0.318187,3.241536 0.338075,1.352297 0.954563,2.227312 0.616488,0.855129 1.51139,1.27275 0.894903,0.397735 2.028446,0.397735 z"
       style="font-size:40.72800064px;font-family:Carlito;letter-spacing:-1.5px;stroke-width:1.02090001"
       id="path41"
       inkscape:connector-curvature="0" />
    <path
       d="m 85.856759,12.137866 q 1.750031,0 3.241535,0.576715 1.491504,0.576715 2.585273,1.690371 1.09377,1.113656 1.710258,2.72448 0.616488,1.610825 0.616488,3.69893 0,0.815356 -0.17898,1.09377 -0.178981,0.258527 -0.656262,0.258527 H 80.169157 q 0.03977,1.829578 0.497168,3.201762 0.457394,1.352297 1.252863,2.247199 0.815356,0.894902 1.929012,1.352297 1.113656,0.437508 2.48584,0.437508 1.27275,0 2.207426,-0.278414 0.934675,-0.298301 1.590937,-0.656262 0.676149,-0.357961 1.133543,-0.636375 0.457395,-0.298301 0.795469,-0.298301 0.218754,0 0.377848,0.09943 0.159093,0.07955 0.278414,0.23864 l 0.994336,1.27275 q -0.656262,0.775582 -1.551164,1.352297 -0.875016,0.556828 -1.889239,0.934676 -1.014222,0.357961 -2.107992,0.536941 -1.073883,0.178981 -2.127879,0.178981 -2.028445,0 -3.738703,-0.676148 -1.710258,-0.676149 -2.963121,-1.988672 -1.232977,-1.332411 -1.929012,-3.261422 -0.696035,-1.948899 -0.696035,-4.474512 0,-2.028445 0.616488,-3.778477 0.636375,-1.769918 1.809692,-3.062554 1.193203,-1.312524 2.883574,-2.048333 1.710258,-0.735808 3.838137,-0.735808 z m 0.05966,2.5455 q -2.446067,0 -3.87791,1.431844 -1.411958,1.431843 -1.769918,3.917683 h 10.599621 q 0,-1.173316 -0.338074,-2.147765 -0.338075,-0.994336 -0.97445,-1.690371 -0.636375,-0.715922 -1.57105,-1.113657 -0.91479,-0.397734 -2.068219,-0.397734 z"
       style="font-size:40.72800064px;font-family:Carlito;letter-spacing:-1.5px;stroke-width:1.02090001"
       id="path43"
       inkscape:connector-curvature="0" />
    <path
       d="M 96.925166,31.885378 V 12.436167 h 2.068219 q 0.397734,0 0.616488,0.17898 0.238641,0.159094 0.278414,0.536942 l 0.298303,1.988671 q 0.55683,-0.656261 1.15343,-1.193203 0.61649,-0.556828 1.31252,-0.954562 0.69604,-0.417621 1.4915,-0.636375 0.79547,-0.218754 1.69038,-0.218754 2.00855,0 3.26142,1.093769 1.27275,1.09377 1.80969,2.943235 0.41762,-1.073883 1.09377,-1.829578 0.69603,-0.755696 1.53128,-1.252864 0.83524,-0.497168 1.7898,-0.715922 0.95456,-0.23864 1.9489,-0.23864 3.18187,0 4.91202,1.909125 1.75003,1.909125 1.75003,5.448961 v 12.389426 h -3.50006 V 19.495952 q 0,-2.267086 -1.03411,-3.420516 -1.03411,-1.173316 -2.96312,-1.173316 -0.87502,0 -1.6506,0.298301 -0.77558,0.278414 -1.37218,0.875015 -0.57672,0.576715 -0.93468,1.431844 -0.33807,0.855129 -0.33807,1.988672 v 12.389426 h -3.50007 V 19.495952 q 0,-2.326746 -0.97445,-3.460289 -0.95456,-1.133543 -2.82391,-1.133543 -1.27275,0 -2.38641,0.676148 -1.11365,0.656262 -2.02844,1.829578 v 14.477532 z"
       style="font-size:40.72800064px;font-family:Carlito;letter-spacing:-1.5px;stroke-width:1.02090001"
       id="path45"
       inkscape:connector-curvature="0" />
    <path
       d="m 127.22403,31.885378 z m 4.23587,-19.449211 v 19.449211 h -3.50007 V 12.436167 Z m 0.67614,-6.0853364 q 0,0.497168 -0.19886,0.9545625 -0.19887,0.4375078 -0.55683,0.7755821 -0.33807,0.3181875 -0.79547,0.5170547 -0.43751,0.1988672 -0.93467,0.1988672 -0.49717,0 -0.93468,-0.1988672 -0.43751,-0.1988672 -0.77558,-0.5170547 -0.31819,-0.3380743 -0.51706,-0.7755821 -0.19886,-0.4573945 -0.19886,-0.9545625 0,-0.5170547 0.19886,-0.9545625 0.19887,-0.4573945 0.51706,-0.7954688 0.33807,-0.3380742 0.77558,-0.5369414 0.43751,-0.1988672 0.93468,-0.1988672 0.49716,0 0.93467,0.1988672 0.4574,0.1988672 0.79547,0.5369414 0.35796,0.3380743 0.55683,0.7954688 0.19886,0.4375078 0.19886,0.9545625 z"
       style="font-size:40.72800064px;font-family:Carlito;letter-spacing:-1.5px;stroke-width:1.02090001"
       id="path47"
       inkscape:connector-curvature="0" />
    <path
       d="m 148.37499,31.885378 q -0.51705,0 -0.79546,-0.159094 -0.27842,-0.159094 -0.37785,-0.656262 l -0.43751,-1.809691 q -0.75569,0.696035 -1.4915,1.252863 -0.71593,0.536942 -1.51139,0.914789 -0.79547,0.377848 -1.71026,0.556828 -0.91479,0.198868 -2.00856,0.198868 -1.13354,0 -2.12788,-0.298301 -0.97445,-0.318188 -1.73014,-0.954563 -0.73581,-0.656261 -1.17332,-1.610824 -0.41762,-0.974449 -0.41762,-2.286973 0,-1.153429 0.61649,-2.207425 0.63637,-1.073883 2.04833,-1.909125 1.41196,-0.835243 3.67904,-1.352297 2.26709,-0.536942 5.56828,-0.616489 v -1.491504 q 0,-2.267086 -0.97445,-3.400628 -0.95456,-1.15343 -2.80402,-1.15343 -1.23298,0 -2.08811,0.318187 -0.83524,0.318188 -1.45173,0.696035 -0.61649,0.377848 -1.07388,0.696036 -0.43751,0.318187 -0.8949,0.318187 -0.35797,0 -0.61649,-0.17898 -0.25853,-0.178981 -0.41762,-0.457395 l -0.63638,-1.113656 q 1.61083,-1.551164 3.46029,-2.30686 1.86935,-0.775582 4.13644,-0.775582 1.63071,0 2.90346,0.536942 1.27275,0.517055 2.12788,1.491504 0.85513,0.974449 1.29263,2.326746 0.4574,1.352297 0.4574,3.002894 v 12.4292 z m -7.27853,-2.147766 q 0.87501,0 1.61082,-0.17898 0.73581,-0.178981 1.39207,-0.497168 0.65626,-0.338074 1.23298,-0.815356 0.5966,-0.497168 1.17331,-1.093769 v -4.017118 q -2.32674,0.09943 -3.95745,0.397735 -1.63071,0.278414 -2.66482,0.755695 -1.01423,0.477281 -1.47162,1.133543 -0.4574,0.636375 -0.4574,1.431844 0,0.755695 0.23864,1.312523 0.25853,0.536942 0.67615,0.894903 0.41762,0.338074 0.99434,0.517054 0.57671,0.159094 1.23298,0.159094 z"
       style="font-size:40.72800064px;font-family:Carlito;letter-spacing:-1.5px;stroke-width:1.02090001"
       id="path49"
       inkscape:connector-curvature="0" />
    <path
       d="m 214.81672,5.754229 v 2.9432345 h -11.15645 v 9.0484575 h 9.48597 v 2.943234 h -9.48597 V 31.885378 H 200.021 V 5.754229 Z"
       style="font-size:40.72800064px;font-family:Carlito;letter-spacing:-1.5px;stroke-width:1.02090001"
       id="path51"
       inkscape:connector-curvature="0" />
    <path
       d="m 228.80847,31.885378 q -0.51706,0 -0.79547,-0.159094 -0.27842,-0.159094 -0.37785,-0.656262 l -0.43751,-1.809691 q -0.75569,0.696035 -1.4915,1.252863 -0.71592,0.536942 -1.51139,0.914789 -0.79547,0.377848 -1.71026,0.556828 -0.91479,0.198868 -2.00856,0.198868 -1.13354,0 -2.12788,-0.298301 -0.97445,-0.318188 -1.73014,-0.954563 -0.73581,-0.656261 -1.17332,-1.610824 -0.41762,-0.974449 -0.41762,-2.286973 0,-1.153429 0.61649,-2.207425 0.63637,-1.073883 2.04833,-1.909125 1.41196,-0.835243 3.67904,-1.352297 2.26709,-0.536942 5.56828,-0.616489 v -1.491504 q 0,-2.267086 -0.97444,-3.400628 -0.95457,-1.15343 -2.80403,-1.15343 -1.23298,0 -2.08811,0.318187 -0.83524,0.318188 -1.45173,0.696035 -0.61649,0.377848 -1.07388,0.696036 -0.43751,0.318187 -0.8949,0.318187 -0.35796,0 -0.61649,-0.17898 -0.25853,-0.178981 -0.41762,-0.457395 l -0.63638,-1.113656 q 1.61083,-1.551164 3.46029,-2.30686 1.86935,-0.775582 4.13644,-0.775582 1.63071,0 2.90346,0.536942 1.27275,0.517055 2.12788,1.491504 0.85513,0.974449 1.29264,2.326746 0.45739,1.352297 0.45739,3.002894 v 12.4292 z m -7.27854,-2.147766 q 0.87501,0 1.61082,-0.17898 0.73581,-0.178981 1.39207,-0.497168 0.65626,-0.338074 1.23298,-0.815356 0.5966,-0.497168 1.17331,-1.093769 v -4.017118 q -2.32674,0.09943 -3.95745,0.397735 -1.63071,0.278414 -2.66482,0.755695 -1.01423,0.477281 -1.47162,1.133543 -0.45739,0.636375 -0.45739,1.431844 0,0.755695 0.23864,1.312523 0.25852,0.536942 0.67614,0.894903 0.41763,0.338074 0.99434,0.517054 0.57672,0.159094 1.23298,0.159094 z"
       style="font-size:40.72800064px;font-family:Carlito;letter-spacing:-1.5px;stroke-width:1.02090001"
       id="path53"
       inkscape:connector-curvature="0" />
    <path
       d="M 233.95064,31.885378 V 12.436167 h 2.00856 q 0.55683,0 0.77559,0.218754 0.23864,0.218753 0.27841,0.735808 l 0.23864,2.863688 q 0.8949,-1.929012 2.20743,-3.042668 1.31252,-1.113657 3.16198,-1.113657 0.61649,0 1.15343,0.139207 0.53695,0.119321 0.97445,0.417622 l -0.27841,2.585273 q -0.0597,0.497168 -0.55683,0.497168 -0.27841,0 -0.79547,-0.09943 -0.49717,-0.11932 -1.11365,-0.11932 -0.89491,0 -1.59094,0.278414 -0.67615,0.258528 -1.23298,0.795469 -0.53694,0.517055 -0.95456,1.27275 -0.41762,0.755695 -0.77558,1.730145 v 12.289992 z"
       style="font-size:40.72800064px;font-family:Carlito;letter-spacing:-1.5px;stroke-width:1.02090001"
       id="path55"
       inkscape:connector-curvature="0" />
    <path
       d="m 258.74089,31.885378 q -0.51706,0 -0.79547,-0.159094 -0.27842,-0.159094 -0.37785,-0.656262 l -0.43751,-1.809691 q -0.75569,0.696035 -1.4915,1.252863 -0.71592,0.536942 -1.51139,0.914789 -0.79547,0.377848 -1.71026,0.556828 -0.91479,0.198868 -2.00856,0.198868 -1.13354,0 -2.12788,-0.298301 -0.97445,-0.318188 -1.73014,-0.954563 -0.73581,-0.656261 -1.17332,-1.610824 -0.41762,-0.974449 -0.41762,-2.286973 0,-1.153429 0.61649,-2.207425 0.63637,-1.073883 2.04833,-1.909125 1.41196,-0.835243 3.67904,-1.352297 2.26709,-0.536942 5.56828,-0.616489 v -1.491504 q 0,-2.267086 -0.97445,-3.400628 -0.95456,-1.15343 -2.80402,-1.15343 -1.23298,0 -2.08811,0.318187 -0.83524,0.318188 -1.45173,0.696035 -0.61649,0.377848 -1.07388,0.696036 -0.43751,0.318187 -0.8949,0.318187 -0.35796,0 -0.61649,-0.17898 -0.25853,-0.178981 -0.41762,-0.457395 l -0.63638,-1.113656 q 1.61083,-1.551164 3.46029,-2.30686 1.86935,-0.775582 4.13644,-0.775582 1.63071,0 2.90346,0.536942 1.27275,0.517055 2.12788,1.491504 0.85513,0.974449 1.29263,2.326746 0.4574,1.352297 0.4574,3.002894 v 12.4292 z m -7.27854,-2.147766 q 0.87501,0 1.61082,-0.17898 0.73581,-0.178981 1.39207,-0.497168 0.65626,-0.338074 1.23298,-0.815356 0.5966,-0.497168 1.17331,-1.093769 v -4.017118 q -2.32674,0.09943 -3.95745,0.397735 -1.63071,0.278414 -2.66482,0.755695 -1.01423,0.477281 -1.47162,1.133543 -0.4574,0.636375 -0.4574,1.431844 0,0.755695 0.23865,1.312523 0.25852,0.536942 0.67614,0.894903 0.41762,0.338074 0.99434,0.517054 0.57671,0.159094 1.23298,0.159094 z"
       style="font-size:40.72800064px;font-family:Carlito;letter-spacing:-1.5px;stroke-width:1.02090001"
       id="path57"
       inkscape:connector-curvature="0" />
    <path
       d="m 277.7242,31.885378 q -0.37784,0 -0.61648,-0.159094 -0.23864,-0.17898 -0.27842,-0.556828 l -0.35796,-2.326746 q -1.23298,1.491504 -2.80403,2.406293 -1.57105,0.914789 -3.63927,0.914789 -1.65059,0 -3.00289,-0.636375 -1.33241,-0.656262 -2.28697,-1.909125 -0.95457,-1.252863 -1.47162,-3.102328 -0.51705,-1.869352 -0.51705,-4.295532 0,-2.147765 0.55682,-3.99723 0.57672,-1.869352 1.6506,-3.221649 1.07388,-1.352296 2.60516,-2.127879 1.55117,-0.775582 3.50006,-0.775582 1.76992,0 3.02278,0.596602 1.25287,0.576715 2.22732,1.670484 V 3.6064634 h 3.50006 V 31.885378 Z m -6.56261,-2.525613 q 1.65059,0 2.86368,-0.755696 1.23298,-0.775582 2.28698,-2.147765 v -9.406419 q -0.93468,-1.252863 -2.02845,-1.750031 -1.09377,-0.517055 -2.42618,-0.517055 -2.64493,0 -4.07678,1.929012 -1.43184,1.929012 -1.43184,5.508621 0,1.889239 0.31819,3.241536 0.33807,1.352297 0.95456,2.227312 0.61649,0.855129 1.51139,1.27275 0.8949,0.397735 2.02845,0.397735 z"
       style="font-size:40.72800064px;font-family:Carlito;letter-spacing:-1.5px;stroke-width:1.02090001"
       id="path59"
       inkscape:connector-curvature="0" />
    <path
       d="m 296.62797,31.885378 q -0.51705,0 -0.79547,-0.159094 -0.27841,-0.159094 -0.37785,-0.656262 l -0.4375,-1.809691 q -0.7557,0.696035 -1.49151,1.252863 -0.71592,0.536942 -1.51139,0.914789 -0.79547,0.377848 -1.71026,0.556828 -0.91479,0.198868 -2.00855,0.198868 -1.13355,0 -2.12788,-0.298301 -0.97445,-0.318188 -1.73015,-0.954563 -0.73581,-0.656261 -1.17331,-1.610824 -0.41763,-0.974449 -0.41763,-2.286973 0,-1.153429 0.61649,-2.207425 0.63638,-1.073883 2.04833,-1.909125 1.41196,-0.835243 3.67905,-1.352297 2.26708,-0.536942 5.56828,-0.616489 v -1.491504 q 0,-2.267086 -0.97445,-3.400628 -0.95456,-1.15343 -2.80403,-1.15343 -1.23297,0 -2.0881,0.318187 -0.83525,0.318188 -1.45173,0.696035 -0.61649,0.377848 -1.07389,0.696036 -0.4375,0.318187 -0.8949,0.318187 -0.35796,0 -0.61649,-0.17898 -0.25852,-0.178981 -0.41762,-0.457395 l -0.63637,-1.113656 q 1.61082,-1.551164 3.46029,-2.30686 1.86935,-0.775582 4.13643,-0.775582 1.63071,0 2.90346,0.536942 1.27275,0.517055 2.12788,1.491504 0.85513,0.974449 1.29264,2.326746 0.45739,1.352297 0.45739,3.002894 v 12.4292 z m -7.27854,-2.147766 q 0.87502,0 1.61083,-0.17898 0.7358,-0.178981 1.39207,-0.497168 0.65626,-0.338074 1.23297,-0.815356 0.5966,-0.497168 1.17332,-1.093769 v -4.017118 q -2.32675,0.09943 -3.95746,0.397735 -1.63071,0.278414 -2.66482,0.755695 -1.01422,0.477281 -1.47162,1.133543 -0.45739,0.636375 -0.45739,1.431844 0,0.755695 0.23864,1.312523 0.25853,0.536942 0.67615,0.894903 0.41762,0.338074 0.99433,0.517054 0.57672,0.159094 1.23298,0.159094 z"
       style="font-size:40.72800064px;font-family:Carlito;letter-spacing:-1.5px;stroke-width:1.02090001"
       id="path61"
       inkscape:connector-curvature="0" />
    <path
       d="m 306.58273,37.612753 q -0.15909,0.397734 -0.43751,0.616488 -0.25853,0.218754 -0.77558,0.218754 h -2.60516 l 3.34097,-7.716047 -7.43764,-18.295781 h 3.02279 q 0.45739,0 0.69603,0.218754 0.23864,0.218753 0.35796,0.497168 l 4.53417,12.170672 q 0.1591,0.417621 0.2983,0.835242 0.1591,0.417621 0.25853,0.835242 0.11932,-0.437508 0.25853,-0.855129 0.15909,-0.437508 0.31819,-0.855129 l 4.39496,-12.130898 q 0.11932,-0.298301 0.39774,-0.497168 0.27841,-0.218754 0.61648,-0.218754 h 2.78415 z"
       style="font-size:40.72800064px;font-family:Carlito;letter-spacing:-1.5px;stroke-width:1.02090001"
       id="path63"
       inkscape:connector-curvature="0" />
  </g>
</svg>
