<?xml version="1.0" encoding="UTF-8" standalone="no"?>
<svg
   xmlns:dc="http://purl.org/dc/elements/1.1/"
   xmlns:cc="http://creativecommons.org/ns#"
   xmlns:rdf="http://www.w3.org/1999/02/22-rdf-syntax-ns#"
   xmlns:svg="http://www.w3.org/2000/svg"
   xmlns="http://www.w3.org/2000/svg"
   xmlns:sodipodi="http://sodipodi.sourceforge.net/DTD/sodipodi-0.dtd"
   xmlns:inkscape="http://www.inkscape.org/namespaces/inkscape"
   id="Capa_1"
   enable-background="new 0 0 512 512"
   height="46.571693"
   viewBox="0 0 46.571705 46.571693"
   width="46.571705"
   version="1.1"
   sodipodi:docname="favicon.svg"
   inkscape:version="0.92.3 (2405546, 2018-03-11)">
  <metadata
     id="metadata33">
    <rdf:RDF>
      <cc:Work
         rdf:about="">
        <dc:format>image/svg+xml</dc:format>
        <dc:type
           rdf:resource="http://purl.org/dc/dcmitype/StillImage" />
      </cc:Work>
    </rdf:RDF>
  </metadata>
  <defs
     id="defs31" />
  <sodipodi:namedview
     pagecolor="#ffffff"
     bordercolor="#666666"
     borderopacity="1"
     objecttolerance="10"
     gridtolerance="10"
     guidetolerance="10"
     inkscape:pageopacity="0"
     inkscape:pageshadow="2"
     inkscape:window-width="722"
     inkscape:window-height="480"
     id="namedview29"
     showgrid="false"
     inkscape:zoom="0.4609375"
     inkscape:cx="-204.51075"
     inkscape:cy="-174.13788"
     inkscape:window-x="0"
     inkscape:window-y="30"
     inkscape:window-maximized="0"
     inkscape:current-layer="Capa_1" />
  <linearGradient
     id="SVGID_1_"
     gradientUnits="userSpaceOnUse"
     x1="74.981003"
     x2="437.01901"
     y1="74.981003"
     y2="437.01901">
    <stop
       offset="0"
       stop-color="#ff4f75"
       id="stop2" />
    <stop
       offset="1"
       stop-color="#f71e78"
       id="stop4" />
  </linearGradient>
  <linearGradient
     id="SVGID_2_"
     gradientUnits="userSpaceOnUse"
     x1="166.14999"
     x2="345.85001"
     y1="256"
     y2="256">
    <stop
       offset="0"
       stop-color="#587aa1"
       id="stop7" />
    <stop
       offset="1"
       stop-color="#455f80"
       id="stop9" />
  </linearGradient>
  <g
     id="g874">
    <circle
       style="fill:#ff4f75;stroke-width:0.09096034"
       cx="23.285847"
       cy="23.285847"
       r="23.285847"
       id="circle2" />
    <path
       style="fill:#a82059;fill-opacity:1;stroke-width:0.09096034"
       inkscape:connector-curvature="0"
       d="m 46.571706,23.285848 c 0,-0.991013 -0.0624,-1.967381 -0.18256,-2.92574 -3.82825,-3.828429 -11.3654,-11.3651313 -11.3654,-11.3651313 l -10.99684,4.1075883 -4.09476,-4.0947633 -8.29331,28.6598763 c 0,0 4.83546,4.835907 8.72119,8.721459 0.95845,0.12025 1.93482,0.182558 2.92583,0.182558 12.86043,0 23.28585,-10.42542 23.28585,-23.285847 z"
       id="path4" />
    <g
       transform="matrix(0.09096034,0,0,0.09096034,6.3684082e-6,-3.469238e-7)"
       id="g18">
      <path
         style="fill:#e5f7ff"
         inkscape:connector-curvature="0"
         d="M 172.976,77 C 119.97,77 77,157.141 77,256 c 0,98.859 42.97,179 95.976,179 35.444,0 66.402,-35.839 83.024,-89.143 V 166.143 C 239.378,112.839 208.421,77 172.976,77 Z"
         id="path6" />
      <path
         style="fill:#bfebff"
         inkscape:connector-curvature="0"
         d="M 339.024,77 C 303.579,77 272.622,112.839 256,166.143 V 345.858 C 272.622,399.161 303.579,435 339.024,435 392.03,435 435,354.859 435,256 435,157.141 392.03,77 339.024,77 Z"
         id="path8" />
      <path
         style="fill:#85d9ff"
         inkscape:connector-curvature="0"
         d="m 314.575,114.564 c -23.59,0 -44.663,20.083 -58.575,51.578 v 179.715 c 13.911,31.496 34.985,51.579 58.575,51.579 41.891,0 75.85,-63.323 75.85,-141.436 0,-78.113 -33.96,-141.436 -75.85,-141.436 z"
         id="path10" />
      <path
         style="fill:#bfebff"
         inkscape:connector-curvature="0"
         d="m 197.425,114.564 c -41.891,0 -75.85,63.323 -75.85,141.436 0,78.113 33.959,141.436 75.85,141.436 23.59,0 44.663,-20.083 58.575,-51.579 V 166.143 c -13.912,-31.496 -34.985,-51.579 -58.575,-51.579 z"
         id="path12" />
      <path
         style="fill:#455f80"
         inkscape:connector-curvature="0"
         d="M 256,166.15 201.617,256 256,345.85 c 49.543,0 89.85,-40.306 89.85,-89.85 0,-49.544 -40.307,-89.85 -89.85,-89.85 z"
         id="path14" />
      <path
         style="fill:#587aa1"
         inkscape:connector-curvature="0"
         d="m 166.15,256 c 0,49.543 40.306,89.85 89.85,89.85 v -179.7 c -49.544,0 -89.85,40.306 -89.85,89.85 z"
         id="path16" />
    </g>
  </g>
</svg>
