<?xml version="1.0" encoding="UTF-8" standalone="no"?>
<!-- Created with Inkscape (http://www.inkscape.org/) -->

<svg
   xmlns:dc="http://purl.org/dc/elements/1.1/"
   xmlns:cc="http://creativecommons.org/ns#"
   xmlns:rdf="http://www.w3.org/1999/02/22-rdf-syntax-ns#"
   xmlns:svg="http://www.w3.org/2000/svg"
   xmlns="http://www.w3.org/2000/svg"
   xmlns:sodipodi="http://sodipodi.sourceforge.net/DTD/sodipodi-0.dtd"
   xmlns:inkscape="http://www.inkscape.org/namespaces/inkscape"
   width="135.46666mm"
   height="135.46666mm"
   viewBox="0 0 135.46666 135.46666"
   version="1.1"
   id="svg862"
   inkscape:version="0.92.3 (2405546, 2018-03-11)"
   sodipodi:docname="favicon.svg">
  <defs
     id="defs856">
    <linearGradient
       id="SVGID_2_"
       gradientUnits="userSpaceOnUse"
       x1="166.14999"
       x2="345.85001"
       y1="256"
       y2="256">
      <stop
         offset="0"
         stop-color="#587aa1"
         id="stop7" />
      <stop
         offset="1"
         stop-color="#455f80"
         id="stop9" />
    </linearGradient>
  </defs>
  <sodipodi:namedview
     id="base"
     pagecolor="#ffffff"
     bordercolor="#666666"
     borderopacity="1.0"
     inkscape:pageopacity="0.0"
     inkscape:pageshadow="2"
     inkscape:zoom="0.35"
     inkscape:cx="1183.1429"
     inkscape:cy="-255.42858"
     inkscape:document-units="mm"
     inkscape:current-layer="layer1"
     showgrid="false"
     inkscape:window-width="1920"
     inkscape:window-height="1017"
     inkscape:window-x="0"
     inkscape:window-y="30"
     inkscape:window-maximized="1" />
  <metadata
     id="metadata859">
    <rdf:RDF>
      <cc:Work
         rdf:about="">
        <dc:format>image/svg+xml</dc:format>
        <dc:type
           rdf:resource="http://purl.org/dc/dcmitype/StillImage" />
        <dc:title></dc:title>
      </cc:Work>
    </rdf:RDF>
  </metadata>
  <g
     inkscape:label="Layer 1"
     inkscape:groupmode="layer"
     id="layer1"
     transform="translate(323.24524,54.215476)">
    <g
       id="g925"
       transform="matrix(0.26458333,0,0,0.26458333,-395.69713,41.069114)">
      <circle
         cx="529.83392"
         cy="-104.13074"
         r="256"
         id="circle12"
         style="fill:#5c77ff;fill-opacity:0.54509804" />
      <g
         transform="translate(273.83392,-360.13074)"
         id="g24">
        <path
           d="M 172.976,77 C 119.97,77 77,157.141 77,256 c 0,98.859 42.97,179 95.976,179 35.444,0 66.402,-35.839 83.024,-89.143 V 166.143 C 239.378,112.839 208.421,77 172.976,77 Z"
           id="path14"
           inkscape:connector-curvature="0"
           style="fill:#e5f7ff" />
        <path
           d="M 339.024,77 C 303.579,77 272.622,112.839 256,166.143 V 345.858 C 272.622,399.161 303.579,435 339.024,435 392.03,435 435,354.859 435,256 435,157.141 392.03,77 339.024,77 Z"
           id="path16"
           inkscape:connector-curvature="0"
           style="fill:#bfebff" />
        <path
           d="m 314.575,114.564 c -23.59,0 -44.663,20.083 -58.575,51.578 v 179.715 c 13.911,31.496 34.985,51.579 58.575,51.579 41.891,0 75.85,-63.323 75.85,-141.436 0,-78.113 -33.96,-141.436 -75.85,-141.436 z"
           id="path18"
           inkscape:connector-curvature="0"
           style="fill:#85d9ff" />
        <path
           d="m 197.425,114.564 c -41.891,0 -75.85,63.323 -75.85,141.436 0,78.113 33.959,141.436 75.85,141.436 23.59,0 44.663,-20.083 58.575,-51.579 V 166.143 c -13.912,-31.496 -34.985,-51.579 -58.575,-51.579 z"
           id="path20"
           inkscape:connector-curvature="0"
           style="fill:#bfebff" />
        <circle
           cx="256"
           cy="256"
           r="89.849998"
           id="circle22"
           style="fill:url(#SVGID_2_)" />
      </g>
    </g>
  </g>
</svg>
