<?xml version="1.0" encoding="UTF-8" standalone="no"?>
<!-- Created with Inkscape (http://www.inkscape.org/) -->

<svg
   xmlns:dc="http://purl.org/dc/elements/1.1/"
   xmlns:cc="http://creativecommons.org/ns#"
   xmlns:rdf="http://www.w3.org/1999/02/22-rdf-syntax-ns#"
   xmlns:svg="http://www.w3.org/2000/svg"
   xmlns="http://www.w3.org/2000/svg"
   xmlns:sodipodi="http://sodipodi.sourceforge.net/DTD/sodipodi-0.dtd"
   xmlns:inkscape="http://www.inkscape.org/namespaces/inkscape"
   width="48.591091mm"
   height="42.200726mm"
   viewBox="0 0 48.591091 42.200724"
   version="1.1"
   id="svg1439"
   inkscape:version="0.92.3 (2405546, 2018-03-11)"
   sodipodi:docname="hugo-muscot.svg">
  <defs
     id="defs1433" />
  <sodipodi:namedview
     id="base"
     pagecolor="#ffffff"
     bordercolor="#666666"
     borderopacity="1.0"
     inkscape:pageopacity="0.0"
     inkscape:pageshadow="2"
     inkscape:zoom="0.67539062"
     inkscape:cx="413.76807"
     inkscape:cy="159.88309"
     inkscape:document-units="mm"
     inkscape:current-layer="layer1"
     showgrid="false"
     inkscape:window-width="960"
     inkscape:window-height="1017"
     inkscape:window-x="960"
     inkscape:window-y="30"
     inkscape:window-maximized="0" />
  <metadata
     id="metadata1436">
    <rdf:RDF>
      <cc:Work
         rdf:about="">
        <dc:format>image/svg+xml</dc:format>
        <dc:type
           rdf:resource="http://purl.org/dc/dcmitype/StillImage" />
        <dc:title></dc:title>
      </cc:Work>
    </rdf:RDF>
  </metadata>
  <g
     inkscape:label="Layer 1"
     inkscape:groupmode="layer"
     id="layer1"
     transform="translate(38.427234,-148.93502)">
    <g
       transform="matrix(0.11055993,0,0,0.11055993,-83.016055,91.067951)"
       id="g188">
      <polygon
         style="fill:#e6e7e8"
         points="599.8,590.7 483,544.3 483,523.4 604.7,590.7 "
         id="polygon162" />
      <polygon
         style="fill:#f1f2f2"
         points="584.6,590.7 462.6,544.5 462.6,525.1 603.3,590.7 "
         id="polygon164" />
      <polygon
         style="fill:#e6e7e8"
         points="584.6,590.7 440.9,547.4 440.9,527.6 599.8,590.7 "
         id="polygon166" />
      <rect
         style="fill:#9280ad"
         x="584.59998"
         y="595.5"
         width="45.400002"
         height="269.70001"
         id="rect168" />
      <polygon
         style="fill:#b09dca"
         points="403.3,536.2 403.3,795.9 584.6,849.1 584.6,589.5 "
         id="polygon170" />
      <polygon
         style="fill:#f1f2f2"
         points="584.6,590.7 421.1,541.4 421.1,529.9 594.6,590.7 "
         id="polygon172" />
      <rect
         style="fill:#cccccc"
         x="584.59998"
         y="590.70001"
         width="22.700001"
         height="4.8000002"
         id="rect174" />
      <polygon
         style="fill:#e6e7e8"
         points="614.8,590.7 731.5,544.3 731.5,523.4 609.8,590.7 "
         id="polygon176" />
      <polygon
         style="fill:#f1f2f2"
         points="630,590.7 751.9,544.5 751.9,525.1 611.2,590.7 "
         id="polygon178" />
      <polygon
         style="fill:#e6e7e8"
         points="630,590.7 773.6,547.4 773.6,527.6 614.8,590.7 "
         id="polygon180" />
      <polygon
         style="fill:#b09dca"
         points="811.3,536.2 811.3,795.9 630,849.1 630,589.5 "
         id="polygon182" />
      <polygon
         style="fill:#f1f2f2"
         points="630,590.7 793.5,541.4 793.5,529.9 620,590.7 "
         id="polygon184" />
      <rect
         style="fill:#cccccc"
         x="607.29999"
         y="590.70001"
         width="22.700001"
         height="4.8000002"
         id="rect186" />
    </g>
  </g>
</svg>
