<svg id="Capa_1" enable-background="new 0 0 512 512" height="512" viewBox="0 0 512 512" width="512" xmlns="http://www.w3.org/2000/svg"><g><circle cx="256" cy="256" fill="#ff4f75" r="256"/><path d="m512 256c0-10.895-.686-21.629-2.007-32.165-42.087-42.089-124.949-124.946-124.949-124.946l-120.897 45.158-45.017-45.017-91.175 315.081s53.16 53.165 95.879 95.882c10.537 1.322 21.271 2.007 32.166 2.007 141.385 0 256-114.615 256-256z" fill="#f71e78"/><g><path d="m172.976 77c-53.006 0-95.976 80.141-95.976 179s42.97 179 95.976 179c35.444 0 66.402-35.839 83.024-89.143v-179.714c-16.622-53.304-47.579-89.143-83.024-89.143z" fill="#e5f7ff"/><path d="m339.024 77c-35.445 0-66.402 35.839-83.024 89.143v179.715c16.622 53.303 47.579 89.142 83.024 89.142 53.006 0 95.976-80.141 95.976-179s-42.97-179-95.976-179z" fill="#bfebff"/><path d="m314.575 114.564c-23.59 0-44.663 20.083-58.575 51.578v179.715c13.911 31.496 34.985 51.579 58.575 51.579 41.891 0 75.85-63.323 75.85-141.436s-33.96-141.436-75.85-141.436z" fill="#85d9ff"/><path d="m197.425 114.564c-41.891 0-75.85 63.323-75.85 141.436s33.959 141.436 75.85 141.436c23.59 0 44.663-20.083 58.575-51.579v-179.714c-13.912-31.496-34.985-51.579-58.575-51.579z" fill="#bfebff"/><path d="m256 166.15-54.383 89.85 54.383 89.85c49.543 0 89.85-40.306 89.85-89.85s-40.307-89.85-89.85-89.85z" fill="#455f80"/><path d="m166.15 256c0 49.543 40.306 89.85 89.85 89.85v-179.7c-49.544 0-89.85 40.306-89.85 89.85z" fill="#587aa1"/></g></g></svg>