<?xml version="1.0" encoding="UTF-8" standalone="no"?>
<svg
   xmlns:dc="http://purl.org/dc/elements/1.1/"
   xmlns:cc="http://creativecommons.org/ns#"
   xmlns:rdf="http://www.w3.org/1999/02/22-rdf-syntax-ns#"
   xmlns:svg="http://www.w3.org/2000/svg"
   xmlns="http://www.w3.org/2000/svg"
   xmlns:sodipodi="http://sodipodi.sourceforge.net/DTD/sodipodi-0.dtd"
   xmlns:inkscape="http://www.inkscape.org/namespaces/inkscape"
   width="450.81668"
   height="363.88065"
   viewBox="0 0 450.81669 363.88065"
   version="1.1"
   id="svg175"
   sodipodi:docname="illustration.svg"
   inkscape:version="0.92.3 (2405546, 2018-03-11)">
  <metadata
     id="metadata181">
    <rdf:RDF>
      <cc:Work
         rdf:about="">
        <dc:format>image/svg+xml</dc:format>
        <dc:type
           rdf:resource="http://purl.org/dc/dcmitype/StillImage" />
      </cc:Work>
    </rdf:RDF>
  </metadata>
  <defs
     id="defs179" />
  <sodipodi:namedview
     pagecolor="#ffffff"
     bordercolor="#666666"
     borderopacity="1"
     objecttolerance="10"
     gridtolerance="10"
     guidetolerance="10"
     inkscape:pageopacity="0"
     inkscape:pageshadow="2"
     inkscape:window-width="1920"
     inkscape:window-height="1017"
     id="namedview177"
     showgrid="false"
     inkscape:zoom="1.0208766"
     inkscape:cx="151.33431"
     inkscape:cy="215.99392"
     inkscape:window-x="0"
     inkscape:window-y="30"
     inkscape:window-maximized="1"
     inkscape:current-layer="Group_1399" />
  <g
     id="g2147"
     transform="translate(-81.17695,4.3290395)">
    <g
       id="g2160">
      <path
         inkscape:connector-curvature="0"
         id="path16"
         style="fill:#e8505b;fill-opacity:1;fill-rule:nonzero;stroke:none;stroke-width:0.0178282"
         d="m 518.34815,121.45829 c -0.57093,-0.92006 -1.48243,-1.63103 -2.61355,-1.92396 -2.33463,-0.60469 -4.71765,0.79767 -5.32238,3.13248 -0.0637,0.24564 -0.10358,0.49175 -0.12411,0.73626 -0.0598,0.71403 0.0586,1.41414 0.32521,2.04818 0.51007,1.21273 1.55928,2.18245 2.93136,2.53791 2.33483,0.60475 4.71782,-0.79772 5.3224,-3.13241 0.12245,-0.47304 0.16137,-0.94777 0.128,-1.40966 -0.0514,-0.7133 -0.27777,-1.39455 -0.64692,-1.98881 z m -44.59409,-1.74569 c -0.58837,-0.40814 -1.25356,-0.65535 -1.93546,-0.7416 -1.30523,-0.16448 -2.66958,0.25939 -3.66322,1.2697 -1.69117,1.71959 -1.66808,4.48456 0.0515,6.17573 0.34841,0.3425 0.74028,0.61358 1.15683,0.81569 0.64347,0.31203 1.34674,0.45656 2.04579,0.4341 1.08243,-0.0346 2.15363,-0.46836 2.97298,-1.30146 1.69108,-1.71939 1.66806,-4.48437 -0.0516,-6.17552 -0.18124,-0.17828 -0.37476,-0.3365 -0.57682,-0.47664 z m 18.43236,-37.949039 c -0.47097,0.130418 -0.90144,0.334157 -1.28475,0.594033 -0.59206,0.401112 -1.06887,0.937908 -1.39908,1.554538 -0.51109,0.954753 -0.67121,2.09942 -0.35938,3.225502 0.64359,2.324156 3.04969,3.686669 5.37403,3.043024 0.245,-0.06784 0.47872,-0.15642 0.70108,-0.261294 0.64765,-0.305326 1.19457,-0.757942 1.60995,-1.305477 0.79517,-1.047845 1.11019,-2.441488 0.73204,-3.807081 -0.64369,-2.324499 -3.04957,-3.686888 -5.37389,-3.043248"
         sodipodi:nodetypes="ccccccccccccccccccccccssccsc" />
      <path
         inkscape:connector-curvature="0"
         id="path14"
         style="fill:#4b6c8e;fill-opacity:1;fill-rule:nonzero;stroke:none;stroke-width:0.0178282"
         d="m 513.11778,105.46494 c 0.22301,-0.4038 0.43748,-0.80505 0.64166,-1.20271 1.27041,-2.47681 2.17754,-4.825243 2.6682,-6.970116 0.48717,-2.144104 0.56967,-4.093452 0.10735,-5.777039 -0.29045,-1.052646 -0.80991,-1.999504 -1.57183,-2.747514 -1.04389,-1.02936 -2.44132,-1.584562 -3.98733,-1.741009 -1.55164,-0.158788 -3.2772,0.05581 -5.14088,0.570591 -2.32362,0.644898 -4.87005,1.764452 -7.53659,3.29462 -0.48231,-0.798426 -0.1936,-0.296142 -0.69096,-1.014747 -0.41538,0.547538 -0.96229,1.000152 -1.60995,1.30548 0.44092,0.642285 0.0995,0.05931 0.53119,0.774471 -0.37904,0.238519 -0.75979,0.48288 -1.14251,0.736856 -2.00429,1.331062 -4.05238,2.874044 -6.09715,4.604051 -2.64323,-0.431828 -5.19327,-0.701514 -7.59688,-0.811765 -0.45867,-0.02098 -0.91055,-0.03478 -1.35823,-0.04419 0.004,-1.301284 0.0618,-2.537979 0.17532,-3.695099 0.27367,-2.822904 0.87598,-5.175179 1.72581,-6.849372 0.42337,-0.837964 0.90488,-1.504077 1.42039,-1.992021 0.51712,-0.488763 1.06033,-0.80309 1.65655,-0.969486 1.42108,-0.360398 2.45307,0.235814 2.68009,0.344962 0.33021,-0.61663 0.80701,-1.153425 1.39908,-1.554537 -0.79661,-0.622315 -1.36707,-0.702925 -1.71193,-0.828945 -0.97644,-0.217987 -1.97024,-0.216758 -2.91872,0.047 -0.94906,0.261667 -1.80176,0.771796 -2.52699,1.461002 -1.27143,1.211178 -2.18134,2.942334 -2.82349,5.05054 -0.75533,2.496395 -1.13369,5.545121 -1.14284,8.982574 -3.07394,0.05946 -5.83308,0.409312 -8.15729,1.051626 -1.86299,0.51724 -3.45305,1.220554 -4.70211,2.154716 -1.24534,0.929601 -2.15802,2.124511 -2.52352,3.544331 -0.26896,1.03311 -0.22763,2.11292 0.0651,3.16457 0.46979,1.68152 1.54297,3.31084 3.06364,4.89894 1.76922,1.84059 4.16074,3.63281 7.04248,5.30684 -0.22277,0.40374 -0.43737,0.80485 -0.64153,1.20251 -0.2086,0.40665 0.20978,-0.41057 0.0209,-0.011 0.6819,0.0862 1.34709,0.33345 1.93545,0.74159 0.33558,-0.70284 0.0893,-0.20132 0.49257,-0.9327 0.27687,0.14625 0.5571,0.29136 0.84144,0.43535 2.25377,1.13979 4.73898,2.20587 7.40397,3.16352 1.12798,2.98254 2.38954,5.73326 3.73546,8.18322 -2.55064,1.46239 -4.95307,2.51223 -7.05698,3.0934 -1.68616,0.46796 -3.17642,0.63232 -4.37699,0.50677 -1.20584,-0.12761 -2.09755,-0.51957 -2.75034,-1.15875 -1.07665,-1.04227 -0.98793,-2.36784 -1.00996,-2.56147 -0.69905,0.0225 -1.40231,-0.12206 -2.04579,-0.4341 -0.21957,1.62171 0.28083,3.13908 1.60688,4.46915 1.04365,1.02906 2.441,1.58439 3.98709,1.74087 1.55185,0.15871 3.27696,-0.056 5.14063,-0.57082 2.32375,-0.64452 4.86998,-1.7643 7.53668,-3.29453 0.70395,1.16599 1.42622,2.25109 2.16068,3.24328 1.79524,2.41996 3.65917,4.30232 5.5619,5.50452 0.95217,0.59928 1.91822,1.02896 2.89675,1.24648 0.97652,0.21822 1.97009,0.21683 2.91867,-0.0466 l 0.006,-0.002 c 0.94653,-0.26211 1.79737,-0.7716 2.5212,-1.4598 1.27155,-1.21081 2.18119,-2.9422 2.82341,-5.05015 0.75549,-2.49653 1.13389,-5.54515 1.14282,-8.98273 0.93273,-0.018 0.50955,-0.0293 1.38058,-0.10109 -0.26658,-0.63405 -0.38501,-1.33415 -0.32521,-2.04818 -0.77661,0.0607 -0.25739,0.0661 -1.09237,0.0831 -0.01,-0.25802 -0.0212,-0.51745 -0.035,-0.77906 -0.13448,-2.56995 -0.45641,-5.31173 -0.97077,-8.15987 2.01906,-2.46821 3.77026,-4.937 5.21896,-7.32718 0.38048,0.22096 0.75206,0.44383 1.11294,0.66819 2.25106,1.39916 4.10791,2.85715 5.47374,4.28094 1.36889,1.42274 2.23189,2.80965 2.56284,4.01943 0.2098,0.7614 0.22368,1.4458 0.0567,2.09522 -0.23066,0.8839 -0.88289,1.70296 -1.85138,2.4329 -0.343,0.25779 0.44038,-0.23012 0,0 0.36915,0.59425 0.59554,1.27551 0.64692,1.98881 0.93308,-0.4051 2.77396,-2.33007 3.20509,-3.90348 0.26875,-1.03357 0.22731,-2.11318 -0.0654,-3.16503 -0.46979,-1.68153 -1.54304,-3.31083 -3.06366,-4.89875 -1.76894,-1.84067 -4.16059,-3.63266 -7.04236,-5.3067 z m -6.74144,-15.873294 0.0102,-0.0028 c 1.68622,-0.468186 3.1764,-0.632267 4.37681,-0.506638 1.20619,0.127727 2.09806,0.519337 2.75082,1.159014 0.47721,0.470746 0.81696,1.065012 1.02919,1.825393 0.33857,1.207652 0.31182,2.840947 -0.13035,4.765397 -0.50829,2.232818 -1.56345,4.841658 -3.10244,7.632578 -0.27692,-0.14625 -0.55743,-0.29148 -0.84191,-0.43562 -2.25355,-1.13966 -4.73848,-2.20564 -7.40334,-3.16315 -1.12804,-2.982678 -2.38965,-5.733589 -3.73569,-8.18345 2.54635,-1.459888 4.94494,-2.508687 7.04678,-3.090716 z m -3.09425,18.597324 c 0.54683,1.97208 1.00323,3.9189 1.37201,5.81838 -1.245,1.48171 -2.58862,2.96263 -4.0246,4.42267 -1.43552,1.45975 -2.89381,2.82719 -4.35437,4.09629 -1.90532,-0.33704 -3.8593,-0.75957 -5.8412,-1.27298 -1.98165,-0.51309 -3.89576,-1.0917 -5.72525,-1.72204 -0.66089,-1.81878 -1.27126,-3.72296 -1.81737,-5.6958 -0.54667,-1.97213 -1.00314,-3.91893 -1.37184,-5.81844 1.24498,-1.48171 2.58857,-2.96279 4.02444,-4.42262 1.43534,-1.45969 2.89359,-2.82731 4.35426,-4.096632 1.9052,0.33726 3.85934,0.759752 5.84113,1.273372 1.98181,0.51306 3.8961,1.09161 5.72576,1.7219 0.6605,1.8187 1.2709,3.72305 1.81703,5.6959 z m -6.7529,-13.773626 c 0.34514,-0.229325 0.68796,-0.449676 1.02929,-0.66537 0.1061,0.193902 0.21195,0.389365 0.31674,0.587325 0.92333,1.739077 1.80678,3.636081 2.63028,5.661241 -1.37754,-0.439907 -2.79464,-0.851636 -4.24784,-1.228049 v 0 c -1.45295,-0.37628 -2.89131,-0.704441 -4.30929,-0.988478 1.54299,-1.241975 3.07788,-2.368867 4.58082,-3.366669 z m -14.93196,4.135076 c 1.80209,0.08259 3.6982,0.25938 5.66022,0.530581 -1.06992,0.972979 -2.13459,1.994259 -3.18687,3.064279 -1.05205,1.07016 -2.05625,2.15147 -3.01117,3.23706 -0.37324,-2.40604 -0.60089,-4.71385 -0.68691,-6.872934 0.40363,0.0092 0.81095,0.02184 1.22473,0.04101 z m -14.09321,11.2712 c -1.36884,-1.42256 -2.2317,-2.80952 -2.56304,-4.01936 -0.20972,-0.76108 -0.22311,-1.44554 -0.0561,-2.09504 0.23073,-0.88415 0.79382,-1.67866 1.76246,-2.40863 0.96482,-0.72503 2.32721,-1.350923 4.01404,-1.816734 2.10321,-0.583656 4.7034,-0.919334 7.64295,-0.977282 0.01,0.258084 0.0212,0.517649 0.0348,0.779353 0.13478,2.569953 0.45671,5.311723 0.97096,8.159883 -2.01901,2.46838 -3.77021,4.9368 -5.21897,7.32721 -0.38061,-0.22131 -0.75247,-0.44411 -1.11319,-0.66851 -2.25113,-1.39933 -4.10829,-2.85705 -5.47391,-4.28089 z m 8.39663,5.94895 c 0.14242,-0.23368 0.28778,-0.46835 0.43639,-0.70411 1.02435,-1.62615 2.19622,-3.2937 3.50209,-4.97282 0.30785,1.41336 0.65998,2.84647 1.06057,4.29336 0.40096,1.44641 0.83557,2.85667 1.29828,4.22623 -2.27123,-0.87948 -4.38356,-1.83682 -6.29733,-2.84266 z m 12.39751,11.91653 c -0.92336,-1.7392 -1.80677,-3.63602 -2.6303,-5.66135 1.37775,0.44001 2.79479,0.85159 4.24803,1.22816 1.45297,0.37628 2.89106,0.70415 4.30892,0.98841 -1.54287,1.24171 -3.07776,2.36864 -4.58073,3.36633 -0.34514,0.22934 -0.68799,0.44958 -1.02946,0.6654 -0.10607,-0.1938 -0.21151,-0.3891 -0.31646,-0.58695 z m 17.36614,1.59024 c -0.2736,2.82317 -0.87614,5.17524 -1.7256,6.84941 -0.42353,0.83811 -0.90507,1.50416 -1.4205,1.9923 -0.51749,0.48871 -1.06051,0.80312 -1.65684,0.96913 -0.59677,0.16438 -1.22416,0.17407 -1.91916,0.0211 -1.21202,-0.26499 -2.62041,-1.06754 -4.07965,-2.39304 -1.72878,-1.56269 -3.51835,-3.83458 -5.21807,-6.64914 0.37922,-0.23849 0.75979,-0.48283 1.14247,-0.73695 2.00468,-1.33099 4.0528,-2.8739 6.09739,-4.60385 2.64323,0.43182 5.19347,0.70152 7.59701,0.81224 0.45862,0.0208 0.91064,0.0345 1.35818,0.044 -0.004,1.30122 -0.0615,2.53753 -0.17523,3.69475 z m 0.13673,-5.76248 c -0.4038,-0.009 -0.81112,-0.0218 -1.22477,-0.0412 -1.80225,-0.0824 -3.69835,-0.25925 -5.66019,-0.53046 1.06969,-0.9731 2.13446,-1.99404 3.18674,-3.06406 l -0.73655,-0.72451 0.73671,0.72446 c 1.05207,-1.07014 2.05627,-2.15145 3.01101,-3.23702 0.37337,2.40584 0.60115,4.71342 0.68705,6.87276 z m 4.03544,-16.55727 c -1.02439,1.62635 -2.19624,3.29408 -3.50205,4.97299 -0.30785,-1.41336 -0.65998,-2.84628 -1.06064,-4.29314 -0.40085,-1.44626 -0.83547,-2.85671 -1.29814,-4.22627 2.27126,0.87964 4.38347,1.83684 6.29711,2.84253 -0.14227,0.23382 -0.28762,0.46849 -0.43628,0.70389"
         sodipodi:nodetypes="ccccccccccccccccccccccccccccccccccccccccccccccccccccscccccccccccccccccccccccccccccccccccccccccccccccccccccccccccccccccccccccccccccccccccccccccccccccccccccccccccccc" />
      <path
         inkscape:connector-curvature="0"
         id="path16-3"
         style="fill:#e8505b;fill-opacity:1;fill-rule:nonzero;stroke:none;stroke-width:0.02113733"
         d="m 486.69163,105.06299 c -3.27852,3.33382 -3.23398,8.69352 0.0998,11.97247 3.33374,3.27805 8.69402,3.23338 11.97235,-0.10021 3.27853,-3.33363 3.2339,-8.69373 -0.0999,-11.972 -3.3337,-3.27872 -8.69396,-3.23387 -11.97225,0.0997 z"
         sodipodi:nodetypes="scccs" />
    </g>
  </g>
  <path
     style="fill:#70c8d6"
     inkscape:connector-curvature="0"
     d="m 390.11237,298.91664 c -1.355,-18.80001 -10.466,-35.15901 -24.828,-45.18501 a 56.763,56.763 0 0 0 -8.874,-5.047 62.3,62.3 0 0 1 10.128,30.011 c 0.1,1.49 0.169,2.981 0.169,4.471 a 60.047,60.047 0 0 1 -86.272,54.12701 60.149,60.149 0 0 0 109.813,-33.94 c 0.033,-1.456 -0.035,-2.946 -0.136,-4.437 z"
     data-name="Path 29344"
     id="Path_29344" />
  <circle
     style="fill:#70c8d6"
     r="4.302"
     cy="279.16965"
     cx="315.32339"
     data-name="Ellipse 438"
     id="Ellipse_438" />
  <circle
     style="fill:#70c8d6"
     r="7.6890001"
     cy="294.68265"
     cx="327.68643"
     data-name="Ellipse 439"
     id="Ellipse_439" />
  <path
     style="fill:#b58fef"
     inkscape:connector-curvature="0"
     d="m 382.08437,304.33664 v 0.237 a 52.024,52.024 0 0 1 -88.914,36.209 51.182,51.182 0 0 1 -14.734,-30.925 v -0.034 a 51.188,51.188 0 0 1 26.488,-7.418 c 15.818,0.17 30.417,12.871 53.755,9.721 a 73.616,73.616 0 0 0 23.405,-7.79 z"
     data-name="Path 29347"
     id="Path_29347" />
  <path
     style="fill:#8c6acc"
     inkscape:connector-curvature="0"
     d="m 382.08437,304.33564 v 0.237 a 51.753,51.753 0 0 1 -51.96,51.553 c -14.5,0 -26.115,-4.471 -35.532,-13.955 12.092,2.066 48.369,0.474 64.831,-30.18 6.945,-0.914 13.889,-3.184 22.661,-7.655 z"
     data-name="Path 29348"
     id="Path_29348" />
  <circle
     style="fill:#8c6acc"
     transform="rotate(-36.869898)"
     r="7.757"
     cy="466.80338"
     cx="83.327744"
     data-name="Ellipse 440"
     id="Ellipse_440" />
  <circle
     style="fill:#8c6acc"
     r="4.302"
     cy="314.90366"
     cx="294.59341"
     data-name="Ellipse 441"
     id="Ellipse_441" />
  <g
     transform="translate(-5.7661168e-4,169.31963)"
     data-name="Group 1395"
     id="Group_1395">
    <path
       style="fill:#e8505b"
       inkscape:connector-curvature="0"
       transform="translate(-631.411,-204.162)"
       d="m 716.163,310.42 -41.763,-41.9 21.02,-38.582 c 21.02,-26.828 65.41,-25.168 65.41,-25.168 a 253.906,253.906 0 0 1 65.549,4.01 c 35.264,6.914 32.5,30.285 32.5,30.285 l 4.7,86.568 5.117,70.389 -130.129,2.627 -22.4,-88.228"
       data-name="Path 29013"
       id="Path_29013" />
    <path
       style="fill:#e8505b"
       inkscape:connector-curvature="0"
       transform="translate(-643.313,-191.666)"
       d="m 798.316,382 -116.577,1.383 c -28.073,0.277 -46.741,-28.764 -34.71,-54.071 l 49.922,-92.512 45.359,30.7 -30.977,64.3 94.451,1.66 z"
       data-name="Path 29014"
       id="Path_29014" />
    <path
       style="fill:#e8505b"
       inkscape:connector-curvature="0"
       transform="translate(-581.483,-198.443)"
       d="m 804.8,219.1 93.621,144.511 -54.624,3.6 c 0,0 -32.636,-51.443 -31.806,-50.337 1.245,1.932 -7.191,-97.774 -7.191,-97.774 z"
       data-name="Path 29015"
       id="Path_29015" />
    <path
       style="fill:#e8505b"
       inkscape:connector-curvature="0"
       transform="translate(-620.843,-173.02)"
       d="M 702,285.5"
       data-name="Path 29016"
       id="Path_29016" />
    <g
       transform="translate(81.018,17.615)"
       data-name="Group 1378"
       id="Group_1378">
      <path
         style="fill:#263238"
         inkscape:connector-curvature="0"
         transform="translate(-701.9,-216.9)"
         d="m 717.388,283.417 a 2.422,2.422 0 0 1 0.138,-0.691 c 0.138,-0.553 0.277,-1.245 0.553,-2.074 0.415,-1.8 1.106,-4.425 1.659,-7.744 a 103.681,103.681 0 0 0 1.8,-11.616 61.287,61.287 0 0 0 0,-14.244 36.179,36.179 0 0 0 -4.84,-13.276 61.492,61.492 0 0 0 -6.914,-9.4 65.928,65.928 0 0 0 -5.67,-5.532 c -1.383,-1.245 -2.213,-1.8 -2.213,-1.936 a 7.177,7.177 0 0 1 0.691,0.415 q 0.622,0.415 1.659,1.245 a 37.959,37.959 0 0 1 5.808,5.393 50.428,50.428 0 0 1 7.191,9.4 40.5,40.5 0 0 1 4.978,13.552 55.28,55.28 0 0 1 -0.138,14.382 c -0.553,4.425 -1.245,8.3 -1.936,11.616 -0.691,3.316 -1.383,5.946 -1.936,7.744 a 8.845,8.845 0 0 1 -0.691,2.074 1.678,1.678 0 0 1 -0.139,0.692 z"
         data-name="Path 29017"
         id="Path_29017" />
    </g>
    <g
       transform="translate(67.743,89.11)"
       data-name="Group 1379"
       id="Group_1379">
      <path
         style="fill:#263238"
         inkscape:connector-curvature="0"
         transform="translate(-692.3,-268.6)"
         d="m 717.33,268.6 c 0,0 -0.277,0.83 -0.83,2.074 -0.553,1.383 -1.383,3.181 -2.489,5.532 -2.074,4.7 -5.117,11.2 -8.574,18.254 -3.457,7.054 -6.776,13.414 -9.127,17.977 -1.245,2.213 -2.213,4.149 -2.9,5.393 -0.687,1.244 -1.106,1.936 -1.106,1.936 0,0 0.277,-0.691 0.968,-2.074 0.691,-1.383 1.659,-3.181 2.766,-5.393 l 8.989,-17.978 c 3.457,-7.053 6.5,-13.414 8.712,-18.116 1.106,-2.213 1.936,-4.01 2.628,-5.532 a 15.949,15.949 0 0 1 0.963,-2.073 z"
         data-name="Path 29018"
         id="Path_29018" />
    </g>
    <g
       transform="translate(41.191,139.723)"
       data-name="Group 1380"
       id="Group_1380">
      <path
         style="fill:#263238"
         inkscape:connector-curvature="0"
         transform="translate(-673.1,-305.2)"
         d="m 786.911,355.813 v -0.968 c 0,-0.691 0.138,-1.521 0.277,-2.766 0.276,-2.489 0.691,-5.946 1.106,-10.372 0.968,-8.989 2.489,-21.573 4.149,-36.37 l 0.277,0.415 h -34.434 c -23.509,0 -44.805,-0.138 -60.294,-0.138 -7.606,0 -13.967,-0.138 -18.254,-0.138 v 0 c 4.425,0 10.648,0 18.254,-0.138 15.488,0 36.785,0 60.294,-0.138 h 34.849 v 0.415 c -1.8,14.8 -3.319,27.381 -4.425,36.37 -0.553,4.425 -0.968,7.882 -1.383,10.372 -0.138,1.106 -0.277,2.074 -0.415,2.766 a 5.994,5.994 0 0 1 -0.138,0.691 c 0.137,-0.139 0.137,-0.001 0.137,-0.001 z"
         data-name="Path 29019"
         id="Path_29019" />
    </g>
    <g
       transform="translate(49.489,124.901)"
       data-name="Group 1381"
       id="Group_1381">
      <path
         style="fill:#263238"
         inkscape:connector-curvature="0"
         transform="translate(-679.1,-294.481)"
         d="m 698.322,310.687 c -0.138,0 -0.83,-1.106 -2.351,-2.9 a 43.719,43.719 0 0 0 -6.223,-6.361 51.676,51.676 0 0 0 -7.329,-5.117 c -1.936,-1.106 -3.319,-1.659 -3.319,-1.8 0,-0.141 1.383,0.277 3.457,1.383 a 35.1,35.1 0 0 1 7.606,4.978 37.787,37.787 0 0 1 6.223,6.638 c 1.383,1.934 2.074,3.179 1.936,3.179 z"
         data-name="Path 29020"
         id="Path_29020" />
    </g>
    <g
       transform="translate(226.774,31.444)"
       data-name="Group 1382"
       id="Group_1382">
      <path
         style="fill:#263238"
         inkscape:connector-curvature="0"
         transform="translate(-807.3,-226.9)"
         d="m 814.629,345.69 a 4.341,4.341 0 0 1 -0.138,-1.245 c -0.138,-0.83 -0.276,-1.936 -0.415,-3.457 -0.277,-3.042 -0.691,-7.329 -1.245,-12.723 -0.968,-10.648 -2.074,-25.583 -3.042,-41.9 -0.968,-16.317 -1.66,-31.253 -2.075,-42.04 -0.138,-5.393 -0.276,-9.68 -0.415,-12.723 v -4.7 a 8.535,8.535 0 0 0 0.138,1.245 c 0,0.83 0.138,2.074 0.138,3.457 0.138,3.042 0.415,7.468 0.553,12.723 0.553,10.787 1.245,25.583 2.213,41.9 0.968,16.317 1.936,31.253 2.766,41.9 0.415,5.255 0.692,9.68 0.968,12.723 0.138,1.383 0.138,2.628 0.276,3.457 a 5.855,5.855 0 0 1 0.278,1.383 z"
         data-name="Path 29021"
         id="Path_29021" />
    </g>
    <g
       transform="translate(114.899,34.071)"
       data-name="Group 1383"
       id="Group_1383">
      <path
         style="fill:#e0e0e0"
         inkscape:connector-curvature="0"
         transform="translate(-726.4,-228.8)"
         d="m 741.473,266.414 c 0,0 0,-0.691 0.138,-1.936 0.138,-1.383 0.415,-3.042 0.691,-5.255 0.553,-4.564 1.383,-10.786 2.351,-18.116 l 0.553,0.277 c -2.766,1.936 -5.808,4.01 -8.989,6.223 -3.181,2.213 -6.223,4.425 -9.127,6.361 l -0.691,0.415 0.138,-0.83 c 1.106,-7.191 2.074,-13.414 2.766,-17.839 0.415,-2.074 0.691,-3.872 0.83,-5.117 0.277,-1.245 0.277,-1.8 0.415,-1.8 0,0 0,0.691 -0.138,1.936 -0.138,1.245 -0.415,3.042 -0.691,5.255 -0.691,4.564 -1.521,10.786 -2.489,17.978 l -0.553,-0.277 c 2.766,-1.936 5.946,-4.149 9.127,-6.361 3.181,-2.212 6.223,-4.287 8.989,-6.223 l 0.691,-0.415 -0.138,0.83 c -1.106,7.191 -1.936,13.414 -2.627,17.978 -0.277,2.213 -0.553,3.872 -0.83,5.255 -0.139,0.97 -0.277,1.661 -0.416,1.661 z"
         data-name="Path 29022"
         id="Path_29022" />
    </g>
    <g
       transform="translate(146.264,57.58)"
       data-name="Group 1384"
       id="Group_1384">
      <path
         style="fill:#e0e0e0"
         inkscape:connector-curvature="0"
         transform="translate(-749.081,-245.8)"
         d="m 784.924,265.437 a 9.962,9.962 0 0 1 -1.383,-1.383 c -0.968,-0.968 -2.074,-2.213 -3.6,-3.872 -3.181,-3.319 -7.468,-8.021 -12.308,-13.414 l 0.553,-0.138 c -0.277,3.457 -0.553,7.053 -0.968,10.925 -0.277,3.872 -0.691,7.606 -0.968,11.063 v 0.83 l -0.553,-0.553 c -4.84,-5.393 -8.989,-10.1 -12.031,-13.552 -1.383,-1.659 -2.628,-2.9 -3.457,-4.01 -0.83,-0.968 -1.245,-1.383 -1.106,-1.521 a 9.975,9.975 0 0 1 1.383,1.383 c 0.968,0.968 2.074,2.213 3.6,3.872 3.042,3.319 7.329,8.021 12.169,13.414 l -0.553,0.138 c 0.276,-3.457 0.553,-7.191 0.968,-11.063 0.276,-3.872 0.691,-7.468 0.968,-10.925 v -0.83 l 0.553,0.553 c 4.84,5.393 9.127,10.1 12.169,13.552 1.383,1.66 2.628,2.9 3.457,4.01 0.692,0.968 1.107,1.521 1.107,1.521 z"
         data-name="Path 29023"
         id="Path_29023" />
    </g>
    <g
       transform="translate(193.723,75.419)"
       data-name="Group 1385"
       id="Group_1385">
      <path
         style="fill:#e0e0e0"
         inkscape:connector-curvature="0"
         transform="translate(-783.4,-258.7)"
         d="m 797.92,258.7 c 0,0 -0.276,0.553 -0.968,1.66 -0.692,1.107 -1.659,2.627 -2.766,4.425 -2.489,3.872 -5.946,9.127 -9.818,15.35 l -0.277,-0.553 c 3.319,-0.553 7.053,-1.245 10.786,-1.8 3.872,-0.691 7.468,-1.245 10.925,-1.8 l 0.83,-0.138 -0.415,0.691 c -4.01,6.085 -7.606,11.2 -10.1,15.073 -1.245,1.8 -2.213,3.181 -2.9,4.287 -0.692,0.968 -1.106,1.521 -1.106,1.521 0,0 0.276,-0.553 0.968,-1.659 0.692,-1.106 1.66,-2.628 2.766,-4.425 2.489,-3.872 5.946,-9.127 9.818,-15.212 l 0.276,0.553 c -3.457,0.553 -7.052,1.245 -10.925,1.936 -3.734,0.691 -7.468,1.245 -10.786,1.8 l -0.83,0.138 0.415,-0.691 c 4.01,-6.085 7.468,-11.34 10.1,-15.212 1.245,-1.8 2.213,-3.319 2.9,-4.287 0.692,-1.104 1.107,-1.657 1.107,-1.657 z"
         data-name="Path 29024"
         id="Path_29024" />
    </g>
    <g
       transform="translate(158.875,102.247)"
       data-name="Group 1386"
       id="Group_1386">
      <path
         style="fill:#e0e0e0"
         inkscape:connector-curvature="0"
         transform="translate(-758.2,-278.1)"
         d="m 772.72,278.1 c 0,0 -0.276,0.553 -0.968,1.659 -0.692,1.106 -1.66,2.628 -2.766,4.425 -2.489,3.872 -5.946,9.127 -9.818,15.35 l -0.277,-0.553 c 3.319,-0.553 7.053,-1.245 10.786,-1.8 3.872,-0.691 7.468,-1.245 10.925,-1.8 l 0.83,-0.138 -0.415,0.691 c -4.01,6.085 -7.606,11.2 -10.1,15.073 -1.245,1.8 -2.213,3.181 -2.9,4.287 -0.691,0.968 -1.106,1.521 -1.106,1.521 0,0 0.277,-0.553 0.968,-1.659 0.691,-1.106 1.659,-2.628 2.766,-4.425 2.489,-3.872 5.946,-9.127 9.818,-15.212 l 0.277,0.553 c -3.457,0.553 -7.053,1.245 -10.925,1.936 -3.734,0.691 -7.468,1.245 -10.786,1.8 l -0.83,0.138 0.415,-0.691 c 4.01,-6.085 7.468,-11.34 10.095,-15.212 1.245,-1.8 2.213,-3.319 2.9,-4.287 a 8.292,8.292 0 0 1 1.111,-1.656 z"
         data-name="Path 29025"
         id="Path_29025" />
    </g>
    <g
       transform="translate(234.242,75.004)"
       data-name="Group 1387"
       id="Group_1387">
      <path
         style="fill:#e0e0e0"
         inkscape:connector-curvature="0"
         transform="translate(-812.7,-258.4)"
         d="m 827.22,258.4 c 0,0 -0.277,0.553 -0.968,1.659 -0.691,1.106 -1.66,2.628 -2.766,4.425 -2.489,3.872 -5.946,9.127 -9.818,15.35 l -0.276,-0.553 c 3.319,-0.553 7.053,-1.245 10.786,-1.8 3.872,-0.691 7.468,-1.245 10.925,-1.8 l 0.83,-0.138 -0.415,0.691 c -4.01,6.085 -7.606,11.2 -10.1,15.073 -1.245,1.8 -2.213,3.181 -2.9,4.287 -0.691,0.968 -1.106,1.521 -1.106,1.521 0,0 0.277,-0.553 0.968,-1.66 0.691,-1.107 1.659,-2.627 2.766,-4.425 2.489,-3.872 5.946,-9.127 9.818,-15.212 l 0.276,0.553 c -3.457,0.553 -7.053,1.245 -10.925,1.936 -3.734,0.691 -7.468,1.245 -10.786,1.8 l -0.83,0.138 0.415,-0.691 c 4.01,-6.085 7.468,-11.34 10.1,-15.212 1.245,-1.8 2.213,-3.319 2.9,-4.287 0.553,-1.102 0.968,-1.655 1.106,-1.655 z"
         data-name="Path 29026"
         id="Path_29026" />
    </g>
    <g
       transform="translate(57.924,52.878)"
       data-name="Group 1388"
       id="Group_1388">
      <path
         style="fill:#e0e0e0"
         inkscape:connector-curvature="0"
         transform="translate(-685.2,-242.4)"
         d="m 699.72,242.4 c 0,0 -0.277,0.553 -0.968,1.659 -0.691,1.106 -1.659,2.627 -2.766,4.425 -2.489,3.872 -5.946,9.127 -9.818,15.35 l -0.277,-0.553 c 3.319,-0.553 7.053,-1.245 10.786,-1.8 3.872,-0.691 7.468,-1.245 10.925,-1.8 l 0.83,-0.138 -0.415,0.691 c -4.01,6.085 -7.606,11.2 -10.1,15.073 -1.245,1.8 -2.213,3.181 -2.9,4.287 -0.691,0.968 -1.106,1.521 -1.106,1.521 0,0 0.277,-0.553 0.968,-1.659 0.691,-1.106 1.659,-2.627 2.766,-4.425 2.489,-3.872 5.946,-9.127 9.818,-15.212 l 0.277,0.553 c -3.457,0.553 -7.053,1.245 -10.925,1.936 -3.734,0.691 -7.468,1.245 -10.786,1.8 l -0.83,0.138 0.415,-0.691 c 4.01,-6.085 7.468,-11.34 10.095,-15.212 1.245,-1.8 2.213,-3.319 2.9,-4.287 0.696,-1.103 1.111,-1.656 1.111,-1.656 z"
         data-name="Path 29027"
         id="Path_29027" />
    </g>
    <g
       transform="translate(17.821,153.414)"
       data-name="Group 1389"
       id="Group_1389">
      <path
         style="fill:#e0e0e0"
         inkscape:connector-curvature="0"
         transform="translate(-656.2,-315.1)"
         d="m 656.2,318 c 0,0 0.415,0.415 1.245,1.383 0.83,0.968 1.936,2.351 3.319,4.01 2.9,3.6 6.914,8.436 11.478,14.105 l -0.553,0.138 c 0.553,-3.319 0.968,-7.053 1.521,-10.786 0.553,-3.872 1.106,-7.606 1.659,-10.925 l 0.138,-0.83 0.553,0.691 c 4.425,5.67 8.3,10.648 11.2,14.244 1.245,1.66 2.351,3.181 3.181,4.149 0.691,0.968 1.106,1.521 1.106,1.521 0,0 -0.415,-0.415 -1.245,-1.383 -0.83,-0.968 -1.936,-2.351 -3.319,-4.01 -2.9,-3.6 -6.776,-8.436 -11.34,-14.105 l 0.553,-0.138 c -0.553,3.457 -1.106,7.053 -1.659,10.925 -0.553,3.734 -1.106,7.468 -1.66,10.786 l -0.138,0.83 -0.553,-0.553 c -4.564,-5.67 -8.436,-10.648 -11.34,-14.244 -1.383,-1.659 -2.351,-3.181 -3.181,-4.149 C 656.477,318.557 656.2,318 656.2,318 Z"
         data-name="Path 29028"
         id="Path_29028" />
    </g>
    <g
       transform="translate(108.123,89.325)"
       data-name="Group 1390"
       id="Group_1390">
      <path
         style="fill:#e0e0e0"
         inkscape:connector-curvature="0"
         transform="translate(-721.5,-268.756)"
         d="m 756.072,268.817 c 0,0 -0.691,0.138 -1.936,0.277 -1.383,0.138 -3.042,0.277 -5.255,0.415 -4.563,0.277 -10.925,0.83 -18.116,1.383 l 0.277,-0.553 c 2.489,2.351 5.117,4.84 8.021,7.468 2.766,2.627 5.531,5.255 8.021,7.606 l 0.553,0.553 h -0.83 c -7.191,0.415 -13.552,0.691 -18.116,0.968 -2.213,0.138 -3.872,0.138 -5.255,0.277 H 721.5 c 0,0 0.692,-0.138 1.936,-0.277 1.383,-0.138 3.042,-0.277 5.255,-0.415 4.564,-0.277 10.787,-0.691 18.116,-1.245 l -0.277,0.553 c -2.489,-2.351 -5.255,-4.978 -8.021,-7.606 -2.766,-2.628 -5.532,-5.117 -7.883,-7.468 l -0.553,-0.553 h 0.83 c 7.329,-0.415 13.552,-0.83 18.116,-1.106 2.213,-0.138 3.872,-0.138 5.255,-0.277 1.106,0 1.798,-0.138 1.798,0 z"
         data-name="Path 29029"
         id="Path_29029" />
    </g>
    <g
       transform="translate(111.995,155.903)"
       data-name="Group 1391"
       id="Group_1391">
      <path
         style="fill:#e0e0e0"
         inkscape:connector-curvature="0"
         transform="translate(-724.3,-316.9)"
         d="m 724.3,320.081 a 6.715,6.715 0 0 1 1.245,1.383 c 0.83,0.968 2.074,2.351 3.457,4.01 3.042,3.457 7.053,8.3 11.754,13.967 l -0.553,0.138 c 0.415,-3.319 0.83,-7.053 1.383,-10.786 0.553,-3.872 0.968,-7.606 1.383,-11.063 l 0.138,-0.83 0.553,0.553 c 4.564,5.67 8.574,10.51 11.478,14.105 q 2.074,2.489 3.319,4.149 c 0.691,0.968 1.106,1.521 1.106,1.521 0,0 -0.415,-0.415 -1.245,-1.383 -0.83,-0.968 -1.936,-2.351 -3.457,-4.01 -2.9,-3.457 -6.914,-8.3 -11.616,-13.829 l 0.553,-0.138 c -0.415,3.457 -0.968,7.191 -1.383,11.063 -0.553,3.734 -0.968,7.468 -1.383,10.786 l -0.138,0.83 -0.553,-0.553 c -4.7,-5.67 -8.712,-10.51 -11.616,-14.105 q -2.074,-2.489 -3.319,-4.149 c -0.691,-1.106 -1.106,-1.659 -1.106,-1.659 z"
         data-name="Path 29030"
         id="Path_29030" />
    </g>
    <g
       transform="translate(22.661,107.917)"
       data-name="Group 1392"
       id="Group_1392">
      <path
         style="fill:#e0e0e0"
         inkscape:connector-curvature="0"
         transform="translate(-659.7,-282.2)"
         d="m 694.272,282.2 c 0,0 -0.691,0.138 -1.936,0.277 -1.383,0.138 -3.042,0.277 -5.255,0.415 -4.564,0.277 -10.925,0.83 -18.116,1.383 l 0.277,-0.553 c 2.489,2.351 5.117,4.84 8.021,7.468 2.766,2.628 5.532,5.255 8.021,7.606 l 0.553,0.553 h -0.83 c -7.191,0.415 -13.552,0.691 -18.116,0.968 -2.213,0.138 -3.872,0.138 -5.255,0.277 H 659.7 c 0,0 0.691,-0.138 1.936,-0.277 1.383,-0.138 3.042,-0.277 5.255,-0.415 4.563,-0.277 10.786,-0.691 18.116,-1.245 l -0.277,0.553 c -2.489,-2.351 -5.255,-4.978 -8.021,-7.606 -2.766,-2.628 -5.531,-5.117 -7.882,-7.468 l -0.553,-0.553 h 0.83 c 7.329,-0.415 13.552,-0.83 18.116,-1.106 2.213,-0.138 3.872,-0.138 5.255,-0.277 z"
         data-name="Path 29031"
         id="Path_29031" />
    </g>
    <g
       transform="translate(69.679,157.424)"
       data-name="Group 1393"
       id="Group_1393">
      <path
         style="fill:#e0e0e0"
         inkscape:connector-curvature="0"
         transform="translate(-693.7,-318)"
         d="m 728.272,318 c 0,0 -0.691,0.138 -1.936,0.277 -1.383,0.138 -3.042,0.277 -5.255,0.415 -4.563,0.277 -10.925,0.83 -18.116,1.383 l 0.276,-0.553 c 2.489,2.351 5.117,4.84 8.021,7.468 2.766,2.628 5.532,5.255 8.021,7.606 l 0.553,0.553 h -0.83 c -7.191,0.415 -13.552,0.691 -18.116,0.968 -2.212,0.138 -3.872,0.138 -5.255,0.277 H 693.7 c 0,0 0.691,-0.138 1.936,-0.277 1.383,-0.138 3.042,-0.277 5.255,-0.415 4.564,-0.277 10.787,-0.691 18.116,-1.245 l -0.277,0.553 c -2.489,-2.351 -5.255,-4.978 -8.021,-7.606 -2.766,-2.628 -5.531,-5.117 -7.883,-7.468 l -0.553,-0.553 h 0.83 c 7.329,-0.415 13.552,-0.83 18.116,-1.106 2.213,-0.138 3.872,-0.138 5.255,-0.277 z"
         data-name="Path 29032"
         id="Path_29032" />
    </g>
    <g
       transform="translate(175.884,31.444)"
       data-name="Group 1394"
       id="Group_1394">
      <path
         style="fill:#e0e0e0"
         inkscape:connector-curvature="0"
         transform="translate(-770.5,-226.9)"
         d="m 805.072,226.9 c 0,0 -0.691,0.138 -1.936,0.277 -1.383,0.138 -3.042,0.277 -5.255,0.415 -4.563,0.277 -10.925,0.83 -18.116,1.383 l 0.277,-0.553 c 2.489,2.351 5.117,4.84 8.021,7.468 2.766,2.627 5.532,5.255 8.021,7.606 l 0.553,0.553 h -0.83 c -7.191,0.415 -13.552,0.691 -18.116,0.968 -2.213,0.138 -3.872,0.138 -5.255,0.277 H 770.5 c 0,0 0.691,-0.138 1.936,-0.277 1.383,-0.138 3.042,-0.277 5.255,-0.415 4.563,-0.277 10.786,-0.691 18.116,-1.245 l -0.277,0.553 c -2.489,-2.351 -5.255,-4.978 -8.021,-7.606 -2.766,-2.628 -5.532,-5.117 -7.883,-7.468 l -0.553,-0.553 h 0.83 c 7.329,-0.415 13.552,-0.83 18.116,-1.106 2.213,-0.138 3.872,-0.138 5.255,-0.277 z"
         data-name="Path 29033"
         id="Path_29033" />
    </g>
  </g>
  <g
     transform="translate(155.83137,317.96264)"
     data-name="Group 1399"
     id="Group_1399">
    <path
       style="fill:#e39770;fill-opacity:1"
       inkscape:connector-curvature="0"
       transform="translate(-756,-311.65)"
       d="m 759.042,320.431 c 0,0 23.232,-6.638 30.977,-8.712 3.042,-0.83 15.9,5.946 24.754,11.616 0,0 12.169,7.191 11.2,9.542 -1.106,2.489 -5.532,1.936 -12.723,-1.383 0,0 2.489,7.329 -2.351,7.191 0,0 2.489,7.882 -2.213,8.712 -4.563,0.83 -5.67,-9.265 -9.818,-9.819 -4.01,-0.553 -12.446,-1.106 -12.446,-1.106 0,0 -7.053,11.616 -12.446,12.446 -5.393,0.83 -17.976,-0.691 -17.976,-0.691 z"
       data-name="Path 29034"
       id="Path_29034" />
    <g
       transform="translate(42.488,10.078)"
       data-name="Group 1396"
       id="Group_1396">
      <ellipse
         style="fill:#eb996e"
         transform="matrix(0.533,-0.846,0.846,0.533,0,0.702)"
         ry="7.4679999"
         rx="0.41499999"
         cy="7.4679999"
         cx="0.41499999"
         data-name="Ellipse 370"
         id="Ellipse_370" />
    </g>
    <g
       transform="translate(41.317,14.504)"
       data-name="Group 1397"
       id="Group_1397">
      <ellipse
         style="fill:#eb996e"
         transform="matrix(0.419,-0.908,0.908,0.419,0,0.753)"
         ry="8.2969999"
         rx="0.41499999"
         cy="8.2969999"
         cx="0.41499999"
         data-name="Ellipse 371"
         id="Ellipse_371" />
    </g>
    <g
       transform="translate(43.806,25.373)"
       data-name="Group 1398"
       id="Group_1398">
      <ellipse
         style="fill:#eb996e"
         transform="rotate(-82.195,0.47117965,0.411)"
         ry="5.2550001"
         rx="0.41499999"
         cy="5.2550001"
         cx="0.41499999"
         data-name="Ellipse 372"
         id="Ellipse_372" />
    </g>
  </g>
  <path
     style="fill:#263238"
     inkscape:connector-curvature="0"
     d="m 128.58937,86.813636 a 5.1,5.1 0 0 1 -1.521,5.117 4.841,4.841 0 0 1 -5.255,0.553 c -3.181,-1.659 -3.6,-5.946 -2.9,-9.4 0.553,-3.457 1.8,-7.191 0.276,-10.372 -1.106,-2.489 -3.6,-4.01 -5.393,-5.946 a 15.518,15.518 0 0 1 -4.287,-13 12.764,12.764 0 0 1 8.85,-10.1 c 4.564,-1.245 10.372,0.138 13.829,-3.181 2.489,-2.489 2.628,-6.361 4.564,-9.265 3.042,-4.564 9.4,-5.255 14.659,-4.425 5.393,0.691 10.786,2.489 16.041,1.106 4.425,-1.106 8.021,-4.149 12.031,-6.085 a 24.441,24.441 0 0 1 27.1,5.255 c 6.776,7.053 8.3,18.531 3.872,27.243 a 15.7,15.7 0 0 1 -7.329,7.329"
     data-name="Path 29035"
     id="Path_29035" />
  <g
     id="Group_1414"
     data-name="Group 1414"
     transform="translate(127.06737,47.750636)">
    <g
       id="Group_1413"
       data-name="Group 1413">
      <g
         id="Group_1400"
         data-name="Group 1400">
        <path
           id="Path_29036"
           data-name="Path 29036"
           d="m 763.411,269.541 v 0 a 26.765,26.765 0 0 0 26.69,-26.966 l -0.415,-25.445 c 0,0 21.3,-2.074 22.818,-23.232 1.383,-21.158 0.415,-69.974 0.415,-69.974 v 0 a 73.656,73.656 0 0 0 -74.4,5.255 l -3.319,2.213 1.659,111.875 a 26.412,26.412 0 0 0 26.552,26.274 z"
           transform="translate(-735.2,-116.253)"
           inkscape:connector-curvature="0"
           style="fill:#e39770;fill-opacity:1" />
      </g>
      <g
         id="Group_1404"
         data-name="Group 1404"
         transform="translate(65.523,35.722)">
        <g
           id="Group_1401"
           data-name="Group 1401"
           transform="translate(3.725,3.755)">
          <path
             id="Path_29037"
             data-name="Path 29037"
             d="m 788.075,151.161 c -3.734,-0.691 -3.734,-5.532 0,-6.361 h 0.553 c 3.734,0.691 3.734,5.532 0,6.361 z"
             transform="translate(-785.275,-144.8)"
             inkscape:connector-curvature="0"
             style="fill:#263238" />
        </g>
        <g
           id="Group_1403"
           data-name="Group 1403">
          <g
             id="Group_1402"
             data-name="Group 1402">
            <path
               id="Path_29038"
               data-name="Path 29038"
               d="m 793.255,145.425 c -0.415,0.415 -2.351,-1.383 -5.255,-1.521 -2.9,-0.277 -5.117,1.245 -5.393,0.83 -0.138,-0.138 0.277,-0.83 1.245,-1.521 a 6.592,6.592 0 0 1 4.287,-1.106 7.687,7.687 0 0 1 4.149,1.659 c 0.829,0.834 1.106,1.521 0.967,1.659 z"
               transform="translate(-782.581,-142.085)"
               inkscape:connector-curvature="0"
               style="fill:#263238" />
          </g>
        </g>
      </g>
      <g
         id="Group_1408"
         data-name="Group 1408"
         transform="translate(33.716,36.552)">
        <g
           id="Group_1405"
           data-name="Group 1405"
           transform="translate(2.706,1.659)">
          <circle
             id="Ellipse_373"
             data-name="Ellipse 373"
             cx="3.0420001"
             cy="3.0420001"
             r="3.0420001"
             transform="rotate(-55.29,4.7748341,2.501)"
             style="fill:#263238" />
        </g>
        <g
           id="Group_1407"
           data-name="Group 1407">
          <g
             id="Group_1406"
             data-name="Group 1406">
            <path
               id="Path_29039"
               data-name="Path 29039"
               d="m 770.255,146.025 c -0.415,0.415 -2.351,-1.383 -5.255,-1.521 -2.9,-0.277 -5.117,1.245 -5.393,0.83 -0.138,-0.138 0.277,-0.83 1.245,-1.521 a 6.592,6.592 0 0 1 4.287,-1.106 7.687,7.687 0 0 1 4.149,1.659 c 0.829,0.834 1.106,1.521 0.967,1.659 z"
               transform="translate(-759.581,-142.685)"
               inkscape:connector-curvature="0"
               style="fill:#263238" />
          </g>
        </g>
      </g>
      <g
         id="Group_1410"
         data-name="Group 1410"
         transform="translate(54.426,39.199)">
        <g
           id="Group_1409"
           data-name="Group 1409">
          <path
             id="Path_29040"
             data-name="Path 29040"
             d="m 774.893,170.046 c 0,-0.277 1.8,-0.553 4.7,-0.691 0.83,0 1.383,-0.138 1.521,-0.553 a 5.352,5.352 0 0 0 -0.415,-2.213 c -0.691,-1.936 -1.245,-4.01 -1.936,-6.085 -2.766,-8.574 -4.563,-15.765 -4.149,-15.9 0.414,-0.135 3.042,6.776 5.67,15.35 0.691,2.074 1.245,4.149 1.8,6.085 a 4.793,4.793 0 0 1 0.276,3.181 1.837,1.837 0 0 1 -1.383,1.106 4.764,4.764 0 0 1 -1.245,0.138 c -3.041,-0.004 -4.839,-0.142 -4.839,-0.418 z"
             transform="translate(-774.557,-144.599)"
             inkscape:connector-curvature="0"
             style="fill:#263238" />
        </g>
      </g>
      <g
         id="Group_1411"
         data-name="Group 1411"
         transform="translate(44.841,67.412)">
        <path
           id="Path_29041"
           data-name="Path 29041"
           d="m 767.867,165 a 53.516,53.516 0 0 0 14.105,4.978 c 0,0 -3.734,5.255 -9.68,2.627 C 766.069,169.84 767.867,165 767.867,165 Z"
           transform="translate(-767.626,-165)"
           inkscape:connector-curvature="0"
           style="fill:#ffffff" />
      </g>
      <g
         id="Group_1412"
         data-name="Group 1412"
         transform="translate(27.243,91.059)">
        <path
           id="Path_29042"
           data-name="Path 29042"
           d="m 782.143,191.5 c 0,0 -13.414,0.415 -27.243,-9.4 0,0 5.67,15.627 26.966,14.8 z"
           transform="translate(-754.9,-182.1)"
           inkscape:connector-curvature="0"
           style="fill:#e67940;fill-opacity:1" />
      </g>
    </g>
  </g>
  <path
     style="fill:#263238"
     inkscape:connector-curvature="0"
     d="m 204.78637,60.677636 c 0,0 -12.722,6.5 -29.732,-1.521 -11.063,-5.255 -24.062,-7.744 -26.828,-5.393 -2.766,2.213 -3.181,13.691 -13.967,17.148 0,0 1.106,21.711 -7.468,21.02 -8.712,-0.553 -3.872,-34.3 -3.872,-34.3 l 20.882,-10.786 22.956,-4.84 21.85,2.627 16.871,4.287 z"
     data-name="Path 29043"
     id="Path_29043" />
  <g
     transform="translate(113.78837,83.943636)"
     data-name="Group 1419"
     id="Group_1419">
    <g
       data-name="Group 1416"
       id="Group_1416">
      <path
         style="fill:#e39770;fill-opacity:1"
         inkscape:connector-curvature="0"
         transform="translate(-725.597,-142.425)"
         d="m 740.259,143.358 c -0.415,-0.138 -14.382,-5.117 -14.658,9.4 -0.276,14.517 14.244,11.893 14.382,11.478 0,-0.411 0.276,-20.878 0.276,-20.878 z"
         data-name="Path 29044"
         id="Path_29044" />
    </g>
    <g
       transform="translate(3.737,4.529)"
       data-name="Group 1418"
       id="Group_1418">
      <g
         data-name="Group 1417"
         id="Group_1417">
        <path
           style="fill:#e67940;fill-opacity:1"
           inkscape:connector-curvature="0"
           transform="translate(-728.3,-145.7)"
           d="m 734.523,157.316 a 7.177,7.177 0 0 0 -0.691,0.415 3.015,3.015 0 0 1 -1.936,0 c -1.521,-0.553 -2.766,-3.042 -2.766,-5.67 a 7.276,7.276 0 0 1 0.83,-3.6 2.713,2.713 0 0 1 1.936,-1.936 1.392,1.392 0 0 1 1.521,0.691 2.423,2.423 0 0 1 0.138,0.691 1.211,1.211 0 0 0 0.277,-0.83 1.757,1.757 0 0 0 -0.553,-0.968 2.065,2.065 0 0 0 -1.383,-0.415 3.283,3.283 0 0 0 -2.627,2.213 9.03,9.03 0 0 0 -0.968,4.01 c 0,2.9 1.521,5.67 3.6,6.361 a 3.091,3.091 0 0 0 2.351,-0.277 c 0.271,-0.27 0.409,-0.685 0.271,-0.685 z"
           data-name="Path 29045"
           id="Path_29045" />
      </g>
    </g>
  </g>
  <g
     transform="translate(120.97737,39.150636)"
     data-name="Group 1420"
     id="Group_1420">
    <path
       style="fill:#263238"
       inkscape:connector-curvature="0"
       transform="translate(-730.796,-110.034)"
       d="m 730.8,110.4 c -0.138,-0.138 2.351,-0.83 4.978,0.138 2.766,0.968 4.149,3.042 3.872,3.181 -0.138,0.138 -1.659,-1.521 -4.149,-2.489 A 15.925,15.925 0 0 0 730.8,110.4 Z"
       data-name="Path 29046"
       id="Path_29046" />
  </g>
  <g
     transform="translate(129.20737,30.806636)"
     data-name="Group 1421"
     id="Group_1421">
    <path
       style="fill:#263238"
       inkscape:connector-curvature="0"
       transform="translate(-736.747,-104)"
       d="m 737.235,104 c 0.276,0 -0.138,3.042 0.415,6.638 0.553,3.596 2.213,6.223 2.074,6.361 a 10.13,10.13 0 0 1 -1.245,-1.659 15.992,15.992 0 0 1 -1.521,-4.564 15.356,15.356 0 0 1 0.277,-6.776 z"
       data-name="Path 29047"
       id="Path_29047" />
  </g>
  <g
     transform="translate(189.28037,77.963636)"
     data-name="Group 1422"
     id="Group_1422">
    <path
       style="fill:#263238"
       inkscape:connector-curvature="0"
       transform="translate(-780.187,-138.1)"
       d="m 780.2,140.036 c -0.138,-0.138 0.553,-0.691 1.659,-1.106 a 14.554,14.554 0 0 1 4.84,-0.83 11.52,11.52 0 0 1 4.84,0.968 c 1.106,0.553 1.8,0.968 1.659,1.245 -0.138,0.415 -2.9,-0.691 -6.5,-0.691 -3.451,-0.277 -6.355,0.829 -6.498,0.414 z"
       data-name="Path 29048"
       id="Path_29048" />
  </g>
  <g
     transform="translate(156.92037,74.920636)"
     data-name="Group 1423"
     id="Group_1423">
    <path
       style="fill:#263238"
       inkscape:connector-curvature="0"
       transform="translate(-756.787,-135.9)"
       d="m 756.8,137.836 c -0.138,-0.138 0.553,-0.691 1.66,-1.106 a 14.553,14.553 0 0 1 4.84,-0.83 11.521,11.521 0 0 1 4.84,0.968 c 1.106,0.553 1.8,0.968 1.659,1.245 -0.138,0.415 -2.9,-0.691 -6.5,-0.691 -3.452,-0.277 -6.218,0.829 -6.499,0.414 z"
       data-name="Path 29049"
       id="Path_29049" />
  </g>
  <g
     id="Group_1429"
     data-name="Group 1429"
     transform="translate(126.38037,81.005636)">
    <g
       id="Group_1425"
       data-name="Group 1425"
       transform="translate(59.963,0.83)">
      <path
         id="Path_29050"
         data-name="Path 29050"
         d="m 778.529,141.315 v 0.83 a 15.986,15.986 0 0 0 0.138,2.351 35.068,35.068 0 0 0 0.138,3.6 14.9,14.9 0 0 0 0.691,4.7 12.333,12.333 0 0 0 3.042,4.84 13.459,13.459 0 0 0 5.67,3.181 10.293,10.293 0 0 0 3.6,0.277 8.068,8.068 0 0 0 3.6,-0.83 11.953,11.953 0 0 0 5.946,-4.84 12.133,12.133 0 0 0 1.936,-7.053 v -7.191 l 0.277,0.277 c -7.191,0 -13.414,-0.138 -17.977,-0.138 -2.213,0 -3.872,0 -5.255,-0.138 h -1.383 a 0.683,0.683 0 0 1 -0.415,0.138 c 0,0 0.553,0 1.8,-0.138 1.245,0 3.042,0 5.117,-0.138 4.563,0 10.786,-0.138 18.116,-0.138 h 0.277 v 7.468 a 12.278,12.278 0 0 1 -2.074,7.468 13.5,13.5 0 0 1 -6.361,5.117 17.509,17.509 0 0 1 -3.872,0.83 8.659,8.659 0 0 1 -3.734,-0.415 12.6,12.6 0 0 1 -5.946,-3.319 14.372,14.372 0 0 1 -3.181,-5.117 12.414,12.414 0 0 1 -0.553,-4.84 31.282,31.282 0 0 1 0.138,-3.734 11.932,11.932 0 0 1 0.138,-2.351 c 0.127,-0.559 0.127,-0.835 0.127,-0.697 z"
         transform="translate(-778.064,-140.9)"
         inkscape:connector-curvature="0"
         style="fill:#263238" />
    </g>
    <g
       id="Group_1426"
       data-name="Group 1426"
       transform="translate(26.083)">
      <path
         id="Path_29051"
         data-name="Path 29051"
         d="m 754.029,140.715 v 0.83 a 16,16 0 0 0 0.138,2.351 35.052,35.052 0 0 0 0.138,3.6 14.9,14.9 0 0 0 0.691,4.7 12.332,12.332 0 0 0 3.042,4.84 13.46,13.46 0 0 0 5.67,3.181 10.292,10.292 0 0 0 3.6,0.277 8.067,8.067 0 0 0 3.6,-0.83 11.953,11.953 0 0 0 5.946,-4.84 12.131,12.131 0 0 0 1.936,-7.053 v -7.191 l 0.277,0.277 c -7.191,0 -13.414,-0.138 -17.977,-0.138 -2.213,0 -3.872,0 -5.255,-0.138 h -1.383 c -0.277,0.277 -0.415,0.138 -0.415,0.138 0,0 0.553,0 1.8,-0.138 1.245,0 3.042,0 5.117,-0.138 4.564,0 10.786,-0.138 18.116,-0.138 h 0.277 v 7.468 a 12.28,12.28 0 0 1 -2.074,7.468 13.5,13.5 0 0 1 -6.361,5.117 17.509,17.509 0 0 1 -3.872,0.83 8.659,8.659 0 0 1 -3.734,-0.415 12.6,12.6 0 0 1 -5.947,-3.319 14.373,14.373 0 0 1 -3.181,-5.117 12.415,12.415 0 0 1 -0.553,-4.84 31.31,31.31 0 0 1 0.138,-3.734 11.932,11.932 0 0 1 0.138,-2.351 2.418,2.418 0 0 0 0.128,-0.697 z"
         transform="translate(-753.564,-140.3)"
         inkscape:connector-curvature="0"
         style="fill:#263238" />
    </g>
    <g
       id="Group_1427"
       data-name="Group 1427"
       transform="translate(51.163,1.798)">
      <ellipse
         id="Ellipse_374"
         data-name="Ellipse 374"
         cx="4.8400002"
         cy="0.41499999"
         rx="4.8400002"
         ry="0.41499999"
         style="fill:#263238" />
    </g>
    <g
       id="Group_1428"
       data-name="Group 1428"
       transform="translate(0,1.895)">
      <ellipse
         id="Ellipse_375"
         data-name="Ellipse 375"
         cx="13.276"
         cy="0.41499999"
         rx="13.276"
         ry="0.41499999"
         transform="rotate(-0.174,26.342867,0.0399978)"
         style="fill:#263238" />
    </g>
  </g>
  <path
     style="fill:#263238"
     inkscape:connector-curvature="0"
     d="m 274.89737,245.22863 -45.773,113.53501 h -82.835 v 5.117 h 246.568 l 50.332,-118.65201 z"
     data-name="Path 29057"
     id="Path_29057" />
  <ellipse
     style="fill:#c7d3de"
     transform="rotate(-73.739795)"
     ry="8.1590004"
     rx="10.786"
     cy="410.586"
     cx="-203.24426"
     data-name="Ellipse 377"
     id="Ellipse_377" />
  <g
     id="g2365"
     transform="translate(-189.38789,20.112206)">
    <g
       style="fill:#a3b7fe;fill-opacity:1"
       transform="matrix(0.15697805,0,0,0.15697805,574.7588,103.85359)"
       id="g224">
      <path
         style="fill:#a3b7fe;fill-opacity:1"
         inkscape:connector-curvature="0"
         id="path220"
         d="M 101.7,507.7 C 133.3,483.1 195.2,462.8 238,485.2 L 237.2,361 c 0,0 -109.9,32.3 -158.2,131.5 z"
         class="st3" />
      <path
         style="fill:#a3b7fe;fill-opacity:1"
         inkscape:connector-curvature="0"
         id="path222"
         d="m 285.6,630.9 c 10.8,-38.6 6,-103.6 -31,-134.6 l 115.3,-46.5 c 0,0 11.9,114 -61.5,196.3 z"
         class="st3" />
    </g>
    <path
       style="fill:#4b6c8e;fill-opacity:1;stroke-width:0.15697806"
       inkscape:connector-curvature="0"
       id="path226"
       d="m 640.06167,141.23006 0.0628,-0.10988 c -0.0314,0.0157 -0.0471,0.0157 -0.0785,0.0314 0,-0.0314 0,-0.0471 0,-0.0785 l -0.0628,0.10988 c -7.33088,2.44886 -37.1724,14.17512 -33.92296,41.39511 l 4.26981,2.857 0.0785,0.0471 4.2698,2.857 c 26.40371,-7.34658 25.90138,-39.40149 25.38335,-47.10912 z"
       class="st2" />
    <path
       style="fill:#e8505b;fill-opacity:1;stroke-width:0.15697806"
       inkscape:connector-curvature="0"
       id="path228"
       d="m 638.63317,160.55406 c 1.86804,-8.33553 1.64827,-16.04316 1.4285,-19.324 l 0.0628,-0.10988 c -0.0314,0.0157 -0.0471,0.0157 -0.0785,0.0314 0,-0.0314 0,-0.0471 0,-0.0785 l -0.0628,0.10988 c -3.12386,1.05175 -10.32916,3.76747 -17.33038,8.66519 z"
       class="st1" />
    <g
       transform="matrix(0.15697805,0,0,0.15697805,574.7588,103.85359)"
       id="g234">
      <circle
         style="fill:#ffffff"
         id="circle230"
         r="40.700001"
         cy="376.79999"
         cx="322.70001"
         class="st5" />
      <circle
         style="fill:#055472"
         id="circle232"
         r="26.5"
         cy="376.79999"
         cx="322.70001"
         class="st2" />
    </g>
    <rect
       style="fill:#e8505b;fill-opacity:1;stroke-width:0.15697628"
       id="rect236"
       height="3.2808042"
       width="15.383676"
       class="st1"
       transform="rotate(33.82832)"
       y="-185.89494"
       x="602.57764" />
    <path
       style="fill:#4b6c8e;fill-opacity:1;stroke-width:0.15697806"
       inkscape:connector-curvature="0"
       id="path238"
       d="m 612.6376,190.74094 -8.03727,-5.38435 -2.08781,3.10817 c -0.39245,0.58082 -0.23547,1.36571 0.34535,1.75815 l 5.93377,3.97155 c 0.58082,0.39244 1.36571,0.23546 1.75816,-0.34535 z"
       class="st2" />
  </g>
  <g
     id="g2414"
     transform="translate(-214.2934,-17.606264)">
    <path
       class="st4"
       d="m 567.18402,100.72318 c -3.44334,-3.502038 -8.06054,-5.49761 -12.75601,-5.84977 -4.6759,0.35216 -9.31268,2.328168 -12.75601,5.84977 -4.38244,4.48025 -5.49761,10.89739 -4.3433,16.86453 1.05648,5.39979 4.38243,9.09747 7.00406,13.65599 0.62607,1.07604 0.74345,2.75858 0.80215,4.3433 0.0587,1.56515 1.34994,2.81728 2.91509,2.81728 h 6.39757 6.37801 c 1.56516,0 2.85641,-1.25213 2.9151,-2.81728 0.0587,-1.58472 0.17608,-3.26726 0.80214,-4.3433 2.62164,-4.55852 5.94759,-8.2562 7.00407,-13.65599 1.15431,-5.98671 0.0391,-12.40385 -4.36287,-16.86453 z"
       id="path1446"
       inkscape:connector-curvature="0"
       style="fill:#ee9da3;fill-opacity:1;stroke-width:0.19564435" />
    <path
       class="st16"
       d="m 567.18402,100.72318 c -3.01292,-3.07162 -6.94538,-4.988935 -11.03434,-5.634562 2.69989,3.83463 4.28461,8.510532 4.28461,13.558152 0,10.44741 -6.78886,19.3101 -16.19935,22.42085 0.0391,0.0587 0.0783,0.11738 0.0978,0.17608 0.62607,1.07604 0.74345,2.75858 0.80215,4.3433 0.0587,1.56515 1.34994,2.81728 2.91509,2.81728 h 6.39757 6.37801 c 1.56516,0 2.85641,-1.25213 2.9151,-2.81728 0.0587,-1.58472 0.17608,-3.26726 0.80214,-4.3433 2.62164,-4.55852 5.94759,-8.2562 7.00407,-13.65599 1.15431,-5.98671 0.0391,-12.40385 -4.36287,-16.86453 z"
       id="path1448"
       inkscape:connector-curvature="0"
       style="fill:#e8505b;fill-opacity:1;stroke-width:0.19564435" />
    <g
       transform="matrix(0.19564435,0,0,0.19564435,419.84426,73.528611)"
       id="g1454">
      <path
         class="st2"
         d="M 743.6,321.1 H 632.3 c -2.2,0 -4,1.8 -4,4 v 18.8 c 0,2.2 1.8,4 4,4 h 111.3 c 2.2,0 4,-1.8 4,-4 v -18.8 c 0,-2.2 -1.8,-4 -4,-4 z"
         id="path1450"
         inkscape:connector-curvature="0"
         style="fill:#055472" />
      <path
         class="st2"
         d="m 723.4,367.8 h -70.8 c -1.7,0 -3.2,-1.4 -3.2,-3.2 v -19.5 c 0,-1.7 1.4,-3.2 3.2,-3.2 h 70.8 c 1.7,0 3.2,1.4 3.2,3.2 v 19.5 c 0,1.8 -1.5,3.2 -3.2,3.2 z"
         id="path1452"
         inkscape:connector-curvature="0"
         style="fill:#055472" />
    </g>
  </g>
  <g
     id="g2407"
     transform="matrix(2.2209701,0,0,2.2209701,-856.81989,-192.76939)">
    <g
       transform="matrix(0.15071845,0,0,-0.15071845,516.82183,142.50457)"
       id="g132">
      <path
         inkscape:connector-curvature="0"
         id="path134"
         style="fill:#e8505b;fill-opacity:1;fill-rule:nonzero;stroke:none"
         d="m 0,0 c 0,-12.194 -9.885,-22.079 -22.079,-22.079 -12.194,0 -22.08,9.885 -22.08,22.079 0,12.195 9.886,22.08 22.08,22.08 C -9.885,22.08 0,12.195 0,0" />
    </g>
    <g
       style="fill:#a3b7fe;fill-opacity:1"
       transform="matrix(0.15071845,0,0,-0.15071845,514.52462,150.2732)"
       id="g136">
      <path
         inkscape:connector-curvature="0"
         id="path138"
         style="fill:#a3b7fe;fill-opacity:1;fill-rule:nonzero;stroke:none"
         d="m 0,0 c 0,-3.776 -3.061,-6.836 -6.837,-6.836 -3.776,0 -6.837,3.06 -6.837,6.836 v 44.708 c 0,3.776 3.061,6.836 6.837,6.836 3.776,0 6.837,-3.06 6.837,-6.836 z" />
    </g>
    <g
       style="fill:#e8505b;fill-opacity:1"
       transform="matrix(0.15071845,0,0,-0.15071845,501.33749,157.79734)"
       id="g140">
      <path
         inkscape:connector-curvature="0"
         id="path142"
         style="fill:#e8505b;fill-opacity:1;fill-rule:nonzero;stroke:none"
         d="M 0,0 C 10.561,6.096 24.065,2.479 30.164,-8.082 36.26,-18.641 32.641,-32.146 22.08,-38.244 11.52,-44.34 -1.982,-40.721 -8.081,-30.16 -14.177,-19.6 -10.559,-6.096 0,0" />
    </g>
    <g
       style="fill:#e8505b;fill-opacity:1"
       transform="matrix(0.15071845,0,0,-0.15071845,522.32364,163.56071)"
       id="g144">
      <path
         inkscape:connector-curvature="0"
         id="path146"
         style="fill:#e8505b;fill-opacity:1;fill-rule:nonzero;stroke:none"
         d="M 0,0 C -10.559,6.099 -14.18,19.603 -8.082,30.161 -1.985,40.723 11.52,44.339 22.081,38.241 32.64,32.146 36.259,18.644 30.161,8.081 24.064,-2.477 10.561,-6.098 0,0" />
    </g>
    <g
       style="fill:#a3b7fe;fill-opacity:1"
       transform="matrix(0.15071845,0,0,-0.15071845,509.21415,155.90248)"
       id="g148">
      <path
         inkscape:connector-curvature="0"
         id="path150"
         style="fill:#a3b7fe;fill-opacity:1;fill-rule:nonzero;stroke:none"
         d="m 0,0 c 3.27,1.888 7.451,0.766 9.338,-2.501 1.889,-3.273 0.768,-7.452 -2.501,-9.34 l -38.719,-22.354 c -3.269,-1.89 -7.451,-0.768 -9.338,2.503 -1.889,3.269 -0.768,7.451 2.501,9.338 z" />
    </g>
    <g
       style="fill:#a3b7fe;fill-opacity:1"
       transform="matrix(0.15071845,0,0,-0.15071845,516.74448,157.68644)"
       id="g152">
      <path
         inkscape:connector-curvature="0"
         id="path154"
         style="fill:#a3b7fe;fill-opacity:1;fill-rule:nonzero;stroke:none"
         d="m 0,0 c -3.27,1.885 -4.389,6.066 -2.503,9.335 1.89,3.272 6.069,4.394 9.339,2.503 l 38.718,-22.353 c 3.271,-1.885 4.391,-6.069 2.503,-9.339 -1.888,-3.27 -6.071,-4.39 -9.34,-2.504 z" />
    </g>
    <g
       style="fill:#055472;fill-opacity:1"
       transform="matrix(0.15071845,0,0,-0.15071845,519.53749,154.62063)"
       id="g156">
      <path
         inkscape:connector-curvature="0"
         id="path158"
         style="fill:#055472;fill-opacity:1;fill-rule:nonzero;stroke:none"
         d="m 0,0 c 0,-22.146 -17.952,-40.097 -40.097,-40.097 -22.144,0 -40.096,17.951 -40.096,40.097 0,22.145 17.952,40.096 40.096,40.096 C -17.952,40.096 0,22.145 0,0" />
    </g>
  </g>
  <g
     id="g2391"
     transform="translate(-186.66864,-11.851114)">
    <g
       transform="matrix(0.32362573,0,0,-0.32362573,521.12664,42.514976)"
       id="g260">
      <path
         inkscape:connector-curvature="0"
         id="path262"
         style="fill:#ffcb04;fill-opacity:1;fill-rule:nonzero;stroke:none"
         d="m 0,0 c 0,-52.327 -42.423,-94.749 -94.751,-94.749 -52.329,0 -94.751,42.422 -94.751,94.749 0,52.331 42.422,94.751 94.751,94.751 C -42.423,94.751 0,52.331 0,0" />
    </g>
    <g
       transform="matrix(0.32362573,0,0,-0.32362573,510.66537,42.514976)"
       id="g264">
      <path
         inkscape:connector-curvature="0"
         id="path266"
         style="fill:#f7931d;fill-opacity:1;fill-rule:nonzero;stroke:none"
         d="m 0,0 c 0,-34.474 -27.952,-62.427 -62.426,-62.427 -34.476,0 -62.428,27.953 -62.428,62.427 0,34.476 27.952,62.429 62.428,62.429 C -27.952,62.429 0,34.476 0,0" />
    </g>
    <g
       style="fill:#e8505b;fill-opacity:1"
       transform="matrix(0.32362573,0,0,-0.32362573,500.66285,42.514976)"
       id="g268">
      <path
         inkscape:connector-curvature="0"
         id="path270"
         style="fill:#e8505b;fill-opacity:1;fill-rule:nonzero;stroke:none"
         d="m 0,0 c 0,-17.403 -14.116,-31.516 -31.519,-31.516 -17.404,0 -31.518,14.113 -31.518,31.516 0,17.405 14.114,31.519 31.518,31.519 C -14.116,31.519 0,17.405 0,0" />
    </g>
    <g
       transform="matrix(0.32362573,0,0,-0.32362573,490.46262,73.178226)"
       id="g272">
      <path
         inkscape:connector-curvature="0"
         id="path274"
         style="fill:#e8b908;fill-opacity:1;fill-rule:nonzero;stroke:none"
         d="m 0,0 c -0.006,0.005 -57.849,17.82 -57.849,94.749 0,76.932 57.843,94.746 57.849,94.751 z" />
    </g>
    <g
       transform="matrix(0.32362573,0,0,-0.32362573,490.46262,62.615666)"
       id="g276">
      <path
         inkscape:connector-curvature="0"
         id="path278"
         style="fill:#e1861a;fill-opacity:1;fill-rule:nonzero;stroke:none"
         d="m 0,0 c -0.006,0.005 -41.552,9.077 -41.552,62.45 0,53.371 41.546,62.443 41.552,62.45 z" />
    </g>
    <g
       transform="matrix(0.32362573,0,0,-0.32362573,490.46262,52.714436)"
       id="g280">
      <path
         inkscape:connector-curvature="0"
         id="path282"
         style="fill:#d81920;fill-opacity:1;fill-rule:nonzero;stroke:none"
         d="M 0,0 C -0.02,0.018 -19.895,7.65 -19.895,31.855 -19.895,56.14 -0.02,62.948 0,62.968 Z" />
    </g>
    <g
       style="fill:#4b6c8e;fill-opacity:1"
       transform="matrix(0.32362573,0,0,-0.32362573,490.46262,73.178226)"
       id="g284">
      <path
         inkscape:connector-curvature="0"
         id="path286"
         style="fill:#4b6c8e;fill-opacity:1;fill-rule:nonzero;stroke:none"
         d="m 0,0 c -0.006,0.005 -57.849,17.82 -57.849,94.749 0,76.932 57.843,94.746 57.849,94.751 -52.328,0 -94.751,-42.42 -94.751,-94.751 C -94.751,42.422 -52.328,0 0,0" />
    </g>
  </g>
  <g
     id="g2375"
     transform="translate(-248.87226,168.98681)">
    <g
       transform="matrix(0.32362573,0,0,-0.32362573,590.98698,32.316046)"
       id="g288">
      <path
         inkscape:connector-curvature="0"
         id="path290"
         style="fill:#f8c1d9;fill-opacity:1;fill-rule:nonzero;stroke:none"
         d="M 0,0 C 0,1.559 0.244,3.064 0.687,4.479 L -38.417,17.97 C -39.879,11.881 -45.08,7.252 -51.466,6.665 v -106.19 h 65.138 v 84.651 C 6.02,-14.229 0,-7.822 0,0 M 68.242,15.758 29.34,3.919 C 29.677,2.669 29.875,1.358 29.875,0 c 0,-7.736 -5.879,-14.1 -13.414,-14.861 V -99.525 H 81.598 V 4.832 C 75.197,5.307 69.922,9.774 68.242,15.758 m -135.767,3.579 -37.944,-8.899 c 0.224,-1.046 0.347,-2.131 0.347,-3.245 0,-8.114 -6.239,-14.761 -14.18,-15.433 v -91.285 h 65.139 V 6.661 c -6.879,0.61 -12.396,5.904 -13.362,12.676" />
    </g>
    <g
       style="fill:#e8505b;fill-opacity:1"
       transform="matrix(0.32362573,0,0,-0.32362573,618.20394,64.484736)"
       id="g292">
      <path
         inkscape:connector-curvature="0"
         id="path294"
         style="fill:#e8505b;fill-opacity:1;fill-rule:nonzero;stroke:none"
         d="M 0,0 V 104.183 H -4.895 V 0 h -61.984 v 83.38 h -4.895 V 0 h -61.985 v 105.764 h -4.895 V 0 h -61.982 v 95.23 h -4.897 V -4.896 H 41.685 V 0 Z" />
    </g>
    <g
       style="fill:#e8505b;fill-opacity:1"
       transform="matrix(0.32362573,0,0,-0.32362573,617.75737,29.108556)"
       id="g296">
      <path
         inkscape:connector-curvature="0"
         id="path298"
         style="fill:#e8505b;fill-opacity:1;fill-rule:nonzero;stroke:none"
         d="m 0,0 c -5.474,0 -9.914,4.438 -9.914,9.913 0,5.473 4.44,9.911 9.914,9.911 5.474,0 9.911,-4.438 9.911,-9.911 C 9.911,4.438 5.474,0 0,0 m 0,29.736 c -10.946,0 -19.823,-8.874 -19.823,-19.823 0,-10.948 8.877,-19.824 19.823,-19.824 10.948,0 19.825,8.876 19.825,19.824 0,10.949 -8.877,19.823 -19.825,19.823 M -135.561,1.621 c -5.471,0 -9.911,4.44 -9.911,9.914 0,5.473 4.44,9.911 9.911,9.911 5.474,0 9.912,-4.438 9.912,-9.911 0,-5.474 -4.438,-9.914 -9.912,-9.914 m 0,29.737 c -10.949,0 -19.824,-8.875 -19.824,-19.823 0,-10.948 8.875,-19.825 19.824,-19.825 10.948,0 19.825,8.877 19.825,19.825 0,10.948 -8.877,19.823 -19.825,19.823 m 67.781,-51.182 c -5.474,0 -9.914,4.439 -9.914,9.913 0,5.473 4.44,9.911 9.914,9.911 5.475,0 9.911,-4.438 9.911,-9.911 0,-5.474 -4.436,-9.913 -9.911,-9.913 m 0,29.737 c -10.948,0 -19.825,-8.875 -19.825,-19.824 0,-10.949 8.877,-19.825 19.825,-19.825 10.947,0 19.822,8.876 19.822,19.825 0,10.949 -8.875,19.824 -19.822,19.824 m -135.563,-22.541 c -5.471,0 -9.911,4.437 -9.911,9.91 0,5.475 4.44,9.913 9.911,9.913 5.474,0 9.914,-4.438 9.914,-9.913 0,-5.473 -4.44,-9.91 -9.914,-9.91 m 0,29.733 c -10.946,0 -19.823,-8.875 -19.823,-19.823 0,-10.947 8.877,-19.824 19.823,-19.824 10.95,0 19.825,8.877 19.825,19.824 0,10.948 -8.875,19.823 -19.825,19.823" />
    </g>
    <g
       style="fill:#4b6c8e;fill-opacity:1"
       transform="matrix(0.32362573,0,0,-0.32362573,579.26186,28.871336)"
       id="g300">
      <path
         inkscape:connector-curvature="0"
         id="path302"
         style="fill:#4b6c8e;fill-opacity:1;fill-rule:nonzero;stroke:none"
         d="m 0,0 31.383,-9.929 c 0.132,3.714 1.274,7.165 3.176,10.084 L 3.178,10.085 C 3.044,6.373 1.904,2.92 0,0 M 99.142,8.895 68.004,-0.212 c 1.837,-2.957 2.922,-6.423 2.975,-10.148 l 31.136,9.109 C 100.28,1.706 99.192,5.171 99.142,8.895 M -36.372,12.049 -66.795,5.652 c 1.415,-2.729 2.228,-5.818 2.228,-9.103 0,-0.42 -0.037,-0.831 -0.065,-1.247 l 30.423,6.397 c -1.413,2.728 -2.226,5.818 -2.226,9.103 0,0.422 0.038,0.832 0.063,1.247" />
    </g>
  </g>
</svg>
