<?xml version="1.0" encoding="UTF-8" standalone="no"?>
<svg
   xmlns:dc="http://purl.org/dc/elements/1.1/"
   xmlns:cc="http://creativecommons.org/ns#"
   xmlns:rdf="http://www.w3.org/1999/02/22-rdf-syntax-ns#"
   xmlns:svg="http://www.w3.org/2000/svg"
   xmlns="http://www.w3.org/2000/svg"
   xmlns:sodipodi="http://sodipodi.sourceforge.net/DTD/sodipodi-0.dtd"
   xmlns:inkscape="http://www.inkscape.org/namespaces/inkscape"
   width="454.81668"
   height="363.88065"
   viewBox="0 0 454.81669 363.88065"
   version="1.1"
   id="svg175"
   sodipodi:docname="illustration.svg"
   inkscape:version="0.92.3 (2405546, 2018-03-11)">
  <metadata
     id="metadata181">
    <rdf:RDF>
      <cc:Work
         rdf:about="">
        <dc:format>image/svg+xml</dc:format>
        <dc:type
           rdf:resource="http://purl.org/dc/dcmitype/StillImage" />
      </cc:Work>
    </rdf:RDF>
  </metadata>
  <defs
     id="defs179" />
  <sodipodi:namedview
     pagecolor="#ffffff"
     bordercolor="#666666"
     borderopacity="1"
     objecttolerance="10"
     gridtolerance="10"
     guidetolerance="10"
     inkscape:pageopacity="0"
     inkscape:pageshadow="2"
     inkscape:window-width="960"
     inkscape:window-height="1017"
     id="namedview177"
     showgrid="false"
     inkscape:zoom="0.59272703"
     inkscape:cx="157.27984"
     inkscape:cy="181.1953"
     inkscape:window-x="960"
     inkscape:window-y="30"
     inkscape:window-maximized="0"
     inkscape:current-layer="svg175" />
  <path
     style="fill:#70c8d6"
     inkscape:connector-curvature="0"
     d="m 390.11237,298.91664 c -1.355,-18.80001 -10.466,-35.15901 -24.828,-45.18501 a 56.763,56.763 0 0 0 -8.874,-5.047 62.3,62.3 0 0 1 10.128,30.011 c 0.1,1.49 0.169,2.981 0.169,4.471 a 60.047,60.047 0 0 1 -86.272,54.12701 60.149,60.149 0 0 0 109.813,-33.94 c 0.033,-1.456 -0.035,-2.946 -0.136,-4.437 z"
     data-name="Path 29344"
     id="Path_29344" />
  <circle
     style="fill:#70c8d6"
     r="4.302"
     cy="279.16965"
     cx="315.32339"
     data-name="Ellipse 438"
     id="Ellipse_438" />
  <circle
     style="fill:#70c8d6"
     r="7.6890001"
     cy="294.68265"
     cx="327.68643"
     data-name="Ellipse 439"
     id="Ellipse_439" />
  <path
     style="fill:#b58fef"
     inkscape:connector-curvature="0"
     d="m 382.08437,304.33664 v 0.237 a 52.024,52.024 0 0 1 -88.914,36.209 51.182,51.182 0 0 1 -14.734,-30.925 v -0.034 a 51.188,51.188 0 0 1 26.488,-7.418 c 15.818,0.17 30.417,12.871 53.755,9.721 a 73.616,73.616 0 0 0 23.405,-7.79 z"
     data-name="Path 29347"
     id="Path_29347" />
  <path
     style="fill:#8c6acc"
     inkscape:connector-curvature="0"
     d="m 382.08437,304.33564 v 0.237 a 51.753,51.753 0 0 1 -51.96,51.553 c -14.5,0 -26.115,-4.471 -35.532,-13.955 12.092,2.066 48.369,0.474 64.831,-30.18 6.945,-0.914 13.889,-3.184 22.661,-7.655 z"
     data-name="Path 29348"
     id="Path_29348" />
  <circle
     style="fill:#8c6acc"
     transform="rotate(-36.869898)"
     r="7.757"
     cy="466.80338"
     cx="83.327744"
     data-name="Ellipse 440"
     id="Ellipse_440" />
  <circle
     style="fill:#8c6acc"
     r="4.302"
     cy="314.90366"
     cx="294.59341"
     data-name="Ellipse 441"
     id="Ellipse_441" />
  <g
     transform="translate(-5.7661168e-4,169.31963)"
     data-name="Group 1395"
     id="Group_1395">
    <path
       style="fill:#e8505b"
       inkscape:connector-curvature="0"
       transform="translate(-631.411,-204.162)"
       d="m 716.163,310.42 -41.763,-41.9 21.02,-38.582 c 21.02,-26.828 65.41,-25.168 65.41,-25.168 a 253.906,253.906 0 0 1 65.549,4.01 c 35.264,6.914 32.5,30.285 32.5,30.285 l 4.7,86.568 5.117,70.389 -130.129,2.627 -22.4,-88.228"
       data-name="Path 29013"
       id="Path_29013" />
    <path
       style="fill:#e8505b"
       inkscape:connector-curvature="0"
       transform="translate(-643.313,-191.666)"
       d="m 798.316,382 -116.577,1.383 c -28.073,0.277 -46.741,-28.764 -34.71,-54.071 l 49.922,-92.512 45.359,30.7 -30.977,64.3 94.451,1.66 z"
       data-name="Path 29014"
       id="Path_29014" />
    <path
       style="fill:#e8505b"
       inkscape:connector-curvature="0"
       transform="translate(-581.483,-198.443)"
       d="m 804.8,219.1 93.621,144.511 -54.624,3.6 c 0,0 -32.636,-51.443 -31.806,-50.337 1.245,1.932 -7.191,-97.774 -7.191,-97.774 z"
       data-name="Path 29015"
       id="Path_29015" />
    <path
       style="fill:#e8505b"
       inkscape:connector-curvature="0"
       transform="translate(-620.843,-173.02)"
       d="M 702,285.5"
       data-name="Path 29016"
       id="Path_29016" />
    <g
       transform="translate(81.018,17.615)"
       data-name="Group 1378"
       id="Group_1378">
      <path
         style="fill:#263238"
         inkscape:connector-curvature="0"
         transform="translate(-701.9,-216.9)"
         d="m 717.388,283.417 a 2.422,2.422 0 0 1 0.138,-0.691 c 0.138,-0.553 0.277,-1.245 0.553,-2.074 0.415,-1.8 1.106,-4.425 1.659,-7.744 a 103.681,103.681 0 0 0 1.8,-11.616 61.287,61.287 0 0 0 0,-14.244 36.179,36.179 0 0 0 -4.84,-13.276 61.492,61.492 0 0 0 -6.914,-9.4 65.928,65.928 0 0 0 -5.67,-5.532 c -1.383,-1.245 -2.213,-1.8 -2.213,-1.936 a 7.177,7.177 0 0 1 0.691,0.415 q 0.622,0.415 1.659,1.245 a 37.959,37.959 0 0 1 5.808,5.393 50.428,50.428 0 0 1 7.191,9.4 40.5,40.5 0 0 1 4.978,13.552 55.28,55.28 0 0 1 -0.138,14.382 c -0.553,4.425 -1.245,8.3 -1.936,11.616 -0.691,3.316 -1.383,5.946 -1.936,7.744 a 8.845,8.845 0 0 1 -0.691,2.074 1.678,1.678 0 0 1 -0.139,0.692 z"
         data-name="Path 29017"
         id="Path_29017" />
    </g>
    <g
       transform="translate(67.743,89.11)"
       data-name="Group 1379"
       id="Group_1379">
      <path
         style="fill:#263238"
         inkscape:connector-curvature="0"
         transform="translate(-692.3,-268.6)"
         d="m 717.33,268.6 c 0,0 -0.277,0.83 -0.83,2.074 -0.553,1.383 -1.383,3.181 -2.489,5.532 -2.074,4.7 -5.117,11.2 -8.574,18.254 -3.457,7.054 -6.776,13.414 -9.127,17.977 -1.245,2.213 -2.213,4.149 -2.9,5.393 -0.687,1.244 -1.106,1.936 -1.106,1.936 0,0 0.277,-0.691 0.968,-2.074 0.691,-1.383 1.659,-3.181 2.766,-5.393 l 8.989,-17.978 c 3.457,-7.053 6.5,-13.414 8.712,-18.116 1.106,-2.213 1.936,-4.01 2.628,-5.532 a 15.949,15.949 0 0 1 0.963,-2.073 z"
         data-name="Path 29018"
         id="Path_29018" />
    </g>
    <g
       transform="translate(41.191,139.723)"
       data-name="Group 1380"
       id="Group_1380">
      <path
         style="fill:#263238"
         inkscape:connector-curvature="0"
         transform="translate(-673.1,-305.2)"
         d="m 786.911,355.813 v -0.968 c 0,-0.691 0.138,-1.521 0.277,-2.766 0.276,-2.489 0.691,-5.946 1.106,-10.372 0.968,-8.989 2.489,-21.573 4.149,-36.37 l 0.277,0.415 h -34.434 c -23.509,0 -44.805,-0.138 -60.294,-0.138 -7.606,0 -13.967,-0.138 -18.254,-0.138 v 0 c 4.425,0 10.648,0 18.254,-0.138 15.488,0 36.785,0 60.294,-0.138 h 34.849 v 0.415 c -1.8,14.8 -3.319,27.381 -4.425,36.37 -0.553,4.425 -0.968,7.882 -1.383,10.372 -0.138,1.106 -0.277,2.074 -0.415,2.766 a 5.994,5.994 0 0 1 -0.138,0.691 c 0.137,-0.139 0.137,-0.001 0.137,-0.001 z"
         data-name="Path 29019"
         id="Path_29019" />
    </g>
    <g
       transform="translate(49.489,124.901)"
       data-name="Group 1381"
       id="Group_1381">
      <path
         style="fill:#263238"
         inkscape:connector-curvature="0"
         transform="translate(-679.1,-294.481)"
         d="m 698.322,310.687 c -0.138,0 -0.83,-1.106 -2.351,-2.9 a 43.719,43.719 0 0 0 -6.223,-6.361 51.676,51.676 0 0 0 -7.329,-5.117 c -1.936,-1.106 -3.319,-1.659 -3.319,-1.8 0,-0.141 1.383,0.277 3.457,1.383 a 35.1,35.1 0 0 1 7.606,4.978 37.787,37.787 0 0 1 6.223,6.638 c 1.383,1.934 2.074,3.179 1.936,3.179 z"
         data-name="Path 29020"
         id="Path_29020" />
    </g>
    <g
       transform="translate(226.774,31.444)"
       data-name="Group 1382"
       id="Group_1382">
      <path
         style="fill:#263238"
         inkscape:connector-curvature="0"
         transform="translate(-807.3,-226.9)"
         d="m 814.629,345.69 a 4.341,4.341 0 0 1 -0.138,-1.245 c -0.138,-0.83 -0.276,-1.936 -0.415,-3.457 -0.277,-3.042 -0.691,-7.329 -1.245,-12.723 -0.968,-10.648 -2.074,-25.583 -3.042,-41.9 -0.968,-16.317 -1.66,-31.253 -2.075,-42.04 -0.138,-5.393 -0.276,-9.68 -0.415,-12.723 v -4.7 a 8.535,8.535 0 0 0 0.138,1.245 c 0,0.83 0.138,2.074 0.138,3.457 0.138,3.042 0.415,7.468 0.553,12.723 0.553,10.787 1.245,25.583 2.213,41.9 0.968,16.317 1.936,31.253 2.766,41.9 0.415,5.255 0.692,9.68 0.968,12.723 0.138,1.383 0.138,2.628 0.276,3.457 a 5.855,5.855 0 0 1 0.278,1.383 z"
         data-name="Path 29021"
         id="Path_29021" />
    </g>
    <g
       transform="translate(114.899,34.071)"
       data-name="Group 1383"
       id="Group_1383">
      <path
         style="fill:#e0e0e0"
         inkscape:connector-curvature="0"
         transform="translate(-726.4,-228.8)"
         d="m 741.473,266.414 c 0,0 0,-0.691 0.138,-1.936 0.138,-1.383 0.415,-3.042 0.691,-5.255 0.553,-4.564 1.383,-10.786 2.351,-18.116 l 0.553,0.277 c -2.766,1.936 -5.808,4.01 -8.989,6.223 -3.181,2.213 -6.223,4.425 -9.127,6.361 l -0.691,0.415 0.138,-0.83 c 1.106,-7.191 2.074,-13.414 2.766,-17.839 0.415,-2.074 0.691,-3.872 0.83,-5.117 0.277,-1.245 0.277,-1.8 0.415,-1.8 0,0 0,0.691 -0.138,1.936 -0.138,1.245 -0.415,3.042 -0.691,5.255 -0.691,4.564 -1.521,10.786 -2.489,17.978 l -0.553,-0.277 c 2.766,-1.936 5.946,-4.149 9.127,-6.361 3.181,-2.212 6.223,-4.287 8.989,-6.223 l 0.691,-0.415 -0.138,0.83 c -1.106,7.191 -1.936,13.414 -2.627,17.978 -0.277,2.213 -0.553,3.872 -0.83,5.255 -0.139,0.97 -0.277,1.661 -0.416,1.661 z"
         data-name="Path 29022"
         id="Path_29022" />
    </g>
    <g
       transform="translate(146.264,57.58)"
       data-name="Group 1384"
       id="Group_1384">
      <path
         style="fill:#e0e0e0"
         inkscape:connector-curvature="0"
         transform="translate(-749.081,-245.8)"
         d="m 784.924,265.437 a 9.962,9.962 0 0 1 -1.383,-1.383 c -0.968,-0.968 -2.074,-2.213 -3.6,-3.872 -3.181,-3.319 -7.468,-8.021 -12.308,-13.414 l 0.553,-0.138 c -0.277,3.457 -0.553,7.053 -0.968,10.925 -0.277,3.872 -0.691,7.606 -0.968,11.063 v 0.83 l -0.553,-0.553 c -4.84,-5.393 -8.989,-10.1 -12.031,-13.552 -1.383,-1.659 -2.628,-2.9 -3.457,-4.01 -0.83,-0.968 -1.245,-1.383 -1.106,-1.521 a 9.975,9.975 0 0 1 1.383,1.383 c 0.968,0.968 2.074,2.213 3.6,3.872 3.042,3.319 7.329,8.021 12.169,13.414 l -0.553,0.138 c 0.276,-3.457 0.553,-7.191 0.968,-11.063 0.276,-3.872 0.691,-7.468 0.968,-10.925 v -0.83 l 0.553,0.553 c 4.84,5.393 9.127,10.1 12.169,13.552 1.383,1.66 2.628,2.9 3.457,4.01 0.692,0.968 1.107,1.521 1.107,1.521 z"
         data-name="Path 29023"
         id="Path_29023" />
    </g>
    <g
       transform="translate(193.723,75.419)"
       data-name="Group 1385"
       id="Group_1385">
      <path
         style="fill:#e0e0e0"
         inkscape:connector-curvature="0"
         transform="translate(-783.4,-258.7)"
         d="m 797.92,258.7 c 0,0 -0.276,0.553 -0.968,1.66 -0.692,1.107 -1.659,2.627 -2.766,4.425 -2.489,3.872 -5.946,9.127 -9.818,15.35 l -0.277,-0.553 c 3.319,-0.553 7.053,-1.245 10.786,-1.8 3.872,-0.691 7.468,-1.245 10.925,-1.8 l 0.83,-0.138 -0.415,0.691 c -4.01,6.085 -7.606,11.2 -10.1,15.073 -1.245,1.8 -2.213,3.181 -2.9,4.287 -0.692,0.968 -1.106,1.521 -1.106,1.521 0,0 0.276,-0.553 0.968,-1.659 0.692,-1.106 1.66,-2.628 2.766,-4.425 2.489,-3.872 5.946,-9.127 9.818,-15.212 l 0.276,0.553 c -3.457,0.553 -7.052,1.245 -10.925,1.936 -3.734,0.691 -7.468,1.245 -10.786,1.8 l -0.83,0.138 0.415,-0.691 c 4.01,-6.085 7.468,-11.34 10.1,-15.212 1.245,-1.8 2.213,-3.319 2.9,-4.287 0.692,-1.104 1.107,-1.657 1.107,-1.657 z"
         data-name="Path 29024"
         id="Path_29024" />
    </g>
    <g
       transform="translate(158.875,102.247)"
       data-name="Group 1386"
       id="Group_1386">
      <path
         style="fill:#e0e0e0"
         inkscape:connector-curvature="0"
         transform="translate(-758.2,-278.1)"
         d="m 772.72,278.1 c 0,0 -0.276,0.553 -0.968,1.659 -0.692,1.106 -1.66,2.628 -2.766,4.425 -2.489,3.872 -5.946,9.127 -9.818,15.35 l -0.277,-0.553 c 3.319,-0.553 7.053,-1.245 10.786,-1.8 3.872,-0.691 7.468,-1.245 10.925,-1.8 l 0.83,-0.138 -0.415,0.691 c -4.01,6.085 -7.606,11.2 -10.1,15.073 -1.245,1.8 -2.213,3.181 -2.9,4.287 -0.691,0.968 -1.106,1.521 -1.106,1.521 0,0 0.277,-0.553 0.968,-1.659 0.691,-1.106 1.659,-2.628 2.766,-4.425 2.489,-3.872 5.946,-9.127 9.818,-15.212 l 0.277,0.553 c -3.457,0.553 -7.053,1.245 -10.925,1.936 -3.734,0.691 -7.468,1.245 -10.786,1.8 l -0.83,0.138 0.415,-0.691 c 4.01,-6.085 7.468,-11.34 10.095,-15.212 1.245,-1.8 2.213,-3.319 2.9,-4.287 a 8.292,8.292 0 0 1 1.111,-1.656 z"
         data-name="Path 29025"
         id="Path_29025" />
    </g>
    <g
       transform="translate(234.242,75.004)"
       data-name="Group 1387"
       id="Group_1387">
      <path
         style="fill:#e0e0e0"
         inkscape:connector-curvature="0"
         transform="translate(-812.7,-258.4)"
         d="m 827.22,258.4 c 0,0 -0.277,0.553 -0.968,1.659 -0.691,1.106 -1.66,2.628 -2.766,4.425 -2.489,3.872 -5.946,9.127 -9.818,15.35 l -0.276,-0.553 c 3.319,-0.553 7.053,-1.245 10.786,-1.8 3.872,-0.691 7.468,-1.245 10.925,-1.8 l 0.83,-0.138 -0.415,0.691 c -4.01,6.085 -7.606,11.2 -10.1,15.073 -1.245,1.8 -2.213,3.181 -2.9,4.287 -0.691,0.968 -1.106,1.521 -1.106,1.521 0,0 0.277,-0.553 0.968,-1.66 0.691,-1.107 1.659,-2.627 2.766,-4.425 2.489,-3.872 5.946,-9.127 9.818,-15.212 l 0.276,0.553 c -3.457,0.553 -7.053,1.245 -10.925,1.936 -3.734,0.691 -7.468,1.245 -10.786,1.8 l -0.83,0.138 0.415,-0.691 c 4.01,-6.085 7.468,-11.34 10.1,-15.212 1.245,-1.8 2.213,-3.319 2.9,-4.287 0.553,-1.102 0.968,-1.655 1.106,-1.655 z"
         data-name="Path 29026"
         id="Path_29026" />
    </g>
    <g
       transform="translate(57.924,52.878)"
       data-name="Group 1388"
       id="Group_1388">
      <path
         style="fill:#e0e0e0"
         inkscape:connector-curvature="0"
         transform="translate(-685.2,-242.4)"
         d="m 699.72,242.4 c 0,0 -0.277,0.553 -0.968,1.659 -0.691,1.106 -1.659,2.627 -2.766,4.425 -2.489,3.872 -5.946,9.127 -9.818,15.35 l -0.277,-0.553 c 3.319,-0.553 7.053,-1.245 10.786,-1.8 3.872,-0.691 7.468,-1.245 10.925,-1.8 l 0.83,-0.138 -0.415,0.691 c -4.01,6.085 -7.606,11.2 -10.1,15.073 -1.245,1.8 -2.213,3.181 -2.9,4.287 -0.691,0.968 -1.106,1.521 -1.106,1.521 0,0 0.277,-0.553 0.968,-1.659 0.691,-1.106 1.659,-2.627 2.766,-4.425 2.489,-3.872 5.946,-9.127 9.818,-15.212 l 0.277,0.553 c -3.457,0.553 -7.053,1.245 -10.925,1.936 -3.734,0.691 -7.468,1.245 -10.786,1.8 l -0.83,0.138 0.415,-0.691 c 4.01,-6.085 7.468,-11.34 10.095,-15.212 1.245,-1.8 2.213,-3.319 2.9,-4.287 0.696,-1.103 1.111,-1.656 1.111,-1.656 z"
         data-name="Path 29027"
         id="Path_29027" />
    </g>
    <g
       transform="translate(17.821,153.414)"
       data-name="Group 1389"
       id="Group_1389">
      <path
         style="fill:#e0e0e0"
         inkscape:connector-curvature="0"
         transform="translate(-656.2,-315.1)"
         d="m 656.2,318 c 0,0 0.415,0.415 1.245,1.383 0.83,0.968 1.936,2.351 3.319,4.01 2.9,3.6 6.914,8.436 11.478,14.105 l -0.553,0.138 c 0.553,-3.319 0.968,-7.053 1.521,-10.786 0.553,-3.872 1.106,-7.606 1.659,-10.925 l 0.138,-0.83 0.553,0.691 c 4.425,5.67 8.3,10.648 11.2,14.244 1.245,1.66 2.351,3.181 3.181,4.149 0.691,0.968 1.106,1.521 1.106,1.521 0,0 -0.415,-0.415 -1.245,-1.383 -0.83,-0.968 -1.936,-2.351 -3.319,-4.01 -2.9,-3.6 -6.776,-8.436 -11.34,-14.105 l 0.553,-0.138 c -0.553,3.457 -1.106,7.053 -1.659,10.925 -0.553,3.734 -1.106,7.468 -1.66,10.786 l -0.138,0.83 -0.553,-0.553 c -4.564,-5.67 -8.436,-10.648 -11.34,-14.244 -1.383,-1.659 -2.351,-3.181 -3.181,-4.149 C 656.477,318.557 656.2,318 656.2,318 Z"
         data-name="Path 29028"
         id="Path_29028" />
    </g>
    <g
       transform="translate(108.123,89.325)"
       data-name="Group 1390"
       id="Group_1390">
      <path
         style="fill:#e0e0e0"
         inkscape:connector-curvature="0"
         transform="translate(-721.5,-268.756)"
         d="m 756.072,268.817 c 0,0 -0.691,0.138 -1.936,0.277 -1.383,0.138 -3.042,0.277 -5.255,0.415 -4.563,0.277 -10.925,0.83 -18.116,1.383 l 0.277,-0.553 c 2.489,2.351 5.117,4.84 8.021,7.468 2.766,2.627 5.531,5.255 8.021,7.606 l 0.553,0.553 h -0.83 c -7.191,0.415 -13.552,0.691 -18.116,0.968 -2.213,0.138 -3.872,0.138 -5.255,0.277 H 721.5 c 0,0 0.692,-0.138 1.936,-0.277 1.383,-0.138 3.042,-0.277 5.255,-0.415 4.564,-0.277 10.787,-0.691 18.116,-1.245 l -0.277,0.553 c -2.489,-2.351 -5.255,-4.978 -8.021,-7.606 -2.766,-2.628 -5.532,-5.117 -7.883,-7.468 l -0.553,-0.553 h 0.83 c 7.329,-0.415 13.552,-0.83 18.116,-1.106 2.213,-0.138 3.872,-0.138 5.255,-0.277 1.106,0 1.798,-0.138 1.798,0 z"
         data-name="Path 29029"
         id="Path_29029" />
    </g>
    <g
       transform="translate(111.995,155.903)"
       data-name="Group 1391"
       id="Group_1391">
      <path
         style="fill:#e0e0e0"
         inkscape:connector-curvature="0"
         transform="translate(-724.3,-316.9)"
         d="m 724.3,320.081 a 6.715,6.715 0 0 1 1.245,1.383 c 0.83,0.968 2.074,2.351 3.457,4.01 3.042,3.457 7.053,8.3 11.754,13.967 l -0.553,0.138 c 0.415,-3.319 0.83,-7.053 1.383,-10.786 0.553,-3.872 0.968,-7.606 1.383,-11.063 l 0.138,-0.83 0.553,0.553 c 4.564,5.67 8.574,10.51 11.478,14.105 q 2.074,2.489 3.319,4.149 c 0.691,0.968 1.106,1.521 1.106,1.521 0,0 -0.415,-0.415 -1.245,-1.383 -0.83,-0.968 -1.936,-2.351 -3.457,-4.01 -2.9,-3.457 -6.914,-8.3 -11.616,-13.829 l 0.553,-0.138 c -0.415,3.457 -0.968,7.191 -1.383,11.063 -0.553,3.734 -0.968,7.468 -1.383,10.786 l -0.138,0.83 -0.553,-0.553 c -4.7,-5.67 -8.712,-10.51 -11.616,-14.105 q -2.074,-2.489 -3.319,-4.149 c -0.691,-1.106 -1.106,-1.659 -1.106,-1.659 z"
         data-name="Path 29030"
         id="Path_29030" />
    </g>
    <g
       transform="translate(22.661,107.917)"
       data-name="Group 1392"
       id="Group_1392">
      <path
         style="fill:#e0e0e0"
         inkscape:connector-curvature="0"
         transform="translate(-659.7,-282.2)"
         d="m 694.272,282.2 c 0,0 -0.691,0.138 -1.936,0.277 -1.383,0.138 -3.042,0.277 -5.255,0.415 -4.564,0.277 -10.925,0.83 -18.116,1.383 l 0.277,-0.553 c 2.489,2.351 5.117,4.84 8.021,7.468 2.766,2.628 5.532,5.255 8.021,7.606 l 0.553,0.553 h -0.83 c -7.191,0.415 -13.552,0.691 -18.116,0.968 -2.213,0.138 -3.872,0.138 -5.255,0.277 H 659.7 c 0,0 0.691,-0.138 1.936,-0.277 1.383,-0.138 3.042,-0.277 5.255,-0.415 4.563,-0.277 10.786,-0.691 18.116,-1.245 l -0.277,0.553 c -2.489,-2.351 -5.255,-4.978 -8.021,-7.606 -2.766,-2.628 -5.531,-5.117 -7.882,-7.468 l -0.553,-0.553 h 0.83 c 7.329,-0.415 13.552,-0.83 18.116,-1.106 2.213,-0.138 3.872,-0.138 5.255,-0.277 z"
         data-name="Path 29031"
         id="Path_29031" />
    </g>
    <g
       transform="translate(69.679,157.424)"
       data-name="Group 1393"
       id="Group_1393">
      <path
         style="fill:#e0e0e0"
         inkscape:connector-curvature="0"
         transform="translate(-693.7,-318)"
         d="m 728.272,318 c 0,0 -0.691,0.138 -1.936,0.277 -1.383,0.138 -3.042,0.277 -5.255,0.415 -4.563,0.277 -10.925,0.83 -18.116,1.383 l 0.276,-0.553 c 2.489,2.351 5.117,4.84 8.021,7.468 2.766,2.628 5.532,5.255 8.021,7.606 l 0.553,0.553 h -0.83 c -7.191,0.415 -13.552,0.691 -18.116,0.968 -2.212,0.138 -3.872,0.138 -5.255,0.277 H 693.7 c 0,0 0.691,-0.138 1.936,-0.277 1.383,-0.138 3.042,-0.277 5.255,-0.415 4.564,-0.277 10.787,-0.691 18.116,-1.245 l -0.277,0.553 c -2.489,-2.351 -5.255,-4.978 -8.021,-7.606 -2.766,-2.628 -5.531,-5.117 -7.883,-7.468 l -0.553,-0.553 h 0.83 c 7.329,-0.415 13.552,-0.83 18.116,-1.106 2.213,-0.138 3.872,-0.138 5.255,-0.277 z"
         data-name="Path 29032"
         id="Path_29032" />
    </g>
    <g
       transform="translate(175.884,31.444)"
       data-name="Group 1394"
       id="Group_1394">
      <path
         style="fill:#e0e0e0"
         inkscape:connector-curvature="0"
         transform="translate(-770.5,-226.9)"
         d="m 805.072,226.9 c 0,0 -0.691,0.138 -1.936,0.277 -1.383,0.138 -3.042,0.277 -5.255,0.415 -4.563,0.277 -10.925,0.83 -18.116,1.383 l 0.277,-0.553 c 2.489,2.351 5.117,4.84 8.021,7.468 2.766,2.627 5.532,5.255 8.021,7.606 l 0.553,0.553 h -0.83 c -7.191,0.415 -13.552,0.691 -18.116,0.968 -2.213,0.138 -3.872,0.138 -5.255,0.277 H 770.5 c 0,0 0.691,-0.138 1.936,-0.277 1.383,-0.138 3.042,-0.277 5.255,-0.415 4.563,-0.277 10.786,-0.691 18.116,-1.245 l -0.277,0.553 c -2.489,-2.351 -5.255,-4.978 -8.021,-7.606 -2.766,-2.628 -5.532,-5.117 -7.883,-7.468 l -0.553,-0.553 h 0.83 c 7.329,-0.415 13.552,-0.83 18.116,-1.106 2.213,-0.138 3.872,-0.138 5.255,-0.277 z"
         data-name="Path 29033"
         id="Path_29033" />
    </g>
  </g>
  <g
     transform="translate(155.83137,317.96264)"
     data-name="Group 1399"
     id="Group_1399">
    <path
       style="fill:#ffbe9d"
       inkscape:connector-curvature="0"
       transform="translate(-756,-311.65)"
       d="m 759.042,320.431 c 0,0 23.232,-6.638 30.977,-8.712 3.042,-0.83 15.9,5.946 24.754,11.616 0,0 12.169,7.191 11.2,9.542 -1.106,2.489 -5.532,1.936 -12.723,-1.383 0,0 2.489,7.329 -2.351,7.191 0,0 2.489,7.882 -2.213,8.712 -4.563,0.83 -5.67,-9.265 -9.818,-9.819 -4.01,-0.553 -12.446,-1.106 -12.446,-1.106 0,0 -7.053,11.616 -12.446,12.446 -5.393,0.83 -17.976,-0.691 -17.976,-0.691 z"
       data-name="Path 29034"
       id="Path_29034" />
    <g
       transform="translate(42.488,10.078)"
       data-name="Group 1396"
       id="Group_1396">
      <ellipse
         style="fill:#eb996e"
         transform="matrix(0.533,-0.846,0.846,0.533,0,0.702)"
         ry="7.4679999"
         rx="0.41499999"
         cy="7.4679999"
         cx="0.41499999"
         data-name="Ellipse 370"
         id="Ellipse_370" />
    </g>
    <g
       transform="translate(41.317,14.504)"
       data-name="Group 1397"
       id="Group_1397">
      <ellipse
         style="fill:#eb996e"
         transform="matrix(0.419,-0.908,0.908,0.419,0,0.753)"
         ry="8.2969999"
         rx="0.41499999"
         cy="8.2969999"
         cx="0.41499999"
         data-name="Ellipse 371"
         id="Ellipse_371" />
    </g>
    <g
       transform="translate(43.806,25.373)"
       data-name="Group 1398"
       id="Group_1398">
      <ellipse
         style="fill:#eb996e"
         transform="rotate(-82.195,0.47117965,0.411)"
         ry="5.2550001"
         rx="0.41499999"
         cy="5.2550001"
         cx="0.41499999"
         data-name="Ellipse 372"
         id="Ellipse_372" />
    </g>
  </g>
  <g
     transform="translate(109.35037,19.799636)"
     data-name="Group 1430"
     id="Group_1430">
    <g
       data-name="Group 1424"
       id="Group_1424">
      <path
         style="fill:#263238"
         inkscape:connector-curvature="0"
         transform="translate(-722.388,-96.04)"
         d="m 741.627,163.054 a 5.1,5.1 0 0 1 -1.521,5.117 4.841,4.841 0 0 1 -5.255,0.553 c -3.181,-1.659 -3.6,-5.946 -2.9,-9.4 0.553,-3.457 1.8,-7.191 0.276,-10.372 -1.106,-2.489 -3.6,-4.01 -5.393,-5.946 a 15.518,15.518 0 0 1 -4.287,-13 12.764,12.764 0 0 1 8.85,-10.1 c 4.564,-1.245 10.372,0.138 13.829,-3.181 2.489,-2.489 2.628,-6.361 4.564,-9.265 3.042,-4.564 9.4,-5.255 14.659,-4.425 5.393,0.691 10.786,2.489 16.041,1.106 4.425,-1.106 8.021,-4.149 12.031,-6.085 a 24.441,24.441 0 0 1 27.1,5.255 c 6.776,7.053 8.3,18.531 3.872,27.243 a 15.7,15.7 0 0 1 -7.329,7.329"
         data-name="Path 29035"
         id="Path_29035" />
      <g
         transform="translate(17.717,27.951)"
         data-name="Group 1415"
         id="Group_1415">
        <g
           data-name="Group 1414"
           id="Group_1414">
          <g
             data-name="Group 1413"
             id="Group_1413">
            <g
               data-name="Group 1400"
               id="Group_1400">
              <path
                 style="fill:#ffbe9d"
                 inkscape:connector-curvature="0"
                 transform="translate(-735.2,-116.253)"
                 d="m 763.411,269.541 v 0 a 26.765,26.765 0 0 0 26.69,-26.966 l -0.415,-25.445 c 0,0 21.3,-2.074 22.818,-23.232 1.383,-21.158 0.415,-69.974 0.415,-69.974 v 0 a 73.656,73.656 0 0 0 -74.4,5.255 l -3.319,2.213 1.659,111.875 a 26.412,26.412 0 0 0 26.552,26.274 z"
                 data-name="Path 29036"
                 id="Path_29036" />
            </g>
            <g
               transform="translate(65.523,35.722)"
               data-name="Group 1404"
               id="Group_1404">
              <g
                 transform="translate(3.725,3.755)"
                 data-name="Group 1401"
                 id="Group_1401">
                <path
                   style="fill:#263238"
                   inkscape:connector-curvature="0"
                   transform="translate(-785.275,-144.8)"
                   d="m 788.075,151.161 c -3.734,-0.691 -3.734,-5.532 0,-6.361 h 0.553 c 3.734,0.691 3.734,5.532 0,6.361 z"
                   data-name="Path 29037"
                   id="Path_29037" />
              </g>
              <g
                 data-name="Group 1403"
                 id="Group_1403">
                <g
                   data-name="Group 1402"
                   id="Group_1402">
                  <path
                     style="fill:#263238"
                     inkscape:connector-curvature="0"
                     transform="translate(-782.581,-142.085)"
                     d="m 793.255,145.425 c -0.415,0.415 -2.351,-1.383 -5.255,-1.521 -2.9,-0.277 -5.117,1.245 -5.393,0.83 -0.138,-0.138 0.277,-0.83 1.245,-1.521 a 6.592,6.592 0 0 1 4.287,-1.106 7.687,7.687 0 0 1 4.149,1.659 c 0.829,0.834 1.106,1.521 0.967,1.659 z"
                     data-name="Path 29038"
                     id="Path_29038" />
                </g>
              </g>
            </g>
            <g
               transform="translate(33.716,36.552)"
               data-name="Group 1408"
               id="Group_1408">
              <g
                 transform="translate(2.706,1.659)"
                 data-name="Group 1405"
                 id="Group_1405">
                <circle
                   style="fill:#263238"
                   transform="rotate(-55.29,4.7748341,2.501)"
                   r="3.0420001"
                   cy="3.0420001"
                   cx="3.0420001"
                   data-name="Ellipse 373"
                   id="Ellipse_373" />
              </g>
              <g
                 data-name="Group 1407"
                 id="Group_1407">
                <g
                   data-name="Group 1406"
                   id="Group_1406">
                  <path
                     style="fill:#263238"
                     inkscape:connector-curvature="0"
                     transform="translate(-759.581,-142.685)"
                     d="m 770.255,146.025 c -0.415,0.415 -2.351,-1.383 -5.255,-1.521 -2.9,-0.277 -5.117,1.245 -5.393,0.83 -0.138,-0.138 0.277,-0.83 1.245,-1.521 a 6.592,6.592 0 0 1 4.287,-1.106 7.687,7.687 0 0 1 4.149,1.659 c 0.829,0.834 1.106,1.521 0.967,1.659 z"
                     data-name="Path 29039"
                     id="Path_29039" />
                </g>
              </g>
            </g>
            <g
               transform="translate(54.426,39.199)"
               data-name="Group 1410"
               id="Group_1410">
              <g
                 data-name="Group 1409"
                 id="Group_1409">
                <path
                   style="fill:#263238"
                   inkscape:connector-curvature="0"
                   transform="translate(-774.557,-144.599)"
                   d="m 774.893,170.046 c 0,-0.277 1.8,-0.553 4.7,-0.691 0.83,0 1.383,-0.138 1.521,-0.553 a 5.352,5.352 0 0 0 -0.415,-2.213 c -0.691,-1.936 -1.245,-4.01 -1.936,-6.085 -2.766,-8.574 -4.563,-15.765 -4.149,-15.9 0.414,-0.135 3.042,6.776 5.67,15.35 0.691,2.074 1.245,4.149 1.8,6.085 a 4.793,4.793 0 0 1 0.276,3.181 1.837,1.837 0 0 1 -1.383,1.106 4.764,4.764 0 0 1 -1.245,0.138 c -3.041,-0.004 -4.839,-0.142 -4.839,-0.418 z"
                   data-name="Path 29040"
                   id="Path_29040" />
              </g>
            </g>
            <g
               transform="translate(44.841,67.412)"
               data-name="Group 1411"
               id="Group_1411">
              <path
                 style="fill:#ffffff"
                 inkscape:connector-curvature="0"
                 transform="translate(-767.626,-165)"
                 d="m 767.867,165 a 53.516,53.516 0 0 0 14.105,4.978 c 0,0 -3.734,5.255 -9.68,2.627 C 766.069,169.84 767.867,165 767.867,165 Z"
                 data-name="Path 29041"
                 id="Path_29041" />
            </g>
            <g
               transform="translate(27.243,91.059)"
               data-name="Group 1412"
               id="Group_1412">
              <path
                 style="fill:#eb996e"
                 inkscape:connector-curvature="0"
                 transform="translate(-754.9,-182.1)"
                 d="m 782.143,191.5 c 0,0 -13.414,0.415 -27.243,-9.4 0,0 5.67,15.627 26.966,14.8 z"
                 data-name="Path 29042"
                 id="Path_29042" />
            </g>
          </g>
        </g>
      </g>
      <path
         style="fill:#263238"
         inkscape:connector-curvature="0"
         transform="translate(-719.002,-89.891)"
         d="m 814.438,130.769 c 0,0 -12.722,6.5 -29.732,-1.521 -11.063,-5.255 -24.062,-7.744 -26.828,-5.393 -2.766,2.213 -3.181,13.691 -13.967,17.148 0,0 1.106,21.711 -7.468,21.02 -8.712,-0.553 -3.872,-34.3 -3.872,-34.3 l 20.882,-10.786 22.956,-4.84 21.85,2.627 16.871,4.287 z"
         data-name="Path 29043"
         id="Path_29043" />
      <g
         transform="translate(4.438,64.144)"
         data-name="Group 1419"
         id="Group_1419">
        <g
           data-name="Group 1416"
           id="Group_1416">
          <path
             style="fill:#ffbe9d"
             inkscape:connector-curvature="0"
             transform="translate(-725.597,-142.425)"
             d="m 740.259,143.358 c -0.415,-0.138 -14.382,-5.117 -14.658,9.4 -0.276,14.517 14.244,11.893 14.382,11.478 0,-0.411 0.276,-20.878 0.276,-20.878 z"
             data-name="Path 29044"
             id="Path_29044" />
        </g>
        <g
           transform="translate(3.737,4.529)"
           data-name="Group 1418"
           id="Group_1418">
          <g
             data-name="Group 1417"
             id="Group_1417">
            <path
               style="fill:#eb996e"
               inkscape:connector-curvature="0"
               transform="translate(-728.3,-145.7)"
               d="m 734.523,157.316 a 7.177,7.177 0 0 0 -0.691,0.415 3.015,3.015 0 0 1 -1.936,0 c -1.521,-0.553 -2.766,-3.042 -2.766,-5.67 a 7.276,7.276 0 0 1 0.83,-3.6 2.713,2.713 0 0 1 1.936,-1.936 1.392,1.392 0 0 1 1.521,0.691 2.423,2.423 0 0 1 0.138,0.691 1.211,1.211 0 0 0 0.277,-0.83 1.757,1.757 0 0 0 -0.553,-0.968 2.065,2.065 0 0 0 -1.383,-0.415 3.283,3.283 0 0 0 -2.627,2.213 9.03,9.03 0 0 0 -0.968,4.01 c 0,2.9 1.521,5.67 3.6,6.361 a 3.091,3.091 0 0 0 2.351,-0.277 c 0.271,-0.27 0.409,-0.685 0.271,-0.685 z"
               data-name="Path 29045"
               id="Path_29045" />
          </g>
        </g>
      </g>
      <g
         transform="translate(11.627,19.351)"
         data-name="Group 1420"
         id="Group_1420">
        <path
           style="fill:#263238"
           inkscape:connector-curvature="0"
           transform="translate(-730.796,-110.034)"
           d="m 730.8,110.4 c -0.138,-0.138 2.351,-0.83 4.978,0.138 2.766,0.968 4.149,3.042 3.872,3.181 -0.138,0.138 -1.659,-1.521 -4.149,-2.489 A 15.925,15.925 0 0 0 730.8,110.4 Z"
           data-name="Path 29046"
           id="Path_29046" />
      </g>
      <g
         transform="translate(19.857,11.007)"
         data-name="Group 1421"
         id="Group_1421">
        <path
           style="fill:#263238"
           inkscape:connector-curvature="0"
           transform="translate(-736.747,-104)"
           d="m 737.235,104 c 0.276,0 -0.138,3.042 0.415,6.638 0.553,3.596 2.213,6.223 2.074,6.361 a 10.13,10.13 0 0 1 -1.245,-1.659 15.992,15.992 0 0 1 -1.521,-4.564 15.356,15.356 0 0 1 0.277,-6.776 z"
           data-name="Path 29047"
           id="Path_29047" />
      </g>
      <g
         transform="translate(79.93,58.164)"
         data-name="Group 1422"
         id="Group_1422">
        <path
           style="fill:#263238"
           inkscape:connector-curvature="0"
           transform="translate(-780.187,-138.1)"
           d="m 780.2,140.036 c -0.138,-0.138 0.553,-0.691 1.659,-1.106 a 14.554,14.554 0 0 1 4.84,-0.83 11.52,11.52 0 0 1 4.84,0.968 c 1.106,0.553 1.8,0.968 1.659,1.245 -0.138,0.415 -2.9,-0.691 -6.5,-0.691 -3.451,-0.277 -6.355,0.829 -6.498,0.414 z"
           data-name="Path 29048"
           id="Path_29048" />
      </g>
      <g
         transform="translate(47.57,55.121)"
         data-name="Group 1423"
         id="Group_1423">
        <path
           style="fill:#263238"
           inkscape:connector-curvature="0"
           transform="translate(-756.787,-135.9)"
           d="m 756.8,137.836 c -0.138,-0.138 0.553,-0.691 1.66,-1.106 a 14.553,14.553 0 0 1 4.84,-0.83 11.521,11.521 0 0 1 4.84,0.968 c 1.106,0.553 1.8,0.968 1.659,1.245 -0.138,0.415 -2.9,-0.691 -6.5,-0.691 -3.452,-0.277 -6.218,0.829 -6.499,0.414 z"
           data-name="Path 29049"
           id="Path_29049" />
      </g>
    </g>
    <g
       transform="translate(17.03,61.206)"
       data-name="Group 1429"
       id="Group_1429">
      <g
         transform="translate(59.963,0.83)"
         data-name="Group 1425"
         id="Group_1425">
        <path
           style="fill:#263238"
           inkscape:connector-curvature="0"
           transform="translate(-778.064,-140.9)"
           d="m 778.529,141.315 v 0.83 a 15.986,15.986 0 0 0 0.138,2.351 35.068,35.068 0 0 0 0.138,3.6 14.9,14.9 0 0 0 0.691,4.7 12.333,12.333 0 0 0 3.042,4.84 13.459,13.459 0 0 0 5.67,3.181 10.293,10.293 0 0 0 3.6,0.277 8.068,8.068 0 0 0 3.6,-0.83 11.953,11.953 0 0 0 5.946,-4.84 12.133,12.133 0 0 0 1.936,-7.053 v -7.191 l 0.277,0.277 c -7.191,0 -13.414,-0.138 -17.977,-0.138 -2.213,0 -3.872,0 -5.255,-0.138 h -1.383 a 0.683,0.683 0 0 1 -0.415,0.138 c 0,0 0.553,0 1.8,-0.138 1.245,0 3.042,0 5.117,-0.138 4.563,0 10.786,-0.138 18.116,-0.138 h 0.277 v 7.468 a 12.278,12.278 0 0 1 -2.074,7.468 13.5,13.5 0 0 1 -6.361,5.117 17.509,17.509 0 0 1 -3.872,0.83 8.659,8.659 0 0 1 -3.734,-0.415 12.6,12.6 0 0 1 -5.946,-3.319 14.372,14.372 0 0 1 -3.181,-5.117 12.414,12.414 0 0 1 -0.553,-4.84 31.282,31.282 0 0 1 0.138,-3.734 11.932,11.932 0 0 1 0.138,-2.351 c 0.127,-0.559 0.127,-0.835 0.127,-0.697 z"
           data-name="Path 29050"
           id="Path_29050" />
      </g>
      <g
         transform="translate(26.083)"
         data-name="Group 1426"
         id="Group_1426">
        <path
           style="fill:#263238"
           inkscape:connector-curvature="0"
           transform="translate(-753.564,-140.3)"
           d="m 754.029,140.715 v 0.83 a 16,16 0 0 0 0.138,2.351 35.052,35.052 0 0 0 0.138,3.6 14.9,14.9 0 0 0 0.691,4.7 12.332,12.332 0 0 0 3.042,4.84 13.46,13.46 0 0 0 5.67,3.181 10.292,10.292 0 0 0 3.6,0.277 8.067,8.067 0 0 0 3.6,-0.83 11.953,11.953 0 0 0 5.946,-4.84 12.131,12.131 0 0 0 1.936,-7.053 v -7.191 l 0.277,0.277 c -7.191,0 -13.414,-0.138 -17.977,-0.138 -2.213,0 -3.872,0 -5.255,-0.138 h -1.383 c -0.277,0.277 -0.415,0.138 -0.415,0.138 0,0 0.553,0 1.8,-0.138 1.245,0 3.042,0 5.117,-0.138 4.564,0 10.786,-0.138 18.116,-0.138 h 0.277 v 7.468 a 12.28,12.28 0 0 1 -2.074,7.468 13.5,13.5 0 0 1 -6.361,5.117 17.509,17.509 0 0 1 -3.872,0.83 8.659,8.659 0 0 1 -3.734,-0.415 12.6,12.6 0 0 1 -5.947,-3.319 14.373,14.373 0 0 1 -3.181,-5.117 12.415,12.415 0 0 1 -0.553,-4.84 31.31,31.31 0 0 1 0.138,-3.734 11.932,11.932 0 0 1 0.138,-2.351 2.418,2.418 0 0 0 0.128,-0.697 z"
           data-name="Path 29051"
           id="Path_29051" />
      </g>
      <g
         transform="translate(51.163,1.798)"
         data-name="Group 1427"
         id="Group_1427">
        <ellipse
           style="fill:#263238"
           ry="0.41499999"
           rx="4.8400002"
           cy="0.41499999"
           cx="4.8400002"
           data-name="Ellipse 374"
           id="Ellipse_374" />
      </g>
      <g
         transform="translate(0,1.895)"
         data-name="Group 1428"
         id="Group_1428">
        <ellipse
           style="fill:#263238"
           transform="rotate(-0.174,26.342867,0.0399989)"
           ry="0.41499999"
           rx="13.276"
           cy="0.41499999"
           cx="13.276"
           data-name="Ellipse 375"
           id="Ellipse_375" />
      </g>
    </g>
  </g>
  <path
     style="fill:#263238"
     inkscape:connector-curvature="0"
     d="m 274.89737,245.22863 -45.773,113.53501 h -82.835 v 5.117 h 246.568 l 50.332,-118.65201 z"
     data-name="Path 29057"
     id="Path_29057" />
  <ellipse
     style="fill:#c7d3de"
     transform="rotate(-73.739795)"
     ry="8.1590004"
     rx="10.786"
     cy="410.586"
     cx="-203.24426"
     data-name="Ellipse 377"
     id="Ellipse_377" />
  <g
     id="g2365"
     transform="translate(-185.38789,24.112206)">
    <g
       style="fill:#a3b7fe;fill-opacity:1"
       transform="matrix(0.15697805,0,0,0.15697805,574.7588,103.85359)"
       id="g224">
      <path
         style="fill:#a3b7fe;fill-opacity:1"
         inkscape:connector-curvature="0"
         id="path220"
         d="M 101.7,507.7 C 133.3,483.1 195.2,462.8 238,485.2 L 237.2,361 c 0,0 -109.9,32.3 -158.2,131.5 z"
         class="st3" />
      <path
         style="fill:#a3b7fe;fill-opacity:1"
         inkscape:connector-curvature="0"
         id="path222"
         d="m 285.6,630.9 c 10.8,-38.6 6,-103.6 -31,-134.6 l 115.3,-46.5 c 0,0 11.9,114 -61.5,196.3 z"
         class="st3" />
    </g>
    <path
       style="fill:#4b6c8e;fill-opacity:1;stroke-width:0.15697806"
       inkscape:connector-curvature="0"
       id="path226"
       d="m 640.06167,141.23006 0.0628,-0.10988 c -0.0314,0.0157 -0.0471,0.0157 -0.0785,0.0314 0,-0.0314 0,-0.0471 0,-0.0785 l -0.0628,0.10988 c -7.33088,2.44886 -37.1724,14.17512 -33.92296,41.39511 l 4.26981,2.857 0.0785,0.0471 4.2698,2.857 c 26.40371,-7.34658 25.90138,-39.40149 25.38335,-47.10912 z"
       class="st2" />
    <path
       style="fill:#e8505b;fill-opacity:1;stroke-width:0.15697806"
       inkscape:connector-curvature="0"
       id="path228"
       d="m 638.63317,160.55406 c 1.86804,-8.33553 1.64827,-16.04316 1.4285,-19.324 l 0.0628,-0.10988 c -0.0314,0.0157 -0.0471,0.0157 -0.0785,0.0314 0,-0.0314 0,-0.0471 0,-0.0785 l -0.0628,0.10988 c -3.12386,1.05175 -10.32916,3.76747 -17.33038,8.66519 z"
       class="st1" />
    <g
       transform="matrix(0.15697805,0,0,0.15697805,574.7588,103.85359)"
       id="g234">
      <circle
         style="fill:#ffffff"
         id="circle230"
         r="40.700001"
         cy="376.79999"
         cx="322.70001"
         class="st5" />
      <circle
         style="fill:#055472"
         id="circle232"
         r="26.5"
         cy="376.79999"
         cx="322.70001"
         class="st2" />
    </g>
    <rect
       style="fill:#e8505b;fill-opacity:1;stroke-width:0.15697628"
       id="rect236"
       height="3.2808042"
       width="15.383676"
       class="st1"
       transform="rotate(33.82832)"
       y="-185.89494"
       x="602.57764" />
    <path
       style="fill:#4b6c8e;fill-opacity:1;stroke-width:0.15697806"
       inkscape:connector-curvature="0"
       id="path238"
       d="m 612.6376,190.74094 -8.03727,-5.38435 -2.08781,3.10817 c -0.39245,0.58082 -0.23547,1.36571 0.34535,1.75815 l 5.93377,3.97155 c 0.58082,0.39244 1.36571,0.23546 1.75816,-0.34535 z"
       class="st2" />
  </g>
  <g
     id="g2353"
     transform="translate(-123.8924,-102.27606)">
    <path
       style="fill:#4b6c8e;fill-opacity:1"
       id="path2"
       d="m 559.94026,212.37742 c 4.32,-5.61 5.76,-11.16 3.4,-15.25 -2.36,-4.09 -7.88,-5.6 -14.9,-4.67 -2.5,-5.97 -6.09,-9.85 -10.31,-10.46 a 6.72,6.72 0 0 1 0.6,2.18 c 3,0.91 5.64,4.05 7.61,8.64 a 48.33,48.33 0 0 0 -9.4,2.91 49.19,49.19 0 0 0 -9.43,-2.88 c 0.27,-0.64 0.55,-1.26 0.86,-1.85 a 6.72,6.72 0 0 1 -1.61,-1.24 c -0.46,0.86 -0.89,1.79 -1.29,2.76 -0.53,-0.07 -1.1,-0.14 -1.63,-0.14 -6.48,-0.53 -11.2,1.18 -13.3,4.81 -2.36,4.04 -0.92,9.58 3.4,15.19 -4.25,5.52 -5.72,11 -3.5,15.06 a 6.8,6.8 0 0 1 1.39,-1.76 c -1.15,-3.13 0.22,-7.32 3.45,-11.65 a 49.09,49.09 0 0 0 7.22,6.69 49.14,49.14 0 0 0 2.19,9.6 c -0.39,0 -0.78,0.1 -1.16,0.13 a 2.55,2.55 0 0 1 0,0.39 6.74,6.74 0 0 1 -0.2,1.63 c 0.67,0 1.37,-0.12 2.07,-0.21 2.7,6.57 6.78,10.61 11.52,10.61 4.74,0 8.81,-4 11.51,-10.6 0.83,0.11 1.64,0.18 2.43,0.22 a 6.49,6.49 0 0 1 -0.33,-2 c -0.44,0 -0.9,-0.09 -1.36,-0.14 a 48.61,48.61 0 0 0 2.18,-9.6 48.51,48.51 0 0 0 7.22,-6.68 c 3,4.09 4.44,8 3.63,11.1 a 7.22,7.22 0 0 1 1.46,1.83 c 1.88,-4.05 0.37,-9.3 -3.72,-14.62 z m 1.67,-14.25 c 1.84,3.21 0.55,7.81 -3,12.6 a 48.65,48.65 0 0 0 -7.23,-6.69 47.65,47.65 0 0 0 -2.18,-9.59 c 5.92,-0.68 10.56,0.49 12.41,3.69 z m -14.5,-3.37 a 44.66,44.66 0 0 1 2,7.61 c -1.47,-1 -3,-2 -4.65,-2.95 -1.65,-0.95 -3.26,-1.78 -4.89,-2.55 a 45.56,45.56 0 0 1 7.54,-2.1 z m 2.83,17.62 a 60.63,60.63 0 0 1 -0.43,7.25 62.06,62.06 0 0 1 -6.05,4 63,63 0 0 1 -6.52,3.22 60.37,60.37 0 0 1 -6.49,-3.24 60.49,60.49 0 0 1 -6.06,-4 61.79,61.79 0 0 1 0,-14.47 62.35,62.35 0 0 1 12.55,-7.23 63.12,63.12 0 0 1 6.47,3.25 59.25,59.25 0 0 1 6.05,4 59.88,59.88 0 0 1 0.48,7.22 z m -15.58,-15.51 c -1.62,0.77 -3.26,1.62 -4.9,2.57 -1.64,0.95 -3.19,1.94 -4.65,2.94 a 45.08,45.08 0 0 1 1.95,-7.64 45,45 0 0 1 7.6,2.13 z m -22.09,1.27 c 1.69,-2.92 5.74,-4.28 11.41,-3.82 0.34,0 0.7,0.08 1.05,0.13 a 48.92,48.92 0 0 0 -2.2,9.59 48.89,48.89 0 0 0 -7.25,6.69 c -3.56,-4.78 -4.86,-9.35 -3.01,-12.59 z m 4.32,14.24 a 44.7,44.7 0 0 1 5.63,-5.5 c -0.16,1.79 -0.28,3.63 -0.28,5.5 0,1.87 0.08,3.73 0.23,5.51 a 46,46 0 0 1 -5.58,-5.51 z m 8.22,10 q 2.19,1.53 4.65,3 c 1.63,0.94 3.27,1.79 4.9,2.55 a 43.61,43.61 0 0 1 -7.59,2.13 44.91,44.91 0 0 1 -1.96,-7.68 z m 12.13,18.49 c -3.71,0 -7.06,-3.45 -9.42,-9 a 49,49 0 0 0 9.42,-2.84 48.68,48.68 0 0 0 9.42,2.89 c -2.37,5.46 -5.72,8.95 -9.42,8.95 z m 10.17,-10.86 a 45.27,45.27 0 0 1 -7.58,-2.12 c 1.63,-0.77 3.26,-1.61 4.89,-2.55 1.63,-0.94 3.18,-1.96 4.65,-2.96 a 46.13,46.13 0 0 1 -1.96,7.63 z m 4.56,-12.12 c 0.15,-1.78 0.23,-3.62 0.23,-5.51 0,-1.89 -0.08,-3.72 -0.23,-5.49 a 45.16,45.16 0 0 1 5.61,5.49 45.16,45.16 0 0 1 -5.61,5.51 z"
       inkscape:connector-curvature="0" />
    <path
       style="fill:#e8505b;fill-opacity:1"
       id="path4"
       d="m 527.45026,212.37742 a 9.49,9.49 0 1 0 9.49,-9.49 9.51,9.51 0 0 0 -9.49,9.49 z"
       inkscape:connector-curvature="0" />
    <path
       style="fill:#e8505b;fill-opacity:1"
       id="path6"
       d="m 531.76026,189.88742 a 5,5 0 1 0 -5,-5 5,5 0 0 0 5,5 z"
       inkscape:connector-curvature="0" />
    <circle
       style="fill:#e8505b;fill-opacity:1"
       id="circle8"
       r="5"
       cy="230.33743"
       cx="557.54028" />
    <circle
       style="fill:#e8505b;fill-opacity:1"
       id="circle10"
       r="5"
       cy="230.83743"
       cx="516.55029" />
  </g>
  <g
     id="g2414"
     transform="translate(-214.2934,-17.606264)">
    <path
       class="st4"
       d="m 567.18402,100.72318 c -3.44334,-3.502038 -8.06054,-5.49761 -12.75601,-5.84977 -4.6759,0.35216 -9.31268,2.328168 -12.75601,5.84977 -4.38244,4.48025 -5.49761,10.89739 -4.3433,16.86453 1.05648,5.39979 4.38243,9.09747 7.00406,13.65599 0.62607,1.07604 0.74345,2.75858 0.80215,4.3433 0.0587,1.56515 1.34994,2.81728 2.91509,2.81728 h 6.39757 6.37801 c 1.56516,0 2.85641,-1.25213 2.9151,-2.81728 0.0587,-1.58472 0.17608,-3.26726 0.80214,-4.3433 2.62164,-4.55852 5.94759,-8.2562 7.00407,-13.65599 1.15431,-5.98671 0.0391,-12.40385 -4.36287,-16.86453 z"
       id="path1446"
       inkscape:connector-curvature="0"
       style="fill:#ee9da3;fill-opacity:1;stroke-width:0.19564435" />
    <path
       class="st16"
       d="m 567.18402,100.72318 c -3.01292,-3.07162 -6.94538,-4.988935 -11.03434,-5.634562 2.69989,3.83463 4.28461,8.510532 4.28461,13.558152 0,10.44741 -6.78886,19.3101 -16.19935,22.42085 0.0391,0.0587 0.0783,0.11738 0.0978,0.17608 0.62607,1.07604 0.74345,2.75858 0.80215,4.3433 0.0587,1.56515 1.34994,2.81728 2.91509,2.81728 h 6.39757 6.37801 c 1.56516,0 2.85641,-1.25213 2.9151,-2.81728 0.0587,-1.58472 0.17608,-3.26726 0.80214,-4.3433 2.62164,-4.55852 5.94759,-8.2562 7.00407,-13.65599 1.15431,-5.98671 0.0391,-12.40385 -4.36287,-16.86453 z"
       id="path1448"
       inkscape:connector-curvature="0"
       style="fill:#e8505b;fill-opacity:1;stroke-width:0.19564435" />
    <g
       transform="matrix(0.19564435,0,0,0.19564435,419.84426,73.528611)"
       id="g1454">
      <path
         class="st2"
         d="M 743.6,321.1 H 632.3 c -2.2,0 -4,1.8 -4,4 v 18.8 c 0,2.2 1.8,4 4,4 h 111.3 c 2.2,0 4,-1.8 4,-4 v -18.8 c 0,-2.2 -1.8,-4 -4,-4 z"
         id="path1450"
         inkscape:connector-curvature="0"
         style="fill:#055472" />
      <path
         class="st2"
         d="m 723.4,367.8 h -70.8 c -1.7,0 -3.2,-1.4 -3.2,-3.2 v -19.5 c 0,-1.7 1.4,-3.2 3.2,-3.2 h 70.8 c 1.7,0 3.2,1.4 3.2,3.2 v 19.5 c 0,1.8 -1.5,3.2 -3.2,3.2 z"
         id="path1452"
         inkscape:connector-curvature="0"
         style="fill:#055472" />
    </g>
  </g>
  <g
     id="g2407"
     transform="matrix(2.2209701,0,0,2.2209701,-856.81989,-192.76939)">
    <g
       transform="matrix(0.15071845,0,0,-0.15071845,516.82183,142.50457)"
       id="g132">
      <path
         inkscape:connector-curvature="0"
         id="path134"
         style="fill:#e8505b;fill-opacity:1;fill-rule:nonzero;stroke:none"
         d="m 0,0 c 0,-12.194 -9.885,-22.079 -22.079,-22.079 -12.194,0 -22.08,9.885 -22.08,22.079 0,12.195 9.886,22.08 22.08,22.08 C -9.885,22.08 0,12.195 0,0" />
    </g>
    <g
       style="fill:#a3b7fe;fill-opacity:1"
       transform="matrix(0.15071845,0,0,-0.15071845,514.52462,150.2732)"
       id="g136">
      <path
         inkscape:connector-curvature="0"
         id="path138"
         style="fill:#a3b7fe;fill-opacity:1;fill-rule:nonzero;stroke:none"
         d="m 0,0 c 0,-3.776 -3.061,-6.836 -6.837,-6.836 -3.776,0 -6.837,3.06 -6.837,6.836 v 44.708 c 0,3.776 3.061,6.836 6.837,6.836 3.776,0 6.837,-3.06 6.837,-6.836 z" />
    </g>
    <g
       style="fill:#e8505b;fill-opacity:1"
       transform="matrix(0.15071845,0,0,-0.15071845,501.33749,157.79734)"
       id="g140">
      <path
         inkscape:connector-curvature="0"
         id="path142"
         style="fill:#e8505b;fill-opacity:1;fill-rule:nonzero;stroke:none"
         d="M 0,0 C 10.561,6.096 24.065,2.479 30.164,-8.082 36.26,-18.641 32.641,-32.146 22.08,-38.244 11.52,-44.34 -1.982,-40.721 -8.081,-30.16 -14.177,-19.6 -10.559,-6.096 0,0" />
    </g>
    <g
       style="fill:#e8505b;fill-opacity:1"
       transform="matrix(0.15071845,0,0,-0.15071845,522.32364,163.56071)"
       id="g144">
      <path
         inkscape:connector-curvature="0"
         id="path146"
         style="fill:#e8505b;fill-opacity:1;fill-rule:nonzero;stroke:none"
         d="M 0,0 C -10.559,6.099 -14.18,19.603 -8.082,30.161 -1.985,40.723 11.52,44.339 22.081,38.241 32.64,32.146 36.259,18.644 30.161,8.081 24.064,-2.477 10.561,-6.098 0,0" />
    </g>
    <g
       style="fill:#a3b7fe;fill-opacity:1"
       transform="matrix(0.15071845,0,0,-0.15071845,509.21415,155.90248)"
       id="g148">
      <path
         inkscape:connector-curvature="0"
         id="path150"
         style="fill:#a3b7fe;fill-opacity:1;fill-rule:nonzero;stroke:none"
         d="m 0,0 c 3.27,1.888 7.451,0.766 9.338,-2.501 1.889,-3.273 0.768,-7.452 -2.501,-9.34 l -38.719,-22.354 c -3.269,-1.89 -7.451,-0.768 -9.338,2.503 -1.889,3.269 -0.768,7.451 2.501,9.338 z" />
    </g>
    <g
       style="fill:#a3b7fe;fill-opacity:1"
       transform="matrix(0.15071845,0,0,-0.15071845,516.74448,157.68644)"
       id="g152">
      <path
         inkscape:connector-curvature="0"
         id="path154"
         style="fill:#a3b7fe;fill-opacity:1;fill-rule:nonzero;stroke:none"
         d="m 0,0 c -3.27,1.885 -4.389,6.066 -2.503,9.335 1.89,3.272 6.069,4.394 9.339,2.503 l 38.718,-22.353 c 3.271,-1.885 4.391,-6.069 2.503,-9.339 -1.888,-3.27 -6.071,-4.39 -9.34,-2.504 z" />
    </g>
    <g
       style="fill:#055472;fill-opacity:1"
       transform="matrix(0.15071845,0,0,-0.15071845,519.53749,154.62063)"
       id="g156">
      <path
         inkscape:connector-curvature="0"
         id="path158"
         style="fill:#055472;fill-opacity:1;fill-rule:nonzero;stroke:none"
         d="m 0,0 c 0,-22.146 -17.952,-40.097 -40.097,-40.097 -22.144,0 -40.096,17.951 -40.096,40.097 0,22.145 17.952,40.096 40.096,40.096 C -17.952,40.096 0,22.145 0,0" />
    </g>
  </g>
  <g
     id="g2391"
     transform="translate(-186.66864,-11.851114)">
    <g
       transform="matrix(0.32362573,0,0,-0.32362573,521.12664,42.514976)"
       id="g260">
      <path
         inkscape:connector-curvature="0"
         id="path262"
         style="fill:#ffcb04;fill-opacity:1;fill-rule:nonzero;stroke:none"
         d="m 0,0 c 0,-52.327 -42.423,-94.749 -94.751,-94.749 -52.329,0 -94.751,42.422 -94.751,94.749 0,52.331 42.422,94.751 94.751,94.751 C -42.423,94.751 0,52.331 0,0" />
    </g>
    <g
       transform="matrix(0.32362573,0,0,-0.32362573,510.66537,42.514976)"
       id="g264">
      <path
         inkscape:connector-curvature="0"
         id="path266"
         style="fill:#f7931d;fill-opacity:1;fill-rule:nonzero;stroke:none"
         d="m 0,0 c 0,-34.474 -27.952,-62.427 -62.426,-62.427 -34.476,0 -62.428,27.953 -62.428,62.427 0,34.476 27.952,62.429 62.428,62.429 C -27.952,62.429 0,34.476 0,0" />
    </g>
    <g
       style="fill:#e8505b;fill-opacity:1"
       transform="matrix(0.32362573,0,0,-0.32362573,500.66285,42.514976)"
       id="g268">
      <path
         inkscape:connector-curvature="0"
         id="path270"
         style="fill:#e8505b;fill-opacity:1;fill-rule:nonzero;stroke:none"
         d="m 0,0 c 0,-17.403 -14.116,-31.516 -31.519,-31.516 -17.404,0 -31.518,14.113 -31.518,31.516 0,17.405 14.114,31.519 31.518,31.519 C -14.116,31.519 0,17.405 0,0" />
    </g>
    <g
       transform="matrix(0.32362573,0,0,-0.32362573,490.46262,73.178226)"
       id="g272">
      <path
         inkscape:connector-curvature="0"
         id="path274"
         style="fill:#e8b908;fill-opacity:1;fill-rule:nonzero;stroke:none"
         d="m 0,0 c -0.006,0.005 -57.849,17.82 -57.849,94.749 0,76.932 57.843,94.746 57.849,94.751 z" />
    </g>
    <g
       transform="matrix(0.32362573,0,0,-0.32362573,490.46262,62.615666)"
       id="g276">
      <path
         inkscape:connector-curvature="0"
         id="path278"
         style="fill:#e1861a;fill-opacity:1;fill-rule:nonzero;stroke:none"
         d="m 0,0 c -0.006,0.005 -41.552,9.077 -41.552,62.45 0,53.371 41.546,62.443 41.552,62.45 z" />
    </g>
    <g
       transform="matrix(0.32362573,0,0,-0.32362573,490.46262,52.714436)"
       id="g280">
      <path
         inkscape:connector-curvature="0"
         id="path282"
         style="fill:#d81920;fill-opacity:1;fill-rule:nonzero;stroke:none"
         d="M 0,0 C -0.02,0.018 -19.895,7.65 -19.895,31.855 -19.895,56.14 -0.02,62.948 0,62.968 Z" />
    </g>
    <g
       style="fill:#4b6c8e;fill-opacity:1"
       transform="matrix(0.32362573,0,0,-0.32362573,490.46262,73.178226)"
       id="g284">
      <path
         inkscape:connector-curvature="0"
         id="path286"
         style="fill:#4b6c8e;fill-opacity:1;fill-rule:nonzero;stroke:none"
         d="m 0,0 c -0.006,0.005 -57.849,17.82 -57.849,94.749 0,76.932 57.843,94.746 57.849,94.751 -52.328,0 -94.751,-42.42 -94.751,-94.751 C -94.751,42.422 -52.328,0 0,0" />
    </g>
  </g>
  <g
     id="g2375"
     transform="translate(-248.87226,168.98681)">
    <g
       transform="matrix(0.32362573,0,0,-0.32362573,590.98698,32.316046)"
       id="g288">
      <path
         inkscape:connector-curvature="0"
         id="path290"
         style="fill:#f8c1d9;fill-opacity:1;fill-rule:nonzero;stroke:none"
         d="M 0,0 C 0,1.559 0.244,3.064 0.687,4.479 L -38.417,17.97 C -39.879,11.881 -45.08,7.252 -51.466,6.665 v -106.19 h 65.138 v 84.651 C 6.02,-14.229 0,-7.822 0,0 M 68.242,15.758 29.34,3.919 C 29.677,2.669 29.875,1.358 29.875,0 c 0,-7.736 -5.879,-14.1 -13.414,-14.861 V -99.525 H 81.598 V 4.832 C 75.197,5.307 69.922,9.774 68.242,15.758 m -135.767,3.579 -37.944,-8.899 c 0.224,-1.046 0.347,-2.131 0.347,-3.245 0,-8.114 -6.239,-14.761 -14.18,-15.433 v -91.285 h 65.139 V 6.661 c -6.879,0.61 -12.396,5.904 -13.362,12.676" />
    </g>
    <g
       style="fill:#e8505b;fill-opacity:1"
       transform="matrix(0.32362573,0,0,-0.32362573,618.20394,64.484736)"
       id="g292">
      <path
         inkscape:connector-curvature="0"
         id="path294"
         style="fill:#e8505b;fill-opacity:1;fill-rule:nonzero;stroke:none"
         d="M 0,0 V 104.183 H -4.895 V 0 h -61.984 v 83.38 h -4.895 V 0 h -61.985 v 105.764 h -4.895 V 0 h -61.982 v 95.23 h -4.897 V -4.896 H 41.685 V 0 Z" />
    </g>
    <g
       style="fill:#e8505b;fill-opacity:1"
       transform="matrix(0.32362573,0,0,-0.32362573,617.75737,29.108556)"
       id="g296">
      <path
         inkscape:connector-curvature="0"
         id="path298"
         style="fill:#e8505b;fill-opacity:1;fill-rule:nonzero;stroke:none"
         d="m 0,0 c -5.474,0 -9.914,4.438 -9.914,9.913 0,5.473 4.44,9.911 9.914,9.911 5.474,0 9.911,-4.438 9.911,-9.911 C 9.911,4.438 5.474,0 0,0 m 0,29.736 c -10.946,0 -19.823,-8.874 -19.823,-19.823 0,-10.948 8.877,-19.824 19.823,-19.824 10.948,0 19.825,8.876 19.825,19.824 0,10.949 -8.877,19.823 -19.825,19.823 M -135.561,1.621 c -5.471,0 -9.911,4.44 -9.911,9.914 0,5.473 4.44,9.911 9.911,9.911 5.474,0 9.912,-4.438 9.912,-9.911 0,-5.474 -4.438,-9.914 -9.912,-9.914 m 0,29.737 c -10.949,0 -19.824,-8.875 -19.824,-19.823 0,-10.948 8.875,-19.825 19.824,-19.825 10.948,0 19.825,8.877 19.825,19.825 0,10.948 -8.877,19.823 -19.825,19.823 m 67.781,-51.182 c -5.474,0 -9.914,4.439 -9.914,9.913 0,5.473 4.44,9.911 9.914,9.911 5.475,0 9.911,-4.438 9.911,-9.911 0,-5.474 -4.436,-9.913 -9.911,-9.913 m 0,29.737 c -10.948,0 -19.825,-8.875 -19.825,-19.824 0,-10.949 8.877,-19.825 19.825,-19.825 10.947,0 19.822,8.876 19.822,19.825 0,10.949 -8.875,19.824 -19.822,19.824 m -135.563,-22.541 c -5.471,0 -9.911,4.437 -9.911,9.91 0,5.475 4.44,9.913 9.911,9.913 5.474,0 9.914,-4.438 9.914,-9.913 0,-5.473 -4.44,-9.91 -9.914,-9.91 m 0,29.733 c -10.946,0 -19.823,-8.875 -19.823,-19.823 0,-10.947 8.877,-19.824 19.823,-19.824 10.95,0 19.825,8.877 19.825,19.824 0,10.948 -8.875,19.823 -19.825,19.823" />
    </g>
    <g
       style="fill:#4b6c8e;fill-opacity:1"
       transform="matrix(0.32362573,0,0,-0.32362573,579.26186,28.871336)"
       id="g300">
      <path
         inkscape:connector-curvature="0"
         id="path302"
         style="fill:#4b6c8e;fill-opacity:1;fill-rule:nonzero;stroke:none"
         d="m 0,0 31.383,-9.929 c 0.132,3.714 1.274,7.165 3.176,10.084 L 3.178,10.085 C 3.044,6.373 1.904,2.92 0,0 M 99.142,8.895 68.004,-0.212 c 1.837,-2.957 2.922,-6.423 2.975,-10.148 l 31.136,9.109 C 100.28,1.706 99.192,5.171 99.142,8.895 M -36.372,12.049 -66.795,5.652 c 1.415,-2.729 2.228,-5.818 2.228,-9.103 0,-0.42 -0.037,-0.831 -0.065,-1.247 l 30.423,6.397 c -1.413,2.728 -2.226,5.818 -2.226,9.103 0,0.422 0.038,0.832 0.063,1.247" />
    </g>
  </g>
</svg>
